<svg width="126" height="56" viewBox="0 0 126 56" fill="none" xmlns="http://www.w3.org/2000/svg">
<path d="M25.5826 15.1218C26.8679 14.3234 28.2852 13.5114 29.8336 12.6875V12.8034C29.7816 15.2504 29.7676 17.8207 29.7946 20.5123C29.8206 23.2048 29.8336 25.89 29.8336 28.5688V37.1262H25.5826V31.4666C23.8502 30.4876 22.1383 29.5086 20.4458 28.5296C18.7534 27.5505 17.0415 26.5971 15.3091 25.6701C13.5767 26.6491 11.8843 27.6153 10.2319 28.5679C8.57847 29.5213 6.88606 30.4867 5.15461 31.4657V37.1253H0.90358V29.0314L4.44641 26.9447C6.28288 25.8881 8.11378 24.8644 9.93724 23.8726C11.7607 22.8809 13.5916 21.8955 15.4281 20.9165C17.0815 21.8435 18.7404 22.7905 20.4068 23.7568C22.0732 24.723 23.7981 25.6692 25.5826 26.5971V15.1209V15.1218ZM37.4695 37.1262H33.2184V28.5296C35.2389 27.3708 37.3124 26.192 39.437 24.994C41.5625 23.796 43.662 22.6172 45.7345 21.4584C46.0236 21.2778 46.3182 21.0916 46.6202 20.8982C46.9223 20.7048 47.2169 20.5442 47.5059 20.4156C47.69 20.3645 47.8795 20.3964 48.0766 20.5123C48.2736 20.6281 48.5162 20.7504 48.8043 20.8791C51.0088 22.1674 53.2328 23.4356 55.4764 24.6856C57.7199 25.9347 59.9049 27.1783 62.0295 28.4146C59.6419 29.806 57.2543 31.1773 54.8658 32.5295C52.4782 33.8817 50.0636 35.254 47.623 36.6454C46.9669 36.233 46.2912 35.8279 45.596 35.4282C44.9009 35.0286 44.1982 34.6235 43.49 34.2111C45.1434 33.2321 46.8163 32.2658 48.5087 31.3133C50.2012 30.3598 51.8741 29.3945 53.5274 28.4155C52.5832 27.8224 51.6185 27.2622 50.6343 26.7349C49.65 26.2066 48.6853 25.6847 47.7411 25.1701C46.0096 26.0971 44.2977 27.0505 42.6043 28.0296C40.9119 29.0086 39.2 29.9876 37.4676 30.9666V37.1289L37.4695 37.1262Z" fill="#81CAA8"/>
<path d="M108.811 20.8034C110.596 21.7824 112.387 22.787 114.184 23.8171C115.981 24.8472 117.772 25.891 119.557 26.9466C120.161 27.307 120.771 27.6419 121.388 27.9512C122.004 28.2605 122.575 28.6209 123.1 29.0333C122.391 29.3937 121.689 29.7678 120.994 30.1537C120.298 30.5397 119.623 30.9393 118.967 31.3517C117.234 30.4247 115.522 29.4776 113.83 28.5114C112.138 27.5451 110.465 26.599 108.811 25.6711C107.079 26.5981 105.38 27.5451 103.714 28.5114C102.047 29.4776 100.322 30.4247 98.5378 31.3517C98.7738 31.5323 99.0294 31.6993 99.3054 31.8535C99.5805 32.0077 99.837 32.15 100.073 32.2787C101.858 33.3353 103.648 34.359 105.446 35.3508C106.499 35.932 107.55 36.5241 108.598 37.1272H100.076C98.1437 36.0378 96.2143 34.9237 94.2877 33.786C94.2877 32.9612 94.3007 32.15 94.3267 31.3517C94.3527 30.5533 94.3397 29.7805 94.2877 29.0333C96.7282 27.6419 99.1484 26.2577 101.55 24.8791C103.951 23.5005 106.372 22.1419 108.812 20.8025L108.811 20.8034Z" fill="#81CAA8"/>
<path d="M29.8335 38.9147V47.1664C27.3929 48.5579 24.9728 49.9292 22.5712 51.2814C20.1706 52.6336 17.7496 54.0058 15.309 55.3972C13.5246 54.3407 11.7336 53.2978 9.9362 52.2677C8.13876 51.2376 6.34783 50.233 4.56341 49.254C3.90726 48.8936 3.28457 48.5451 2.69347 48.2111C2.10331 47.8763 1.50572 47.5287 0.902542 47.1683V38.9165H5.15357V44.7331C6.88502 45.7121 8.59788 46.6911 10.2903 47.6701C11.9827 48.6491 13.6947 49.6026 15.427 50.5296C17.0804 49.5506 18.7533 48.5843 20.4457 47.6318C22.1382 46.6783 23.8501 45.713 25.5825 44.734V38.9174H29.8335V38.9147ZM33.2183 38.9147H37.4694V44.2294C39.2017 45.2084 40.9137 46.1747 42.6061 47.1272C44.2985 48.0807 45.9714 49.046 47.6248 50.025C49.3572 49.046 51.0496 48.0807 52.702 47.1272C54.3554 46.1737 56.0478 45.2084 57.7793 44.2294L62.0303 46.6637C59.6427 48.0551 57.2551 49.4201 54.8666 50.7595C52.479 52.0989 50.0644 53.4383 47.6239 54.7786C45.2363 53.4392 42.8487 52.087 40.4601 50.7212C38.0725 49.3562 35.658 48.0031 33.2174 46.6637V38.9147H33.2183Z" fill="#606062"/>
<path d="M111.459 38.9147C113.737 40.2249 115.994 41.5205 118.305 42.7805C119.84 43.6181 121.408 44.5004 123.008 45.4274C123.48 45.7102 123.973 46.0004 124.484 46.2969C124.996 46.5935 125.488 46.8827 125.96 47.1664C123.573 48.5059 121.191 49.858 118.816 51.2239C116.441 52.5889 114.06 53.941 111.672 55.2814C109.231 53.9419 106.83 52.5889 104.469 51.2239C102.107 49.858 99.7067 48.5059 97.2662 47.1664C97.9223 46.7029 98.6175 46.2841 99.3526 45.911C100.088 45.5369 100.809 45.1446 101.517 44.7322C103.171 45.7112 104.843 46.6774 106.536 47.6299C108.228 48.5834 109.94 49.5487 111.673 50.5277C112.617 49.9347 113.582 49.3745 114.566 48.8471C115.55 48.3188 116.514 47.7586 117.459 47.1664C117.039 46.8827 116.626 46.6318 116.219 46.4128C115.812 46.1938 115.399 45.9429 114.979 45.6592C112.015 43.9584 109.042 42.2906 106.064 40.6555C105.021 40.0825 103.978 39.5023 102.936 38.9156H111.459V38.9147Z" fill="#606062"/>
<path d="M84.0383 38.9387C81.5354 45.5016 80.2436 50.3556 80.1609 50.5837H75.4535C75.3708 50.3547 74.092 45.5007 71.6151 38.9387H66.9236L72.2917 54.8319H83.2845L88.7178 38.9387H84.0392H84.0383Z" fill="#606062"/>
<path d="M71.344 37.2034L68.1506 22.9143L62.7834 20.9417L66.6618 37.2034H71.344Z" fill="#81CAA8"/>
<path d="M84.4372 37.2034L87.6305 22.9143L92.9978 20.9417L89.1194 37.2034H84.4372Z" fill="#81CAA8"/>
<path d="M0.670212 7.68882H4.43517V7.00634H1.44625V3.96986H3.91378V3.28739H1.44625V0.785579H4.43517V0.103102H0.670212V7.68882H0.670212ZM11.1435 1.71714C10.9465 0.761856 10.4139 0 9.32468 0C8.22429 0 7.5291 0.909666 7.5291 1.93338C7.5291 3.04834 8.12019 3.41239 9.01241 3.92424C9.81168 4.37953 10.4715 4.72077 10.4715 5.72168C10.4715 6.63134 9.99663 7.07568 9.32468 7.07568C8.386 7.07568 8.20105 6.43883 8.09603 5.59668L7.31999 5.69887C7.43616 6.90415 7.93432 7.79192 9.30145 7.79192C10.5989 7.79192 11.2476 6.84758 11.2476 5.65325C11.2476 4.48172 10.5989 4.01548 9.64904 3.45801C8.43247 2.74177 8.30514 2.54743 8.30514 1.93429C8.30514 1.29744 8.59511 0.717149 9.32468 0.717149C9.98455 0.717149 10.2634 1.27463 10.3907 1.8321L11.1435 1.71805V1.71714ZM15.8592 7.68882H16.6353V0.785579H18.2691V0.103102H14.191V0.785579H15.8592V7.68882ZM24.2358 5.34577L24.838 7.83663L25.6029 7.63225L23.6447 0.103102H22.7181L20.7608 7.63225L21.5248 7.83663L22.127 5.34577H24.2358ZM24.0509 4.66329H22.3129L23.1698 1.11496H23.193L24.0499 4.66329H24.0509ZM29.3103 0.785579H30.2601C31.0473 0.785579 31.5343 1.12682 31.5343 2.11586C31.5343 3.13958 31.117 3.62863 30.445 3.62863H29.3093V0.785579H29.3103ZM28.5342 7.68882H29.3103V4.3111H30.1792L31.9172 7.83754L32.6124 7.50725L31.0138 4.25453C31.9637 3.93611 32.3466 3.04834 32.3466 2.11586C32.3466 0.750908 31.3847 0.103102 30.6198 0.103102H28.5342V7.68882ZM36.7138 7.68882H37.4898V0.785579H39.1237V0.103102H35.0455V0.785579H36.7138V7.68882ZM45.0904 5.34577L45.6926 7.83663L46.4575 7.63225L44.4993 0.103102H43.5727L41.6154 7.63225L42.3793 7.83663L42.9816 5.34577H45.0904ZM44.9054 4.66329H43.1675L44.0243 1.11496H44.0476L44.9045 4.66329H44.9054ZM48.9715 7.68882H49.7475V3.03739L49.7131 1.32025L49.7364 1.29744L52.0301 7.68973H53.0032V0.104014H52.2271V4.7673L52.2615 6.46255L52.2383 6.48536L49.9436 0.104926H48.9706V7.69064L48.9715 7.68882ZM56.4679 0.785579V7.00634H55.8425V7.68882H57.9048C60.2561 7.68882 60.3491 5.57387 60.3491 3.90143C60.3491 0.773718 59.4336 0.103102 57.8815 0.103102H55.8425V0.785579H56.4679ZM57.244 0.785579H58.0665C58.7505 0.785579 59.5377 1.01277 59.5377 3.90143C59.5377 6.76729 58.8193 7.00634 57.8806 7.00634H57.244V0.785579ZM64.8901 0.000912403C62.8277 0.000912403 62.7469 2.63958 62.7469 3.89049C62.7469 4.86858 62.6893 7.79192 64.8901 7.79192C67.0686 7.79192 67.0332 4.84577 67.0332 3.89049C67.0332 2.88958 67.0686 0.000912403 64.8901 0.000912403ZM64.8901 0.717149C66.2572 0.717149 66.2219 2.4571 66.2219 3.89049C66.2219 5.20982 66.234 7.07568 64.8901 7.07568C63.8008 7.07568 63.5573 5.93792 63.5573 3.89049C63.5573 2.77553 63.5229 0.717149 64.8901 0.717149Z" fill="white"/>
</svg>
