<svg width="48" height="68" viewBox="0 0 92 132" fill="none" xmlns="http://www.w3.org/2000/svg">
<path d="M45.6027 43.3594L16.5845 58.951V75.7419H24.9675V63.7484L45.6027 52.6899L57.0027 58.951L37.2427 70.045L45.3263 74.5425L74.6208 58.951L45.6027 43.3594Z" fill="#606062"/>
<path d="M24.9675 81.78H16.5845V97.6715L45.6027 113.614L74.6208 97.6969L66.3299 92.5742L45.6027 103.734L24.9675 92.5742V81.78Z" fill="#606062"/>
<path d="M8.29091 75.7422H0V49.1227L45.8764 24.1497L82.9091 44.183V4.39085L91.2 0V75.7422H82.6327V53.5135L45.8764 33.4803L8.29091 54.0624V75.7422Z" fill="#81CAA8"/>
<path d="M8.29091 81.78H0V107.302L45.8764 132L91.2 107.302V81.78H82.9091V102.637L45.3236 122.67L8.29091 102.362V81.78Z" fill="#81CAA8"/>
</svg>
