<svg fill="none" xmlns="http://www.w3.org/2000/svg" viewBox="0 0 1628 1168">
  <path d="M1427.53 1066.3c86.41-65.81 127.68-176.409 101.84-281.912-.64-2.622-1.32-5.237-2.03-7.846-17.13-62.626-59.51-122.146-121.27-142.156-51.86-16.802-108.47-3.882-162.58-10.563-106.21-13.116-188.55-99.052-246.485-189.028-57.938-89.976-102.466-190.691-179.453-265.024-126.9-122.526-333.908-148.906-491.246-69.151C168.967 180.376 68.744 357.319 73.018 533.666c4.275 176.347 108.964 344.946 260.998 434.399 55.852 32.865 120.449 56.145 184.737 47.995 55.781-7.07 106.465-37.041 161.984-45.939 87.289-13.991 174.021 25.475 249.519 71.469 75.494 45.99 148.424 100.5 234.214 121.82 83.31 20.7 186.51-38.8 263.06-97.11Z" fill="#F2F2F2"/>
  <path d="M0 731.588a486.825 486.825 0 0 0 47.37 48.768l1230.7 1.684a486.037 486.037 0 0 0 47.37-48.768L0 731.588ZM802.58 575.429v144.373a6.947 6.947 0 0 0 6.939 6.939h213.941a6.939 6.939 0 0 0 6.94-6.939V575.429c0-1.838-.73-3.6-2.03-4.899a6.963 6.963 0 0 0-4.91-2.032H809.519a6.946 6.946 0 0 0-6.939 6.931Z" fill="#3F3D56"/>
  <path d="M807.598 577.226v140.796a3.711 3.711 0 0 0 3.708 3.708h210.374a3.695 3.695 0 0 0 2.62-1.088 3.688 3.688 0 0 0 1.09-2.62V577.226c0-.984-.39-1.928-1.08-2.625a3.73 3.73 0 0 0-2.63-1.091H811.306a3.713 3.713 0 0 0-3.708 3.716Z" fill="#6D6D6D"/>
  <path d="M798.104 747.959a4.16 4.16 0 0 0 3.274 1.566h229.082a4.185 4.185 0 0 0 1.81-.411c.57-.27 1.07-.662 1.46-1.149.4-.487.68-1.055.83-1.664.14-.609.15-1.243.02-1.856l-3.55-16.892a4.335 4.335 0 0 0-.92-1.864 4.248 4.248 0 0 0-1.71-1.198 4.025 4.025 0 0 0-1.49-.282H804.92a4.076 4.076 0 0 0-1.496.282 4.23 4.23 0 0 0-2.625 3.062l-3.556 16.892a4.219 4.219 0 0 0 .861 3.514Z" fill="#2F2E41"/>
  <path d="M1019.05 731.486h5.41c.46 0 .82-.368.82-.822v-2.589a.816.816 0 0 0-.82-.822h-5.41c-.45 0-.82.368-.82.822v2.589c0 .454.37.822.82.822ZM1004.94 731.486h5.41c.45 0 .82-.368.82-.822v-2.589a.823.823 0 0 0-.82-.822h-5.41c-.46 0-.82.368-.82.822v2.589c0 .454.36.822.82.822ZM990.825 731.486h5.411a.823.823 0 0 0 .823-.822v-2.589a.823.823 0 0 0-.823-.822h-5.411a.822.822 0 0 0-.822.822v2.589c0 .454.368.822.822.822ZM976.714 731.486h5.411a.822.822 0 0 0 .822-.822v-2.589a.822.822 0 0 0-.822-.822h-5.411a.822.822 0 0 0-.822.822v2.589c0 .454.368.822.822.822ZM962.603 731.486h5.411a.822.822 0 0 0 .822-.822v-2.589a.822.822 0 0 0-.822-.822h-5.411a.822.822 0 0 0-.823.822v2.589c0 .454.368.822.823.822ZM948.491 731.486h5.411a.823.823 0 0 0 .823-.822v-2.589a.823.823 0 0 0-.823-.822h-5.411a.822.822 0 0 0-.822.822v2.589c0 .454.368.822.822.822ZM934.38 731.486h5.411a.822.822 0 0 0 .822-.822v-2.589a.822.822 0 0 0-.822-.822h-5.411a.822.822 0 0 0-.822.822v2.589c0 .454.368.822.822.822ZM920.269 731.486h5.411a.822.822 0 0 0 .822-.822v-2.589a.822.822 0 0 0-.822-.822h-5.411a.822.822 0 0 0-.823.822v2.589c0 .454.368.822.823.822ZM906.157 731.486h5.411a.823.823 0 0 0 .823-.822v-2.589a.823.823 0 0 0-.823-.822h-5.411a.822.822 0 0 0-.822.822v2.589c0 .454.368.822.822.822ZM892.046 731.486h5.411a.822.822 0 0 0 .822-.822v-2.589a.822.822 0 0 0-.822-.822h-5.411a.823.823 0 0 0-.823.822v2.589c0 .454.369.822.823.822ZM877.935 731.486h5.411a.822.822 0 0 0 .822-.822v-2.589a.822.822 0 0 0-.822-.822h-5.411a.822.822 0 0 0-.823.822v2.589c0 .454.368.822.823.822ZM863.823 731.486h5.411a.823.823 0 0 0 .823-.822v-2.589a.823.823 0 0 0-.823-.822h-5.411a.822.822 0 0 0-.822.822v2.589c0 .454.368.822.822.822ZM849.712 731.486h5.411a.822.822 0 0 0 .822-.822v-2.589a.822.822 0 0 0-.822-.822h-5.411a.822.822 0 0 0-.822.822v2.589c0 .454.368.822.822.822ZM835.599 731.486h5.411a.822.822 0 0 0 .822-.822v-2.589a.822.822 0 0 0-.822-.822h-5.411a.822.822 0 0 0-.823.822v2.589c0 .454.368.822.823.822ZM821.487 731.486h5.411a.822.822 0 0 0 .823-.822v-2.589a.822.822 0 0 0-.823-.822h-5.411a.822.822 0 0 0-.822.822v2.589c0 .454.368.822.822.822ZM807.374 731.486h5.411a.822.822 0 0 0 .822-.822v-2.589a.822.822 0 0 0-.822-.822h-5.411a.822.822 0 0 0-.822.822v2.589c0 .454.368.822.822.822ZM1019.21 738.541h5.41c.46 0 .83-.368.83-.822v-2.589a.825.825 0 0 0-.83-.822h-5.41c-.45 0-.82.368-.82.822v2.589c0 .454.37.822.82.822ZM1005.1 738.541h5.41c.46 0 .83-.368.83-.822v-2.589a.825.825 0 0 0-.83-.822h-5.41c-.45 0-.82.368-.82.822v2.589c0 .454.37.822.82.822ZM990.991 738.541h5.411a.823.823 0 0 0 .823-.822v-2.589a.823.823 0 0 0-.823-.822h-5.411a.822.822 0 0 0-.822.822v2.589c0 .454.368.822.822.822ZM976.88 738.541h5.411a.822.822 0 0 0 .822-.822v-2.589a.822.822 0 0 0-.822-.822h-5.411a.822.822 0 0 0-.822.822v2.589c0 .454.368.822.822.822ZM962.769 738.541h5.411a.822.822 0 0 0 .822-.822v-2.589a.822.822 0 0 0-.822-.822h-5.411a.822.822 0 0 0-.823.822v2.589c0 .454.368.822.823.822ZM948.655 738.541h5.411a.822.822 0 0 0 .823-.822v-2.589a.822.822 0 0 0-.823-.822h-5.411a.822.822 0 0 0-.822.822v2.589c0 .454.368.822.822.822ZM934.544 738.541h5.411a.822.822 0 0 0 .822-.822v-2.589a.822.822 0 0 0-.822-.822h-5.411a.822.822 0 0 0-.822.822v2.589c0 .454.368.822.822.822ZM920.435 738.541h5.411a.822.822 0 0 0 .822-.822v-2.589a.822.822 0 0 0-.822-.822h-5.411a.822.822 0 0 0-.823.822v2.589c0 .454.368.822.823.822ZM906.323 738.541h5.411a.823.823 0 0 0 .823-.822v-2.589a.823.823 0 0 0-.823-.822h-5.411a.822.822 0 0 0-.822.822v2.589c0 .454.368.822.822.822ZM892.21 738.541h5.411a.822.822 0 0 0 .822-.822v-2.589a.822.822 0 0 0-.822-.822h-5.411a.822.822 0 0 0-.822.822v2.589c0 .454.368.822.822.822ZM878.099 738.541h5.411a.822.822 0 0 0 .822-.822v-2.589a.822.822 0 0 0-.822-.822h-5.411a.823.823 0 0 0-.823.822v2.589c0 .454.369.822.823.822ZM863.987 738.541h5.411a.823.823 0 0 0 .823-.822v-2.589a.823.823 0 0 0-.823-.822h-5.411a.822.822 0 0 0-.822.822v2.589c0 .454.368.822.822.822ZM849.876 738.541h5.411a.822.822 0 0 0 .822-.822v-2.589a.822.822 0 0 0-.822-.822h-5.411a.822.822 0 0 0-.822.822v2.589c0 .454.368.822.822.822ZM835.765 738.541h5.411a.822.822 0 0 0 .822-.822v-2.589a.822.822 0 0 0-.822-.822h-5.411a.822.822 0 0 0-.823.822v2.589c0 .454.368.822.823.822ZM821.653 738.541h5.411a.822.822 0 0 0 .823-.822v-2.589a.822.822 0 0 0-.823-.822h-5.411a.822.822 0 0 0-.822.822v2.589c0 .454.368.822.822.822ZM807.542 738.541h5.411a.822.822 0 0 0 .822-.822v-2.589a.822.822 0 0 0-.822-.822h-5.411a.822.822 0 0 0-.822.822v2.589c0 .454.368.822.822.822ZM902.089 747.008h54.802a.822.822 0 0 0 .822-.823v-2.588a.823.823 0 0 0-.822-.823h-54.802a.823.823 0 0 0-.822.823v2.588c0 .455.368.823.822.823Z" fill="#3F3D56"/>
  <path d="M844.028 604.312h-4.791a2.63 2.63 0 0 0 0 5.26h4.791a2.63 2.63 0 0 0 0-5.26ZM898.817 604.312h-4.791a2.63 2.63 0 0 0 0 5.26h4.791a2.63 2.63 0 0 0 0-5.26ZM914.338 604.312h-4.79a2.63 2.63 0 0 0 0 5.26h4.79a2.63 2.63 0 0 0 0-5.26ZM883.914 603.873h-29.773a2.63 2.63 0 0 0 0 5.26h29.773a2.63 2.63 0 0 0 0-5.26ZM956.963 603.873H927.19a2.63 2.63 0 0 0 0 5.26h29.773a2.63 2.63 0 0 0 0-5.26ZM858.641 616.182h-4.791a2.629 2.629 0 1 0 0 5.259h4.791a2.63 2.63 0 0 0 0-5.259ZM913.426 616.182h-4.79a2.63 2.63 0 1 0 0 5.259h4.79a2.63 2.63 0 0 0 0-5.259ZM928.947 616.182h-4.79a2.63 2.63 0 1 0 0 5.259h4.79a2.63 2.63 0 1 0 0-5.259ZM898.524 615.744h-29.773a2.63 2.63 0 0 0 0 5.26h29.773a2.63 2.63 0 0 0 0-5.26ZM971.572 615.744H941.8a2.63 2.63 0 0 0 0 5.26h29.772a2.63 2.63 0 0 0 0-5.26ZM873.248 628.053h-4.79a2.63 2.63 0 1 0 0 5.259h4.79a2.63 2.63 0 0 0 0-5.259ZM928.037 628.053h-4.79a2.63 2.63 0 1 0 0 5.259h4.79a2.63 2.63 0 1 0 0-5.259ZM943.559 628.053h-4.791a2.629 2.629 0 1 0 0 5.259h4.791a2.63 2.63 0 0 0 0-5.259ZM913.131 627.615h-29.773a2.63 2.63 0 0 0 0 5.26h29.773a2.63 2.63 0 0 0 0-5.26ZM986.182 627.615h-29.773a2.63 2.63 0 0 0 0 5.26h29.773a2.63 2.63 0 0 0 0-5.26ZM887.86 639.924h-4.791a2.63 2.63 0 0 0 0 5.259h4.791a2.629 2.629 0 1 0 0-5.259ZM942.647 639.924h-4.791a2.63 2.63 0 0 0 0 5.259h4.791a2.629 2.629 0 1 0 0-5.259ZM958.168 639.924h-4.79a2.63 2.63 0 1 0 0 5.259h4.79a2.63 2.63 0 1 0 0-5.259ZM927.742 639.486h-29.773a2.63 2.63 0 0 0 0 5.26h29.773a2.63 2.63 0 0 0 0-5.26ZM898.817 687.127h-4.791a2.63 2.63 0 0 0 0 5.259h4.791a2.629 2.629 0 1 0 0-5.259ZM914.338 687.127h-4.79a2.63 2.63 0 1 0 0 5.259h4.79a2.63 2.63 0 1 0 0-5.259ZM956.963 687.564H927.19a2.63 2.63 0 0 0 0 5.26h29.773a2.63 2.63 0 0 0 0-5.26ZM844.028 687.127h-4.791a2.63 2.63 0 0 0 0 5.259h4.791a2.629 2.629 0 1 0 0-5.259ZM883.914 687.564h-29.773a2.63 2.63 0 0 0 0 5.26h29.773a2.63 2.63 0 1 0 0-5.26ZM858.641 675.256h-4.791a2.63 2.63 0 0 0 0 5.259h4.791a2.63 2.63 0 1 0 0-5.259ZM913.426 675.256h-4.79a2.63 2.63 0 1 0 0 5.259h4.79a2.63 2.63 0 1 0 0-5.259ZM928.947 675.256h-4.79a2.63 2.63 0 0 0 0 5.259h4.79a2.63 2.63 0 1 0 0-5.259ZM898.524 675.695h-29.773a2.63 2.63 0 0 0 0 5.26h29.773a2.63 2.63 0 0 0 0-5.26ZM873.248 663.387h-4.79a2.63 2.63 0 1 0 0 5.259h4.79a2.63 2.63 0 0 0 0-5.259ZM928.037 663.387h-4.79a2.63 2.63 0 1 0 0 5.259h4.79a2.63 2.63 0 1 0 0-5.259ZM943.559 663.387h-4.791a2.629 2.629 0 1 0 0 5.259h4.791a2.63 2.63 0 0 0 0-5.259ZM913.131 663.822h-29.773a2.63 2.63 0 0 0 0 5.26h29.773a2.63 2.63 0 0 0 0-5.26ZM887.86 651.516h-4.791a2.63 2.63 0 1 0 0 5.259h4.791a2.63 2.63 0 0 0 0-5.259ZM942.647 651.516h-4.791a2.629 2.629 0 1 0 0 5.259h4.791a2.63 2.63 0 0 0 0-5.259ZM958.168 651.516h-4.79a2.63 2.63 0 1 0 0 5.259h4.79a2.63 2.63 0 1 0 0-5.259ZM927.742 651.953h-29.773a2.63 2.63 0 0 0 0 5.26h29.773a2.63 2.63 0 0 0 0-5.26Z" fill="#fff"/>
  <path d="m802.564 826.244-22.488-35.547 70.586-56.269 29.135-32.278a32.285 32.285 0 0 1 30.614-9.957 32.272 32.272 0 0 1 23.996 21.459 32.278 32.278 0 0 1-19.49 40.415l-46.071 16.972-66.282 55.205Z" fill="#FFB6B6"/>
  <path d="M322.911 568.507v172.768h121.035V568.507a5.808 5.808 0 0 0-4.093-5.559 5.356 5.356 0 0 0-1.735-.27H328.756a5.85 5.85 0 0 0-2.235.44 5.849 5.849 0 0 0-3.163 3.155 5.826 5.826 0 0 0-.447 2.234Zm47.235 59.363a12.922 12.922 0 0 1 25.841 0v20.047a12.92 12.92 0 0 1-12.921 12.854 12.922 12.922 0 0 1-12.92-12.854V627.87Z" fill="#2F2E41"/>
  <path d="M322.543 735.75v16.66a3.274 3.274 0 0 0 3.251 3.268h115.274a3.271 3.271 0 0 0 3.251-3.268v-16.66H322.543ZM132.507 308.208v315.45a15.17 15.17 0 0 0 15.161 15.161h467.464a15.17 15.17 0 0 0 15.161-15.161v-315.45a15.178 15.178 0 0 0-15.161-15.144H147.668a15.178 15.178 0 0 0-15.161 15.144Z" fill="#3F3D56"/>
  <path d="M143.473 312.133v307.633a8.114 8.114 0 0 0 8.102 8.103H611.24a8.122 8.122 0 0 0 5.726-2.377 8.122 8.122 0 0 0 2.377-5.726V312.133a8.114 8.114 0 0 0-2.373-5.735 8.117 8.117 0 0 0-5.73-2.385H151.575a8.119 8.119 0 0 0-8.102 8.12Z" fill="#fff"/>
  <path d="M228.78 754.549a4.982 4.982 0 0 0 3.908 1.87h273.471a5.034 5.034 0 0 0 4.919-6.065l-4.245-20.164a5.044 5.044 0 0 0-3.134-3.655 4.845 4.845 0 0 0-1.785-.337H236.916a4.849 4.849 0 0 0-1.785.337 5.044 5.044 0 0 0-3.134 3.655l-4.245 20.164a5.024 5.024 0 0 0 1.028 4.195Z" fill="#2F2E41"/>
  <path d="M596.323 346.393H166.217a1.714 1.714 0 0 1-1.673-1.711 1.71 1.71 0 0 1 1.673-1.71h430.106a1.713 1.713 0 0 1 0 3.421ZM195.496 334.237c5.536 0 10.023-4.588 10.023-10.247s-4.487-10.247-10.023-10.247-10.024 4.588-10.024 10.247 4.488 10.247 10.024 10.247ZM230.121 334.237c5.536 0 10.024-4.588 10.024-10.247s-4.488-10.247-10.024-10.247c-5.536 0-10.024 4.588-10.024 10.247s4.488 10.247 10.024 10.247ZM264.75 334.237c5.536 0 10.023-4.588 10.023-10.247s-4.487-10.247-10.023-10.247-10.024 4.588-10.024 10.247 4.488 10.247 10.024 10.247ZM575.473 316.275h-24.594a1.867 1.867 0 0 0-1.819 1.862 1.861 1.861 0 0 0 1.819 1.861h24.594a1.864 1.864 0 0 0 1.836-1.861 1.863 1.863 0 0 0-1.836-1.862ZM575.471 323.267h-24.595a1.859 1.859 0 0 0-1.289 3.163c.34.348.803.549 1.289.56h24.595a1.86 1.86 0 0 0 1.839-1.862 1.86 1.86 0 0 0-1.839-1.861ZM575.473 330.258h-24.594a1.861 1.861 0 0 0 0 3.723h24.594a1.86 1.86 0 0 0 0-3.723Z" fill="#3F3D56"/>
  <path d="M1168.4 743.062a10.802 10.802 0 0 0 10.42 7.296l44.62-1.148c2.31-.045 4.53-.834 6.35-2.248a10.703 10.703 0 0 0 3.73-5.597l6.31-67.53a16.49 16.49 0 0 0 7.14 1.467 16.261 16.261 0 0 0 14.78-10.421c.77-1.994 1.14-4.12 1.08-6.257a16.146 16.146 0 0 0-1.39-6.195 16.297 16.297 0 0 0-3.66-5.19 16.24 16.24 0 0 0-5.37-3.394 16.26 16.26 0 0 0-6.25-1.083 13.75 13.75 0 0 0-2.93.305 10.919 10.919 0 0 0-3.73-2.641c-1.41-.61-2.94-.917-4.48-.902l-68.65 1.773c-.56.021-1.13.091-1.69.21-1.5.281-2.93.88-4.19 1.759-1.25.879-2.3 2.016-3.08 3.335a10.82 10.82 0 0 0-1.43 4.313c-.16 1.522.01 3.062.49 4.515l11.93 87.633Zm72.73-73.812 4.49-16.092c.51-1.859.53-3.82.04-5.684.22-.001.41-.104.63-.105a11.61 11.61 0 0 1 8.28 3.228 11.618 11.618 0 0 1 3.59 8.138 11.624 11.624 0 0 1-3.2 8.298 11.66 11.66 0 0 1-8.13 3.612 10.96 10.96 0 0 1-5.7-1.395Z" fill="#2F2E41"/>
  <path d="M1164.68 641.506c1.46 8.362 17.9 14.241 37.68 13.219 18.18-.838 33.04-7.222 35.77-14.788a10.173 10.173 0 0 0-3.11-.414l-68.65 1.773c-.57.021-1.13.091-1.69.21ZM441.719 634.821l.365 1.153.019.038 10.992 33.418 12.645 38.511 23.79 72.37.231 11.242v.039l1.768 90.434-4.901 12.261 5.516 20.1s-2.537-30.384-16.142-12.935c-7.706 9.916-16.719 20.062-24.118 29.575a451.692 451.692 0 0 0 32.861 11.837c2.402.769 4.824 1.499 7.245 2.23l1.557.461a449.591 449.591 0 0 0 113.456 18.237c1.998.057 3.959.095 5.861.134.673.019 1.326.038 1.979.038 2.153.02 4.286.039 6.438.039 4.343 0 8.667-.064 12.971-.192a449.51 449.51 0 0 0 94.49-12.78c-.212-12.779-.788-27.71-1.615-43.66-.384-7.821-9.012-16.296-9.531-24.482-.365-6.15 7.379-11.934 6.976-18.18-2.614-38.453-5.881-23.692-8.302-50.922-.25-2.671-.481-5.227-.692-7.667-1.557-17.488-2.633-28.422-2.633-28.422l10.339-65.164 16.238-102.311-1.249-2.056-1.403-.692-85.649-42.392-4.651-11.915a18.494 18.494 0 0 0-17.083-11.703l-56.421-.23a18.412 18.412 0 0 0-15.009 7.629l-15.277 21.157-101.061 64.8Z" fill="#3F3D56"/>
  <path d="m550.54 764.203-12.78 27.346-8.724 18.678-15.008 78.578-7.514 7.975-6.438-28.232-67.378 14.961c-2.21-12.28-.592.415-1.956-13.056a69.31 69.31 0 0 1 1.191-1.153c1.076-.999 1.98-1.941 1.96-2.844-.768-46.466 1.538-125.544 20.793-173.451a101.222 101.222 0 0 1 11.837-22.081c.385-.518.75-1.037 1.115-1.556 8.878-12.433 14.49-24.674 22.445-33.38v-.019a.9.9 0 0 0 .135-.134.274.274 0 0 0 .077-.058l54.652-28.979 2.345 65.875 1.672 47.351 1.576 44.179ZM699.607 771.971l15.963 34.155 5.572 11.894 15.004 78.571 7.489 7.955 6.452-28.225 3.032-.622 54.678-11.324 15.937 50.614a30.293 30.293 0 0 0-5.493-37.911c-1.089-.985-1.996-1.944-1.97-2.851.907-54.652-2.436-154.446-32.625-195.519-9.588-13.035-15.341-26.018-23.711-35.088-.026-.025-.026-.051-.052-.051l-20.368-33.351-1.244-2.048-1.4-.699-37.264 164.5Z" fill="#3F3D56"/>
  <path d="M602.907 525.174c41.455 0 75.06-33.605 75.06-75.06 0-41.455-33.605-75.061-75.06-75.061-41.455 0-75.061 33.606-75.061 75.061 0 41.455 33.606 75.06 75.061 75.06Z" fill="#FFB6B6"/>
  <path d="M704.36 397.685a6.336 6.336 0 0 0-4.531-2.004l1.128-3.134a5.933 5.933 0 0 0-1.023-5.907 5.94 5.94 0 0 0-5.647-2.01l-4.111.792.388-2.746a5.948 5.948 0 0 0-4.934-6.732 5.949 5.949 0 0 0-3.034.297 6.343 6.343 0 0 1-5.458-.388 6.473 6.473 0 0 1-3.235-4.396l-1.431-6.907-.152-.371c-6.974-11.623-20.383-20.08-36.791-23.179-14.605-2.78-29.581-1.365-44.017-.034-5.728.539-12.196 1.146-17.587 4.447-4.582 2.83-8.456 8.491-7.665 14.201-14.234-4.363-29.496 4.346-37.06 15.33-8.962 13.072-10.427 29.446-10.663 42.248-.64 30.289 5.609 55.068 18.53 73.666.943 1.348 1.179 4.161 3.049 5.104l-.387-.623c2.088 1.044 4.211 2.729 3.419 4.531-2.274 5.189 12.836 16.661 23.483 20.451 19.423 6.923 45.247 6.334 63.407 3.841l.64-4.296c6.553-.893 11.168-2.594 12.465-5.256a149.273 149.273 0 0 0 5.947-5.323l.017-.017c.033-.034.101-.084.134-.118 8.204-7.867 10.108-12.348 10.967-19.17.825-6.688-.64-13.476-2.139-19.591 31.568 4.885-12.433-33.624 16.98-41.07.337-.104.68-.188 1.027-.252.859-.203 1.719-.405 2.544-.641a44.56 44.56 0 0 0 11.32-4.834c8.221-5.003 10.933-11.641 15.178-19.12a5.766 5.766 0 0 0-.758-6.789ZM868.384 777.319c-.016 2.948-.05 7.075-.185 12.179-.017.707-.034 1.432-.05 2.173-.219 9.383-.438 17.25-.792 25.993a63.81 63.81 0 0 1-.068 1.802c-.471 12.196-1.212 26.397-2.493 48.886-2.375 41.541-6.519 5.711-10.68 20.282a35.315 35.315 0 0 0-.623 2.594 47.004 47.004 0 0 1-3.167 10.663c-2.207 1.314-4.481 2.578-6.721 3.841a473.947 473.947 0 0 1-19.406 10.226 481.51 481.51 0 0 1-11.068 5.323c-.589.269-1.162.539-1.735.791a456.259 456.259 0 0 1-58.538 22.338c-3.908 1.179-7.8 2.324-11.742 3.386a382.957 382.957 0 0 1-12.381 3.234 449.613 449.613 0 0 1-94.487 12.786c-4.295.134-8.625.185-12.971.185-2.156 0-4.279-.017-6.435-.034-.657 0-1.314-.017-1.971-.033-1.903-.051-3.874-.085-5.862-.135a449.22 449.22 0 0 1-113.455-18.244l-1.567-.455c-2.425-.741-4.834-1.465-7.243-2.24a450.707 450.707 0 0 1-32.866-11.826 456.037 456.037 0 0 1-24.426-10.68.573.573 0 0 1-.202-.101 225.903 225.903 0 0 1-5.07-2.409 25.919 25.919 0 0 0-.691-.354 455.11 455.11 0 0 1-18.648-9.635c-5.172-11.876-12.449-14.151-16.964-24.595a43.608 43.608 0 0 1-2.83-9.669c0-.034-.017-.067-.017-.118.472 6.267-2.004-11.118-.016-.067a41.071 41.071 0 0 1-.051-.674 85.225 85.225 0 0 0-.219-2.274c-5.778-56.416-5.407-120.935-7.917-174.099-.169-3.437-.343-6.727-.522-9.872a167.092 167.092 0 0 0-.186-3.082c.118-.304.253-.624.404-.927.033-.087.072-.172.118-.253.05-.104.106-.205.169-.303l.118-.168c.024-.058.052-.114.084-.169.152-.236.32-.488.505-.724.085-.101.152-.185.236-.27.058-.086.126-.165.202-.235.052-.081.114-.155.186-.219.067-.068.134-.152.219-.236a.506.506 0 0 1 .134-.135c.134-.153.28-.294.438-.421a16.141 16.141 0 0 1 1.921-1.516c.235-.152.488-.303.724-.472a32.215 32.215 0 0 1 5.34-2.56c.64-.236 1.28-.455 1.971-.691.253-.067.489-.152.741-.236.371-.118.741-.236 1.129-.32 1.92-.573 3.992-1.061 6.233-1.516.269-.051.556-.101.842-.169.404-.084.826-.151 1.247-.219.572-.101 1.162-.202 1.752-.303 5.003-.791 10.68-1.381 16.946-1.768l1.769-.102 2.089-.101c.589-.033 1.196-.05 1.802-.067.59-.034 1.196-.051 1.82-.067a453.53 453.53 0 0 1 5.239-.135c5.087-.101 10.444-.068 16.07.05 2.611.068 5.273.135 8.002.253.185 0 .354.017.522.017 2.375.084 4.767.185 7.227.32 1.718.084 3.453.168 5.188.27 1.634.101 3.285.202 4.953.32 1.297.067 2.594.168 3.908.252 1.112.084 2.224.169 3.335.236l1.516.101c.826.068 1.651.118 2.494.202 1.853.152 3.706.304 5.592.455 1.87.169 3.774.337 5.677.505 1.904.169 3.824.354 5.745.54.202.016.387.033.572.05 1.752.185 3.504.354 5.273.539.404.034.825.068 1.23.118 1.686.169 3.405.368 5.107.549l1.566.168c1.333.145 2.647.271 3.99.429 1.769.202 3.571.387 5.323.623 1.365.151 2.729.303 4.094.472 2.139.252 4.312.522 6.485.808.825.101 1.651.202 2.476.32 6.2.775 12.466 1.634 18.834 2.527a1463.918 1463.918 0 0 1 29.328 4.447 1935.583 1935.583 0 0 1 29.833 5.071c2.527.455 5.054.909 7.598 1.381l3.436.657c1.954.354 3.908.724 5.862 1.095 1.954.371 3.909.741 5.863 1.129 2.324.454 4.666.909 6.99 1.364a1628.742 1628.742 0 0 1 45.399 9.653c2.443.555 4.886 1.128 7.311 1.684 4.852 1.129 9.658 2.274 14.42 3.437 1.314.303 2.611.623 3.908.943 3.235.809 6.469 1.617 9.653 2.443l.556.151c2.341.573 4.632 1.163 6.923 1.769a1142.465 1142.465 0 0 1 15.953 4.296c3.47.96 6.901 1.931 10.293 2.914a804.182 804.182 0 0 1 14.874 4.447c1.196.371 2.392.741 3.571 1.095a638.159 638.159 0 0 1 10.411 3.319c2.695.876 5.323 1.768 7.917 2.661 2.595.893 5.138 1.786 7.631 2.679 1.601.572 3.184 1.179 4.768 1.752 2.274.842 4.514 1.684 6.704 2.526.674.253 1.331.523 1.988.775.421.186.825.337 1.23.506.791.32 1.6.623 2.375.943.792.303 1.567.623 2.341.96.758.303 1.533.623 2.275.944.758.303 1.499.623 2.24.96.623.252 1.23.522 1.819.792 1.196.522 2.393 1.044 3.555 1.583.573.27 1.145.522 1.718.792l1.314.606c.185.101.371.186.556.27.421.202.859.421 1.28.623.977.455 1.937.943 2.881 1.398 1.263.64 2.493 1.28 3.672 1.904 1.196.64 2.358 1.28 3.47 1.903.186.101.354.202.539.304.253.134.506.286.758.421.86.488 1.685.994 2.51 1.482a114.56 114.56 0 0 1 4.582 2.948c.32.219.624.438.944.64a66.851 66.851 0 0 1 3.015 2.257c0 .017 0 .017.017.017.32.236.623.489.926.725.253.235.523.438.775.673a45.866 45.866 0 0 1 2.426 2.224c.249.229.485.471.708.724.098.082.188.172.269.27.337.337.64.674.927 1.011a.958.958 0 0 1 .118.151c.404.472.775.944 1.128 1.415.169.236.354.472.506.708.202.286.404.589.572.876.152.236.287.488.421.724.358.607.662 1.244.91 1.904.19.447.342.909.455 1.381.128.447.223.904.286 1.365Z" fill="#2F2E41"/>
  <path opacity=".2" d="M868.386 777.317a576.792 576.792 0 0 1-.185 12.18c-.017.707-.051 1.432-.068 2.173-.168 7.159-.421 16.003-.775 25.992-.017.607-.033 1.196-.067 1.803-.472 12.196-1.213 26.397-2.493 48.886-2.376 41.541-6.52 5.71-10.68 20.282-11.556-7.109-24.224-14.555-37.768-22.203a2002.148 2002.148 0 0 0-7.395-4.16c-27.088-15.111-57.343-30.946-88.928-46.629a383.67 383.67 0 0 0-3.757-1.853c-72.351-35.763-151.323-70.549-215.303-93.762-12.347-4.481-24.139-8.524-35.224-12.079-23.348-7.462-43.529-12.684-59.06-14.942-16.172-2.358-27.34-1.516-31.855 3.353-.169-3.437-.343-6.727-.522-9.872l-.202-3.083c.103-.277.239-.542.369-.809.019-.038.032-.079.052-.117.032-.087.071-.172.118-.253.049-.104.106-.206.168-.303.055-.119.123-.232.202-.337.152-.236.32-.489.506-.724.136-.177.282-.346.438-.506.051-.081.114-.154.185-.219.067-.067.135-.151.219-.236a.506.506 0 0 1 .135-.134c.133-.153.279-.294.438-.421a16.324 16.324 0 0 1 1.92-1.517c.236-.151.488-.303.724-.471a32.258 32.258 0 0 1 5.34-2.561 84.82 84.82 0 0 1 1.971-.69c.253-.068.489-.152.741-.236.371-.118.742-.236 1.129-.32 1.921-.573 3.993-1.062 6.233-1.516.674-.135 1.381-.27 2.089-.388a363.72 363.72 0 0 1 1.752-.303c5.003-.792 10.68-1.381 16.946-1.769l1.769-.101 2.089-.101a58.28 58.28 0 0 1 1.803-.067 60.483 60.483 0 0 1 1.819-.068c1.701-.05 3.453-.101 5.239-.135 5.087-.084 10.444-.05 16.071.068 2.611.05 5.272.135 8.001.253.169 0 .354.016.522.016 2.376.068 4.785.186 7.227.304 1.718.084 3.453.168 5.188.269 1.634.101 3.285.202 4.953.32 1.297.068 2.594.169 3.908.253 1.112.084 2.224.168 3.336.236l4.009.303c1.853.152 3.706.303 5.593.455 1.869.168 3.773.337 5.677.505 1.903.169 3.823.354 5.744.539l.573.051c1.752.185 3.504.354 5.272.539 9.804.994 19.895 2.156 30.272 3.487 6.199.792 12.477 1.639 18.833 2.543a1593.96 1593.96 0 0 1 29.328 4.431c9.889 1.6 19.833 3.29 29.834 5.07 2.526.455 5.053.91 7.597 1.382 3.1.572 6.199 1.156 9.299 1.752 1.954.37 3.908.741 5.862 1.128 2.325.455 4.666.91 6.991 1.365a1628.756 1628.756 0 0 1 45.399 9.652c2.442.556 4.885 1.129 7.311 1.685a1382.782 1382.782 0 0 1 18.328 4.397c3.251.808 6.468 1.617 9.652 2.425v.017c.185.034.371.084.556.135 2.325.59 4.633 1.179 6.924 1.786a1339.514 1339.514 0 0 1 15.952 4.278c3.47.977 6.907 1.938 10.293 2.915 5.07 1.482 10.04 2.964 14.875 4.447 1.196.37 2.392.741 3.571 1.095 3.537 1.112 7.008 2.218 10.41 3.318 2.696.876 5.324 1.769 7.918 2.662 2.594.893 5.138 1.786 7.631 2.678 1.617.573 3.2 1.163 4.767 1.735 2.291.843 4.515 1.685 6.705 2.544.673.253 1.33.522 1.987.775 1.23.472 2.426.96 3.605 1.449.792.303 1.567.623 2.342.96.758.303 1.533.623 2.274.943.758.304 1.499.624 2.24.961.624.252 1.23.522 1.82.791a171.84 171.84 0 0 1 3.554 1.584c.573.269 1.146.522 1.718.792l1.314.606c.186.101.371.185.556.269 1.432.674 2.813 1.348 4.161 2.022 1.264.64 2.493 1.28 3.673 1.903 1.398.742 2.728 1.466 4.009 2.207.252.135.505.287.758.421.859.489 1.684.994 2.51 1.483 1.617.994 3.15 1.971 4.582 2.948a83.383 83.383 0 0 1 3.958 2.897c0 .017 0 .017.017.017.59.472 1.163.943 1.702 1.398a45.407 45.407 0 0 1 2.425 2.224c.249.229.485.47.708.724.098.081.188.172.27.27.353.387.707.775 1.044 1.162.404.472.775.943 1.129 1.415.168.236.353.472.505.707.202.287.404.59.573.876.151.236.286.489.421.725.357.607.662 1.244.91 1.903.184.449.336.911.454 1.382.128.447.224.903.287 1.364Z" fill="#000"/>
  <g clip-path="url(#a)">
    <path d="m441.76 501.293 7.72 3.407.036-.083-7.756-3.324Zm2.475 13.651-6.032 5.901.066.066 5.966-5.967Zm.45.45-5.966 5.967.003.003 5.963-5.97Zm0 21.227-5.963-5.97-.007.006 5.97 5.964Zm-21.226 0 5.97-5.964-.004-.003-5.966 5.967Zm-.45-.45 5.966-5.967-.066-.065-5.9 6.032Zm-13.651-2.475 3.324 7.755.083-.036-3.407-7.719Zm-7.501 11.325-8.438-.033v.033h8.438Zm-30.002.6h8.438l-.002-.197-8.436.197Zm-8.101-11.325-3.407 7.719c.163.072.328.139.495.2l2.912-7.919Zm-13.651 2.475-5.9-6.032-.066.065 5.966 5.967Zm-.45.45-5.966-5.967-.004.003 5.97 5.964Zm-21.226 0 5.97-5.964-.007-.006-5.963 5.97Zm-4.4-10.613h8.438-8.438Zm4.4-10.614 5.963 5.97.003-.003-5.966-5.967Zm.45-.45 5.966 5.967.066-.066-6.032-5.901Zm2.475-13.651-7.756 3.324.036.083 7.72-3.407Zm-11.326-7.5.034-8.438h-.034v8.438Zm-16.276-15.001h-8.438 8.438Zm15.001-15.002v8.439-8.439Zm.675 0v8.439c.066 0 .132-.001.197-.003l-.197-8.436Zm11.326-8.1-7.72-3.407a8.497 8.497 0 0 0-.2.494l7.92 2.913Zm-2.475-13.651 6.032-5.901-.066-.066-5.966 5.967Zm-.45-.45 5.966-5.967-.003-.003-5.963 5.97Zm0-21.227 5.963 5.97.007-.006-5.97-5.964Zm21.226 0-5.97 5.964.004.003 5.966-5.967Zm.45.45-5.966 5.967.066.065 5.9-6.032Zm13.651 2.475v-8.438a8.437 8.437 0 0 0-3.407.719l3.407 7.719Zm.6 0v8.439a8.44 8.44 0 0 0 3.324-.683l-3.324-7.756Zm7.501-11.325 8.438.033v-.033h-8.438Zm15.001-16.277v-8.438 8.438Zm15.001 15.677h-8.438v.033l8.438-.033Zm7.501 11.325 3.407-7.719a6.856 6.856 0 0 1-.083-.036l-3.324 7.755Zm13.651-2.475 5.9 6.032.066-.065-5.966-5.967Zm.45-.45 5.966 5.967.004-.003-5.97-5.964Zm10.613-4.399v8.438-8.438Zm10.613 4.399-5.97 5.964.007.006 5.963-5.97Zm0 21.227-5.963-5.97-.003.003 5.966 5.967Zm-.45.45-5.967-5.967-.065.066 6.032 5.901Zm-2.475 13.651h8.438a8.45 8.45 0 0 0-.718-3.407l-7.72 3.407Zm0 .6h-8.438c0 1.143.232 2.274.682 3.324l7.756-3.324Zm11.326 7.5-.034 8.438.034.001v-8.439Zm.6 30.003v-8.438h-.034l.034 8.438Zm-52.767-15.001c0 7.767-6.296 14.063-14.063 14.063v16.876c17.088 0 30.94-13.852 30.94-30.939h-16.877Zm-14.063 14.063c-7.767 0-14.064-6.296-14.064-14.063h-16.876c0 17.087 13.852 30.939 30.94 30.939v-16.876Zm-14.064-14.063c0-7.768 6.297-14.064 14.064-14.064v-16.876c-17.088 0-30.94 13.852-30.94 30.94h16.876Zm14.064-14.064c7.767 0 14.063 6.296 14.063 14.064h16.877c0-17.088-13.852-30.94-30.94-30.94v16.876Zm47.784 33.158a20.817 20.817 0 0 0-1.438 12.118l16.606-3.011a3.931 3.931 0 0 1 .272-2.293l-15.44-6.814Zm-1.438 12.118a20.815 20.815 0 0 0 5.601 10.841l12.064-11.801a3.938 3.938 0 0 1-1.059-2.051l-16.606 3.011Zm5.667 10.907.45.45 11.933-11.934-.45-.45-11.933 11.934Zm.453.453a6.562 6.562 0 0 1 1.424 2.13l15.59-6.462a23.431 23.431 0 0 0-5.087-7.608l-11.927 11.94Zm1.424 2.13c.331.797.501 1.651.501 2.513h16.876c0-3.08-.607-6.13-1.787-8.975l-15.59 6.462Zm.501 2.513c0 .863-.17 1.717-.501 2.514l15.59 6.462a23.428 23.428 0 0 0 1.787-8.976h-16.876Zm-.501 2.514a6.573 6.573 0 0 1-1.424 2.13l11.927 11.94a23.431 23.431 0 0 0 5.087-7.608l-15.59-6.462Zm-1.431 2.136a6.539 6.539 0 0 1-2.13 1.425l6.463 15.59a23.456 23.456 0 0 0 7.607-5.088l-11.94-11.927Zm-2.13 1.425a6.57 6.57 0 0 1-2.513.5v16.877c3.08 0 6.13-.608 8.976-1.787l-6.463-15.59Zm-2.513.5c-.863 0-1.717-.17-2.513-.5l-6.463 15.59a23.454 23.454 0 0 0 8.976 1.787v-16.877Zm-2.513-.5a6.539 6.539 0 0 1-2.13-1.425l-11.94 11.927a23.456 23.456 0 0 0 7.607 5.088l6.463-15.59Zm-2.134-1.428-.45-.45-11.933 11.933.45.45 11.933-11.933Zm-.516-.515a20.815 20.815 0 0 0-10.841-5.601l-3.011 16.605c.774.141 1.489.51 2.051 1.06l11.801-12.064Zm-10.841-5.601a20.813 20.813 0 0 0-12.117 1.438l6.814 15.439a3.944 3.944 0 0 1 2.292-.272l3.011-16.605Zm-12.034 1.402a20.82 20.82 0 0 0-9.155 7.638l14.071 9.318a3.942 3.942 0 0 1 1.732-1.445l-6.648-15.511Zm-9.155 7.638a20.819 20.819 0 0 0-3.46 11.41l16.876.067a3.941 3.941 0 0 1 .655-2.159l-14.071-9.318Zm-3.46 11.443v1.275h16.876v-1.275h-16.876Zm0 1.275c0 1.741-.692 3.41-1.922 4.641l11.933 11.934a23.44 23.44 0 0 0 6.865-16.575h-16.876Zm-1.922 4.641a6.562 6.562 0 0 1-4.641 1.922v16.877c6.216 0 12.178-2.47 16.574-6.865l-11.933-11.934Zm-4.641 1.922a6.562 6.562 0 0 1-4.641-1.922l-11.933 11.934a23.442 23.442 0 0 0 16.574 6.865v-16.877Zm-4.641-1.922a6.562 6.562 0 0 1-1.922-4.641h-16.876a23.44 23.44 0 0 0 6.865 16.575l11.933-11.934Zm-1.922-4.641v-.675h-16.876v.675h16.876Zm-.002-.872a20.816 20.816 0 0 0-3.879-11.622l-13.727 9.818c.46.643.716 1.409.734 2.199l16.872-.395Zm-3.879-11.622a20.817 20.817 0 0 0-9.745-7.426l-5.825 15.839a3.935 3.935 0 0 1 1.843 1.405l13.727-9.818Zm-9.251-7.226a20.813 20.813 0 0 0-12.117-1.438l3.011 16.605a3.945 3.945 0 0 1 2.292.272l6.814-15.439Zm-12.117-1.438a20.815 20.815 0 0 0-10.841 5.601l11.801 12.064a3.943 3.943 0 0 1 2.051-1.06l-3.011-16.605Zm-10.907 5.666-.45.45 11.933 11.933.45-.45-11.933-11.933Zm-.454.453a6.539 6.539 0 0 1-2.13 1.425l6.463 15.59a23.456 23.456 0 0 0 7.607-5.088l-11.94-11.927Zm-2.13 1.425a6.57 6.57 0 0 1-2.513.5v16.877c3.08 0 6.13-.608 8.976-1.787l-6.463-15.59Zm-2.513.5c-.863 0-1.717-.17-2.513-.5l-6.463 15.59a23.454 23.454 0 0 0 8.976 1.787v-16.877Zm-2.513-.5a6.539 6.539 0 0 1-2.13-1.425l-11.94 11.927a23.456 23.456 0 0 0 7.607 5.088l6.463-15.59Zm-2.137-1.431a6.58 6.58 0 0 1-1.425-2.13l-15.589 6.462a23.431 23.431 0 0 0 5.087 7.608l11.927-11.94Zm-1.425-2.13a6.57 6.57 0 0 1-.5-2.513h-16.876c0 3.08.607 6.13 1.787 8.975l15.589-6.462Zm-.5-2.513c0-.863.17-1.717.5-2.514l-15.589-6.462a23.428 23.428 0 0 0-1.787 8.976h16.876Zm.5-2.514a6.592 6.592 0 0 1 1.425-2.13l-11.927-11.94a23.431 23.431 0 0 0-5.087 7.608l15.589 6.462Zm1.428-2.133.45-.45-11.933-11.934-.45.451 11.933 11.933Zm.516-.516a20.815 20.815 0 0 0 5.601-10.841l-16.606-3.011a3.938 3.938 0 0 1-1.059 2.051l12.064 11.801Zm5.601-10.841a20.817 20.817 0 0 0-1.438-12.118l-15.44 6.814c.318.72.413 1.519.272 2.293l16.606 3.011Zm-1.402-12.035a20.808 20.808 0 0 0-7.639-9.154l-9.318 14.07a3.935 3.935 0 0 1 1.445 1.732l15.512-6.648Zm-7.639-9.154a20.813 20.813 0 0 0-11.409-3.46l-.068 16.876c.768.003 1.519.23 2.159.654l9.318-14.07Zm-11.443-3.46h-1.275v16.876h1.275v-16.876Zm-1.275 0a6.563 6.563 0 0 1-4.641-1.923l-11.933 11.934a23.443 23.443 0 0 0 16.574 6.865v-16.876Zm-4.641-1.923a6.562 6.562 0 0 1-1.922-4.64h-16.876a23.44 23.44 0 0 0 6.865 16.574l11.933-11.934Zm-1.922-4.64c0-1.741.691-3.41 1.922-4.641l-11.933-11.933a23.436 23.436 0 0 0-6.865 16.574h16.876Zm1.922-4.641a6.562 6.562 0 0 1 4.641-1.922v-16.877a23.44 23.44 0 0 0-16.574 6.866l11.933 11.933Zm4.641-1.922h.675v-16.877h-.675v16.877Zm.872-.003a20.805 20.805 0 0 0 11.622-3.879l-9.818-13.726a3.943 3.943 0 0 1-2.198.734l.394 16.871Zm11.622-3.879a20.808 20.808 0 0 0 7.426-9.744l-15.839-5.826a3.932 3.932 0 0 1-1.405 1.844l9.818 13.726Zm7.227-9.25a20.817 20.817 0 0 0 1.438-12.118l-16.606 3.011a3.931 3.931 0 0 1-.272 2.293l15.44 6.814Zm1.438-12.118a20.815 20.815 0 0 0-5.601-10.841l-12.064 11.801c.55.563.919 1.277 1.059 2.051l16.606-3.011Zm-5.667-10.907-.45-.45-11.933 11.933.45.451 11.933-11.934Zm-.453-.453a6.58 6.58 0 0 1-1.425-2.13l-15.589 6.462a23.431 23.431 0 0 0 5.087 7.608l11.927-11.94Zm-1.425-2.13a6.57 6.57 0 0 1-.5-2.513h-16.876c0 3.08.607 6.13 1.787 8.975l15.589-6.462Zm-.5-2.513c0-.863.17-1.717.5-2.514l-15.589-6.462a23.428 23.428 0 0 0-1.787 8.976h16.876Zm.5-2.514a6.592 6.592 0 0 1 1.425-2.13l-11.927-11.94a23.431 23.431 0 0 0-5.087 7.608l15.589 6.462Zm1.432-2.136a6.539 6.539 0 0 1 2.13-1.425l-6.463-15.59a23.456 23.456 0 0 0-7.607 5.088l11.94 11.927Zm2.13-1.425c.796-.33 1.65-.5 2.513-.5v-16.876c-3.08 0-6.13.607-8.976 1.786l6.463 15.59Zm2.513-.5c.862 0 1.716.17 2.513.5l6.463-15.59a23.453 23.453 0 0 0-8.976-1.786v16.876Zm2.513.5c.797.33 1.521.814 2.13 1.425l11.94-11.927a23.456 23.456 0 0 0-7.607-5.088l-6.463 15.59Zm2.134 1.428.45.45 11.933-11.933-.45-.45-11.933 11.933Zm.516.515a20.808 20.808 0 0 0 10.841 5.601l3.011-16.605a3.943 3.943 0 0 1-2.051-1.06l-11.801 12.064Zm10.841 5.601c4.092.742 8.313.241 12.117-1.438l-6.814-15.439a3.945 3.945 0 0 1-2.292.272l-3.011 16.605Zm8.71-.719h.6v-16.877h-.6v16.877Zm3.924-.683a20.82 20.82 0 0 0 9.155-7.638l-14.071-9.318a3.942 3.942 0 0 1-1.732 1.445l6.648 15.511Zm9.155-7.638a20.816 20.816 0 0 0 3.46-11.41l-16.876-.067a3.941 3.941 0 0 1-.655 2.159l14.071 9.318Zm3.46-11.443v-1.275h-16.876v1.275h16.876Zm0-1.275c0-1.741.691-3.41 1.922-4.641l-11.933-11.933a23.436 23.436 0 0 0-6.865 16.574h16.876Zm1.922-4.641a6.562 6.562 0 0 1 4.641-1.922v-16.877a23.438 23.438 0 0 0-16.574 6.866l11.933 11.933Zm4.641-1.922c1.741 0 3.41.691 4.641 1.922l11.933-11.933a23.44 23.44 0 0 0-16.574-6.866v16.877Zm4.641 1.922a6.566 6.566 0 0 1 1.922 4.641h16.876a23.436 23.436 0 0 0-6.865-16.574l-11.933 11.933Zm1.922 4.641v.675h16.876v-.675h-16.876Zm0 .708a20.819 20.819 0 0 0 3.46 11.41l14.071-9.318a3.941 3.941 0 0 1-.655-2.159l-16.876.067Zm3.46 11.41a20.82 20.82 0 0 0 9.155 7.638l6.648-15.511a3.942 3.942 0 0 1-1.732-1.445l-14.071 9.318Zm9.072 7.602a20.813 20.813 0 0 0 12.117 1.438l-3.011-16.605a3.944 3.944 0 0 1-2.292-.272l-6.814 15.439Zm12.117 1.438a20.815 20.815 0 0 0 10.841-5.601l-11.801-12.064a3.943 3.943 0 0 1-2.051 1.06l3.011 16.605Zm10.907-5.666.45-.45-11.933-11.933-.45.45 11.933 11.933Zm.454-.453a6.539 6.539 0 0 1 2.13-1.425l-6.463-15.59a23.456 23.456 0 0 0-7.607 5.088l11.94 11.927Zm2.13-1.425c.796-.33 1.65-.5 2.513-.5v-16.877c-3.08 0-6.13.608-8.976 1.787l6.463 15.59Zm2.513-.5c.862 0 1.716.17 2.513.5l6.463-15.59a23.454 23.454 0 0 0-8.976-1.787v16.877Zm2.513.5c.797.33 1.521.814 2.13 1.425l11.94-11.927a23.456 23.456 0 0 0-7.607-5.088l-6.463 15.59Zm2.137 1.431a6.573 6.573 0 0 1 1.424 2.13l15.59-6.462a23.418 23.418 0 0 0-5.088-7.608l-11.926 11.94Zm1.424 2.13c.331.797.501 1.651.501 2.514h16.876c0-3.081-.607-6.131-1.787-8.976l-15.59 6.462Zm.501 2.514c0 .862-.17 1.716-.501 2.513l15.59 6.462a23.426 23.426 0 0 0 1.787-8.975h-16.876Zm-.501 2.513a6.573 6.573 0 0 1-1.424 2.13l11.926 11.94a23.418 23.418 0 0 0 5.088-7.608l-15.59-6.462Zm-1.427 2.133-.451.45 11.934 11.933.45-.45-11.933-11.933Zm-.516.516a20.815 20.815 0 0 0-5.601 10.841l16.606 3.011a3.938 3.938 0 0 1 1.059-2.051l-12.064-11.801Zm-5.601 10.841a20.817 20.817 0 0 0 1.438 12.118l15.44-6.814a3.931 3.931 0 0 1-.272-2.293l-16.606-3.011Zm.72 8.711v.6h16.876v-.6h-16.876Zm.682 3.924a20.808 20.808 0 0 0 7.639 9.154l9.318-14.07a3.935 3.935 0 0 1-1.445-1.732l-15.512 6.648Zm7.639 9.154a20.805 20.805 0 0 0 11.409 3.46l.067-16.876a3.934 3.934 0 0 1-2.158-.654l-9.318 14.07Zm11.443 3.461h1.275v-16.877h-1.275v16.877Zm1.275 0c1.74 0 3.41.691 4.641 1.922l11.933-11.934a23.443 23.443 0 0 0-16.574-6.865v16.877Zm4.641 1.922a6.566 6.566 0 0 1 1.922 4.641H477.2a23.44 23.44 0 0 0-6.865-16.575l-11.933 11.934Zm1.922 4.641c0 1.74-.692 3.409-1.922 4.64l11.933 11.934a23.44 23.44 0 0 0 6.865-16.574h-16.876Zm-1.922 4.64a6.565 6.565 0 0 1-4.641 1.923v16.876c6.216 0 12.178-2.47 16.574-6.865l-11.933-11.934Zm-4.641 1.923h-.675v16.876h.675v-16.876Zm-.709 0a20.813 20.813 0 0 0-11.409 3.46l9.318 14.07a3.937 3.937 0 0 1 2.158-.654l-.067-16.876Zm-11.409 3.46a20.808 20.808 0 0 0-7.639 9.154l15.512 6.648a3.935 3.935 0 0 1 1.445-1.732l-9.318-14.07Z" fill="#00BFA6"/>
  </g>
  <path d="M1201 748h-152v24h152v-24Z" fill="#FBFBFB"/>
  <path d="M1129.23 756.007a26.602 26.602 0 0 0 10.7 4.34c3.84.648 7.77.445 11.53-.593a26.64 26.64 0 0 0 10.19-5.417 26.502 26.502 0 0 0 6.95-9.222l94.27 8.817-23.14-43.417-85.97-1.717a26.81 26.81 0 0 0-19.04.04 26.823 26.823 0 0 0-14.2 12.669 26.828 26.828 0 0 0-2.2 18.904 26.74 26.74 0 0 0 10.91 15.596Z" fill="#FFB6B6"/>
  <path d="m1224.81 753.038 130.45 14.625.45-.576c.86-1.099 86.22-110.361 100.56-136.371a78.6 78.6 0 0 0 9.11-51.505l-.1-.433-.34-.287a39.9 39.9 0 0 0-24.76-9.311 39.899 39.899 0 0 0-25.14 8.216 282.673 282.673 0 0 0-81.57 100.797l-10.79 22.462-97.87 9.652v42.731Z" fill="#00BFA6"/>
  <path d="m1118.98 1058.62-25.13 58.52c-3.61.25-7.22.46-10.83.61-2.86.15-5.71.26-8.58.34l-.97.3-.8-.25c-3.86.12-7.73.2-11.62.23-1.64.01-3.29.02-4.94.02-.78 0-1.55 0-2.32-.01l1.66-5.72 1.97-6.77 7.8-26.81 11.25-38.71 16.75 7.18 25.76 11.07ZM1304.79 1077.07c-12.91 6.23-29.49 2.26-44.25 2.98l-13.14-22.1 42.36-18.6 15.03 37.72Z" fill="#FFB6B6"/>
  <path d="M1389.44 962.397v46.553a551.566 551.566 0 0 1-23.9 16.69v-63.243h23.9Z" fill="#CACACA"/>
  <path d="M1473.4 932.911a538.424 538.424 0 0 1-20.75 21.78 562.227 562.227 0 0 1-53.25 46.739h-106.56c-2.83 0-5.63-.61-8.2-1.773a19.788 19.788 0 0 1-6.74-5l-.02-.04a19.665 19.665 0 0 1-4.48-8.813l-.02-.027c-.3-1.404-.45-2.836-.45-4.273v-28.67c0-5.28 2.1-10.344 5.83-14.079a19.962 19.962 0 0 1 14.08-5.844h180.56Z" fill="#3F3D56"/>
  <path d="m1517.31 821.009-11.55 49.488c1.13 7.17 1.51 14.438 1.12 21.686a549.642 549.642 0 0 1-16.94 21.592 567.972 567.972 0 0 1-16.53 19.136 545.72 545.72 0 0 1-20.76 21.78c-18.53 5.822-40.38 8.199-63.21 8.359-7.88.067-15.88-.147-23.9-.574-32.55-1.71-65.46-6.931-92.42-12.352a748.402 748.402 0 0 1-20.01-4.26 805.517 805.517 0 0 1-28.53-6.957c-7.97-2.083-12.51-3.432-12.51-3.432l-30.33 50.783-27.54 46.092-35.48 45.29c-3.39.3-6.78.56-10.18.77-3.61.25-7.22.46-10.83.61-2.86.15-5.71.26-8.58.34l-.97.31-.8-.26-12.88-4.1-4.34-1.37-15.61-4.97s3.49-10.98 9.59-29.28c2.25-6.72 18.14-56.383 34.76-99.742 4.93-12.872 10.03-25.932 15.28-38.925 4.3-10.67 8.68-21.299 13.11-31.781 7.71-18.175 44.93-27.976 88.77-33.117 2.23-.254 4.48-.508 6.73-.748 22.34-2.35 46.05-3.565 68.21-4.126a1331.263 1331.263 0 0 1 41.16-.374h.01c8.22.04 15.77.16 22.42.294 1.3.026 2.55.067 3.78.093h.02c.82.014 1.64.04 2.44.054 14.54.374 23.46.828 23.46.828l3.46-27.135.71-5.475.67-5.208v-.013l.08-.654.54-.014 9.62-.186 80.81-1.576 34.42-1.459 2.73 30.583Z" fill="#2F2E41"/>
  <path d="M1298.01 1040.54a419.4 419.4 0 0 1-9.97 4.94 549.145 549.145 0 0 1-39.52 17.22c-3.83 1.51-7.68 2.96-11.57 4.36-.42-.6-.86-1.2-1.31-1.8-18.53-25.44-30.07-41.65-53.9-78.998-9.98-15.624-20.01-31.915-29.74-48.554l70.48-32.903 7.9-3.685 22.73 44.747 20.27 39.914 4.52 8.88 20.11 45.879Z" fill="#2F2E41"/>
  <path d="M1412.33 501.526c35.86 0 64.93-29.071 64.93-64.932 0-35.861-29.07-64.932-64.93-64.932-35.86 0-64.93 29.071-64.93 64.932 0 35.861 29.07 64.932 64.93 64.932Z" fill="#FFB6B6"/>
  <path d="M1528.23 638.427c-.53-53.628 1.05-38.098-3.2-56.566-11.4-49.648-58.74-58.702-66.99-59.823a18.222 18.222 0 0 0-24.64-10.162l-15.8 8.193c-15.32 7.01-6.02 17.138-11.31 33.122l-5.55 16.959-45.53 125.83 9.22 47.873.01.026 6.21 32.249 18.41 20.975-.34-3.348-.42.641-.01.013-1.07 1.589c1.48.815 2.95 1.616 4.4 2.417a3030.2 3030.2 0 0 1 10.93 6.049c.86.481 1.7.948 2.54 1.429h.01c.54.294 1.07.587 1.59.881 13.33 7.451-36 21.019-25.04 27.388 1.53.882 3.03 1.763 4.52 2.631 50.47 29.524 90.75 66.3 103.77 76.983a549.674 549.674 0 0 0 16.94-21.593 533.78 533.78 0 0 0 14.44-20.257c.81-5.368 1.36-10.736 1.89-15.998.64-6.329-2.69-64.964-1.57-71.414.49-2.858-1.4-5.568-3.23-8.186-1.7-2.443-3.3-4.74-2.97-6.904.35-2.23 2.81-4.66 5.2-7.023 2.6-2.591 5.3-5.262 5.68-8.079 1.07-7.852-3.32-15.731-2.49-23.636a792.143 792.143 0 0 0 3.14-38.698 791.595 791.595 0 0 0 1.26-53.561Z" fill="#00BFA6"/>
  <path d="M1162 769.948a26.656 26.656 0 0 1 9.57-6.455 26.652 26.652 0 0 1 22.5 1.396 26.633 26.633 0 0 1 8.7 7.589l90.42-28.084-13.68 47.26-83.77 19.424a26.783 26.783 0 0 1-35.14-5.577 26.822 26.822 0 0 1-6.06-18.041 26.78 26.78 0 0 1 7.46-17.512Z" fill="#FFB6B6"/>
  <path d="m1125.49 744.828 75.9-66.359c3.61-3.155-3.27 6.246-.12 9.855 3.16 3.609 15.16.059 11.55 3.214l-75.9 66.359-19.23 4.389 7.8-17.458Z" fill="#3F3D56"/>
  <path d="M1620.72 532.143c-7.16 10.71-18.62 18.121-30.96 21.793a64.655 64.655 0 0 1-15.41 2.618 58.14 58.14 0 0 0-4.58-17.12c.25 5.79-.56 11.576-2.37 17.08a57.216 57.216 0 0 1-22.53-6.036c-13.69-7.011-24.22-20.418-26.56-35.627-2.75-17.761 5.3-35.2 8.21-52.934 2.93-17.733-2.56-40.194-19.92-44.854-13.22-3.552-11.74-2.016-22.73 6.143 11.43 16.903-30.79 78.845-48.07 73.444-9.77-3.054-16.03-12.018-18.04-12.018-13.58 23.395 11.99 62.815-13.78 71l2.12-2.123c15.56-19.136-16.96-59.637-1.4-78.772 4.34-5.355 8.96-11.698 7.68-18.468-1.22-6.436-11.43-9.842-14.43-4.554 5.39-12.325-2.56-28.776-15.71-31.941-11.69-2.818-11.47.654-23.2 2.163a57.976 57.976 0 0 0-4.26-14.702 47.395 47.395 0 0 1-1.75 14.983 18.784 18.784 0 0 1-11.37-4.113c-9.57-7.705-7.63-23.89.9-32.716 8.55-8.827 21.25-12.005 33.36-14.062 3.52-24.518 71.17-27.075 80.14-2.577 3.81-18.294 26.72-27.788 44.52-22.113 17.8 5.675 30.15 22.3 36.65 39.82 6.5 17.506 8.32 36.348 12.33 54.589 4 18.241 10.77 36.816 24.71 49.248 13.94 12.418 36.66 16.531 51.35 4.994 4.63 12.018 2.24 26.133-4.9 36.855Z" fill="#2F2E41"/>
  <defs>
    <clipPath id="a">
      <path fill="#fff" transform="translate(296.25 388.78)" d="M0 0h180.013v180.013H0z"/>
    </clipPath>
  </defs>
</svg>
