<svg width="1628" height="1168" viewBox="0 0 1628 1168" fill="none" xmlns="http://www.w3.org/2000/svg">
<path d="M1427.53 1066.3C1513.94 1000.49 1555.21 889.891 1529.37 784.388C1528.73 781.766 1528.05 779.151 1527.34 776.542C1510.21 713.916 1467.83 654.396 1406.07 634.386C1354.21 617.584 1297.6 630.504 1243.49 623.823C1137.28 610.707 1054.94 524.771 997.005 434.795C939.067 344.819 894.539 244.104 817.552 169.771C690.652 47.2451 483.644 20.8652 326.306 100.62C168.967 180.376 68.744 357.319 73.0182 533.666C77.2927 710.013 181.982 878.612 334.016 968.065C389.868 1000.93 454.465 1024.21 518.753 1016.06C574.534 1008.99 625.218 979.019 680.737 970.121C768.026 956.13 854.758 995.596 930.256 1041.59C1005.75 1087.58 1078.68 1142.09 1164.47 1163.41C1247.78 1184.11 1350.98 1124.61 1427.53 1066.3Z" fill="#F2F2F2"/>
<path d="M0 731.588C14.6342 748.928 30.4627 765.224 47.3697 780.356L1278.07 782.04C1294.98 766.908 1310.81 750.612 1325.44 733.272L0 731.588Z" fill="#3F3D56"/>
<path d="M802.58 575.429V719.802C802.582 721.642 803.313 723.406 804.614 724.707C805.915 726.008 807.679 726.74 809.519 726.741H1023.46C1025.3 726.74 1027.07 726.008 1028.37 724.707C1029.67 723.406 1030.4 721.642 1030.4 719.802V575.429C1030.4 573.591 1029.67 571.829 1028.37 570.53C1027.07 569.231 1025.3 568.5 1023.46 568.498H809.519C807.681 568.5 805.918 569.231 804.618 570.53C803.317 571.829 802.584 573.591 802.58 575.429V575.429Z" fill="#3F3D56"/>
<path d="M807.598 577.226V718.022C807.599 719.005 807.991 719.947 808.686 720.642C809.381 721.337 810.323 721.728 811.306 721.73H1021.68C1022.67 721.728 1023.61 721.337 1024.3 720.642C1025 719.947 1025.39 719.005 1025.39 718.022V577.226C1025.39 576.242 1025 575.298 1024.31 574.601C1023.61 573.904 1022.67 573.512 1021.68 573.51H811.306C810.322 573.512 809.379 573.904 808.684 574.601C807.988 575.298 807.598 576.242 807.598 577.226V577.226Z" fill="#6D6D6D"/>
<path d="M798.104 747.959C798.496 748.45 798.994 748.846 799.561 749.117C800.128 749.389 800.749 749.528 801.378 749.525H1030.46C1031.09 749.524 1031.71 749.384 1032.27 749.114C1032.84 748.844 1033.34 748.452 1033.73 747.965C1034.13 747.478 1034.41 746.91 1034.56 746.301C1034.7 745.692 1034.71 745.058 1034.58 744.445L1031.03 727.553C1030.88 726.865 1030.56 726.223 1030.11 725.689C1029.65 725.154 1029.06 724.742 1028.4 724.491C1027.93 724.304 1027.42 724.208 1026.91 724.209H804.92C804.408 724.208 803.901 724.304 803.424 724.491C802.766 724.742 802.181 725.154 801.722 725.689C801.264 726.223 800.947 726.865 800.799 727.553L797.243 744.445C797.117 745.058 797.128 745.691 797.277 746.299C797.426 746.907 797.709 747.474 798.104 747.959V747.959Z" fill="#2F2E41"/>
<path d="M1019.05 731.486H1024.46C1024.92 731.486 1025.28 731.118 1025.28 730.664V728.075C1025.28 727.621 1024.92 727.253 1024.46 727.253H1019.05C1018.6 727.253 1018.23 727.621 1018.23 728.075V730.664C1018.23 731.118 1018.6 731.486 1019.05 731.486Z" fill="#3F3D56"/>
<path d="M1004.94 731.486H1010.35C1010.8 731.486 1011.17 731.118 1011.17 730.664V728.075C1011.17 727.621 1010.8 727.253 1010.35 727.253H1004.94C1004.48 727.253 1004.12 727.621 1004.12 728.075V730.664C1004.12 731.118 1004.48 731.486 1004.94 731.486Z" fill="#3F3D56"/>
<path d="M990.825 731.486H996.236C996.69 731.486 997.059 731.118 997.059 730.664V728.075C997.059 727.621 996.69 727.253 996.236 727.253H990.825C990.371 727.253 990.003 727.621 990.003 728.075V730.664C990.003 731.118 990.371 731.486 990.825 731.486Z" fill="#3F3D56"/>
<path d="M976.714 731.486H982.125C982.579 731.486 982.947 731.118 982.947 730.664V728.075C982.947 727.621 982.579 727.253 982.125 727.253H976.714C976.26 727.253 975.892 727.621 975.892 728.075V730.664C975.892 731.118 976.26 731.486 976.714 731.486Z" fill="#3F3D56"/>
<path d="M962.603 731.486H968.014C968.468 731.486 968.836 731.118 968.836 730.664V728.075C968.836 727.621 968.468 727.253 968.014 727.253H962.603C962.148 727.253 961.78 727.621 961.78 728.075V730.664C961.78 731.118 962.148 731.486 962.603 731.486Z" fill="#3F3D56"/>
<path d="M948.491 731.486H953.902C954.356 731.486 954.725 731.118 954.725 730.664V728.075C954.725 727.621 954.356 727.253 953.902 727.253H948.491C948.037 727.253 947.669 727.621 947.669 728.075V730.664C947.669 731.118 948.037 731.486 948.491 731.486Z" fill="#3F3D56"/>
<path d="M934.38 731.486H939.791C940.245 731.486 940.613 731.118 940.613 730.664V728.075C940.613 727.621 940.245 727.253 939.791 727.253H934.38C933.926 727.253 933.558 727.621 933.558 728.075V730.664C933.558 731.118 933.926 731.486 934.38 731.486Z" fill="#3F3D56"/>
<path d="M920.269 731.486H925.68C926.134 731.486 926.502 731.118 926.502 730.664V728.075C926.502 727.621 926.134 727.253 925.68 727.253H920.269C919.814 727.253 919.446 727.621 919.446 728.075V730.664C919.446 731.118 919.814 731.486 920.269 731.486Z" fill="#3F3D56"/>
<path d="M906.157 731.486H911.568C912.022 731.486 912.391 731.118 912.391 730.664V728.075C912.391 727.621 912.022 727.253 911.568 727.253H906.157C905.703 727.253 905.335 727.621 905.335 728.075V730.664C905.335 731.118 905.703 731.486 906.157 731.486Z" fill="#3F3D56"/>
<path d="M892.046 731.486H897.457C897.911 731.486 898.279 731.118 898.279 730.664V728.075C898.279 727.621 897.911 727.253 897.457 727.253H892.046C891.592 727.253 891.223 727.621 891.223 728.075V730.664C891.223 731.118 891.592 731.486 892.046 731.486Z" fill="#3F3D56"/>
<path d="M877.935 731.486H883.346C883.8 731.486 884.168 731.118 884.168 730.664V728.075C884.168 727.621 883.8 727.253 883.346 727.253H877.935C877.48 727.253 877.112 727.621 877.112 728.075V730.664C877.112 731.118 877.48 731.486 877.935 731.486Z" fill="#3F3D56"/>
<path d="M863.823 731.486H869.234C869.688 731.486 870.057 731.118 870.057 730.664V728.075C870.057 727.621 869.688 727.253 869.234 727.253H863.823C863.369 727.253 863.001 727.621 863.001 728.075V730.664C863.001 731.118 863.369 731.486 863.823 731.486Z" fill="#3F3D56"/>
<path d="M849.712 731.486H855.123C855.577 731.486 855.945 731.118 855.945 730.664V728.075C855.945 727.621 855.577 727.253 855.123 727.253H849.712C849.258 727.253 848.89 727.621 848.89 728.075V730.664C848.89 731.118 849.258 731.486 849.712 731.486Z" fill="#3F3D56"/>
<path d="M835.599 731.486H841.01C841.464 731.486 841.832 731.118 841.832 730.664V728.075C841.832 727.621 841.464 727.253 841.01 727.253H835.599C835.144 727.253 834.776 727.621 834.776 728.075V730.664C834.776 731.118 835.144 731.486 835.599 731.486Z" fill="#3F3D56"/>
<path d="M821.487 731.486H826.898C827.353 731.486 827.721 731.118 827.721 730.664V728.075C827.721 727.621 827.353 727.253 826.898 727.253H821.487C821.033 727.253 820.665 727.621 820.665 728.075V730.664C820.665 731.118 821.033 731.486 821.487 731.486Z" fill="#3F3D56"/>
<path d="M807.374 731.486H812.785C813.239 731.486 813.607 731.118 813.607 730.664V728.075C813.607 727.621 813.239 727.253 812.785 727.253H807.374C806.92 727.253 806.552 727.621 806.552 728.075V730.664C806.552 731.118 806.92 731.486 807.374 731.486Z" fill="#3F3D56"/>
<path d="M1019.21 738.541H1024.62C1025.08 738.541 1025.45 738.173 1025.45 737.719V735.13C1025.45 734.676 1025.08 734.308 1024.62 734.308H1019.21C1018.76 734.308 1018.39 734.676 1018.39 735.13V737.719C1018.39 738.173 1018.76 738.541 1019.21 738.541Z" fill="#3F3D56"/>
<path d="M1005.1 738.541H1010.51C1010.97 738.541 1011.34 738.173 1011.34 737.719V735.13C1011.34 734.676 1010.97 734.308 1010.51 734.308H1005.1C1004.65 734.308 1004.28 734.676 1004.28 735.13V737.719C1004.28 738.173 1004.65 738.541 1005.1 738.541Z" fill="#3F3D56"/>
<path d="M990.991 738.541H996.402C996.856 738.541 997.225 738.173 997.225 737.719V735.13C997.225 734.676 996.856 734.308 996.402 734.308H990.991C990.537 734.308 990.169 734.676 990.169 735.13V737.719C990.169 738.173 990.537 738.541 990.991 738.541Z" fill="#3F3D56"/>
<path d="M976.88 738.541H982.291C982.745 738.541 983.113 738.173 983.113 737.719V735.13C983.113 734.676 982.745 734.308 982.291 734.308H976.88C976.426 734.308 976.058 734.676 976.058 735.13V737.719C976.058 738.173 976.426 738.541 976.88 738.541Z" fill="#3F3D56"/>
<path d="M962.769 738.541H968.18C968.634 738.541 969.002 738.173 969.002 737.719V735.13C969.002 734.676 968.634 734.308 968.18 734.308H962.769C962.314 734.308 961.946 734.676 961.946 735.13V737.719C961.946 738.173 962.314 738.541 962.769 738.541Z" fill="#3F3D56"/>
<path d="M948.655 738.541H954.066C954.521 738.541 954.889 738.173 954.889 737.719V735.13C954.889 734.676 954.521 734.308 954.066 734.308H948.655C948.201 734.308 947.833 734.676 947.833 735.13V737.719C947.833 738.173 948.201 738.541 948.655 738.541Z" fill="#3F3D56"/>
<path d="M934.544 738.541H939.955C940.409 738.541 940.777 738.173 940.777 737.719V735.13C940.777 734.676 940.409 734.308 939.955 734.308H934.544C934.09 734.308 933.722 734.676 933.722 735.13V737.719C933.722 738.173 934.09 738.541 934.544 738.541Z" fill="#3F3D56"/>
<path d="M920.435 738.541H925.846C926.3 738.541 926.668 738.173 926.668 737.719V735.13C926.668 734.676 926.3 734.308 925.846 734.308H920.435C919.98 734.308 919.612 734.676 919.612 735.13V737.719C919.612 738.173 919.98 738.541 920.435 738.541Z" fill="#3F3D56"/>
<path d="M906.323 738.541H911.734C912.188 738.541 912.557 738.173 912.557 737.719V735.13C912.557 734.676 912.188 734.308 911.734 734.308H906.323C905.869 734.308 905.501 734.676 905.501 735.13V737.719C905.501 738.173 905.869 738.541 906.323 738.541Z" fill="#3F3D56"/>
<path d="M892.21 738.541H897.621C898.075 738.541 898.443 738.173 898.443 737.719V735.13C898.443 734.676 898.075 734.308 897.621 734.308H892.21C891.756 734.308 891.388 734.676 891.388 735.13V737.719C891.388 738.173 891.756 738.541 892.21 738.541Z" fill="#3F3D56"/>
<path d="M878.099 738.541H883.51C883.964 738.541 884.332 738.173 884.332 737.719V735.13C884.332 734.676 883.964 734.308 883.51 734.308H878.099C877.645 734.308 877.276 734.676 877.276 735.13V737.719C877.276 738.173 877.645 738.541 878.099 738.541Z" fill="#3F3D56"/>
<path d="M863.987 738.541H869.398C869.852 738.541 870.221 738.173 870.221 737.719V735.13C870.221 734.676 869.852 734.308 869.398 734.308H863.987C863.533 734.308 863.165 734.676 863.165 735.13V737.719C863.165 738.173 863.533 738.541 863.987 738.541Z" fill="#3F3D56"/>
<path d="M849.876 738.541H855.287C855.741 738.541 856.109 738.173 856.109 737.719V735.13C856.109 734.676 855.741 734.308 855.287 734.308H849.876C849.422 734.308 849.054 734.676 849.054 735.13V737.719C849.054 738.173 849.422 738.541 849.876 738.541Z" fill="#3F3D56"/>
<path d="M835.765 738.541H841.176C841.63 738.541 841.998 738.173 841.998 737.719V735.13C841.998 734.676 841.63 734.308 841.176 734.308H835.765C835.31 734.308 834.942 734.676 834.942 735.13V737.719C834.942 738.173 835.31 738.541 835.765 738.541Z" fill="#3F3D56"/>
<path d="M821.653 738.541H827.064C827.519 738.541 827.887 738.173 827.887 737.719V735.13C827.887 734.676 827.519 734.308 827.064 734.308H821.653C821.199 734.308 820.831 734.676 820.831 735.13V737.719C820.831 738.173 821.199 738.541 821.653 738.541Z" fill="#3F3D56"/>
<path d="M807.542 738.541H812.953C813.407 738.541 813.775 738.173 813.775 737.719V735.13C813.775 734.676 813.407 734.308 812.953 734.308H807.542C807.088 734.308 806.72 734.676 806.72 735.13V737.719C806.72 738.173 807.088 738.541 807.542 738.541Z" fill="#3F3D56"/>
<path d="M902.089 747.008H956.891C957.345 747.008 957.713 746.64 957.713 746.185V743.597C957.713 743.143 957.345 742.774 956.891 742.774H902.089C901.635 742.774 901.267 743.143 901.267 743.597V746.185C901.267 746.64 901.635 747.008 902.089 747.008Z" fill="#3F3D56"/>
<path d="M844.028 604.312H839.237C837.785 604.312 836.607 605.49 836.607 606.942C836.607 608.395 837.785 609.572 839.237 609.572H844.028C845.48 609.572 846.657 608.395 846.657 606.942C846.657 605.49 845.48 604.312 844.028 604.312Z" fill="white"/>
<path d="M898.817 604.312H894.026C892.574 604.312 891.396 605.49 891.396 606.942C891.396 608.395 892.574 609.572 894.026 609.572H898.817C900.269 609.572 901.446 608.395 901.446 606.942C901.446 605.49 900.269 604.312 898.817 604.312Z" fill="white"/>
<path d="M914.338 604.312H909.548C908.095 604.312 906.918 605.49 906.918 606.942C906.918 608.395 908.095 609.572 909.548 609.572H914.338C915.79 609.572 916.968 608.395 916.968 606.942C916.968 605.49 915.79 604.312 914.338 604.312Z" fill="white"/>
<path d="M883.914 603.873H854.141C852.689 603.873 851.512 605.05 851.512 606.503C851.512 607.955 852.689 609.133 854.141 609.133H883.914C885.367 609.133 886.544 607.955 886.544 606.503C886.544 605.05 885.367 603.873 883.914 603.873Z" fill="white"/>
<path d="M956.963 603.873H927.19C925.738 603.873 924.561 605.05 924.561 606.503C924.561 607.955 925.738 609.133 927.19 609.133H956.963C958.415 609.133 959.593 607.955 959.593 606.503C959.593 605.05 958.415 603.873 956.963 603.873Z" fill="white"/>
<path d="M858.641 616.182H853.85C852.398 616.182 851.221 617.359 851.221 618.811C851.221 620.264 852.398 621.441 853.85 621.441H858.641C860.093 621.441 861.271 620.264 861.271 618.811C861.271 617.359 860.093 616.182 858.641 616.182Z" fill="white"/>
<path d="M913.426 616.182H908.636C907.183 616.182 906.006 617.359 906.006 618.811C906.006 620.264 907.183 621.441 908.636 621.441H913.426C914.878 621.441 916.056 620.264 916.056 618.811C916.056 617.359 914.878 616.182 913.426 616.182Z" fill="white"/>
<path d="M928.947 616.182H924.157C922.705 616.182 921.527 617.359 921.527 618.811C921.527 620.264 922.705 621.441 924.157 621.441H928.947C930.4 621.441 931.577 620.264 931.577 618.811C931.577 617.359 930.4 616.182 928.947 616.182Z" fill="white"/>
<path d="M898.524 615.744H868.751C867.298 615.744 866.121 616.922 866.121 618.374C866.121 619.826 867.298 621.004 868.751 621.004H898.524C899.976 621.004 901.153 619.826 901.153 618.374C901.153 616.922 899.976 615.744 898.524 615.744Z" fill="white"/>
<path d="M971.572 615.744H941.8C940.347 615.744 939.17 616.922 939.17 618.374C939.17 619.826 940.347 621.004 941.8 621.004H971.572C973.025 621.004 974.202 619.826 974.202 618.374C974.202 616.922 973.025 615.744 971.572 615.744Z" fill="white"/>
<path d="M873.248 628.053H868.458C867.005 628.053 865.828 629.23 865.828 630.682C865.828 632.135 867.005 633.312 868.458 633.312H873.248C874.7 633.312 875.878 632.135 875.878 630.682C875.878 629.23 874.7 628.053 873.248 628.053Z" fill="white"/>
<path d="M928.037 628.053H923.247C921.794 628.053 920.617 629.23 920.617 630.682C920.617 632.135 921.794 633.312 923.247 633.312H928.037C929.49 633.312 930.667 632.135 930.667 630.682C930.667 629.23 929.49 628.053 928.037 628.053Z" fill="white"/>
<path d="M943.559 628.053H938.768C937.316 628.053 936.139 629.23 936.139 630.682C936.139 632.135 937.316 633.312 938.768 633.312H943.559C945.011 633.312 946.188 632.135 946.188 630.682C946.188 629.23 945.011 628.053 943.559 628.053Z" fill="white"/>
<path d="M913.131 627.615H883.358C881.906 627.615 880.729 628.793 880.729 630.245C880.729 631.697 881.906 632.875 883.358 632.875H913.131C914.583 632.875 915.761 631.697 915.761 630.245C915.761 628.793 914.583 627.615 913.131 627.615Z" fill="white"/>
<path d="M986.182 627.615H956.409C954.957 627.615 953.779 628.793 953.779 630.245C953.779 631.697 954.957 632.875 956.409 632.875H986.182C987.634 632.875 988.812 631.697 988.812 630.245C988.812 628.793 987.634 627.615 986.182 627.615Z" fill="white"/>
<path d="M887.86 639.924H883.069C881.617 639.924 880.439 641.101 880.439 642.554C880.439 644.006 881.617 645.183 883.069 645.183H887.86C889.312 645.183 890.489 644.006 890.489 642.554C890.489 641.101 889.312 639.924 887.86 639.924Z" fill="white"/>
<path d="M942.647 639.924H937.856C936.404 639.924 935.227 641.101 935.227 642.554C935.227 644.006 936.404 645.183 937.856 645.183H942.647C944.099 645.183 945.276 644.006 945.276 642.554C945.276 641.101 944.099 639.924 942.647 639.924Z" fill="white"/>
<path d="M958.168 639.924H953.378C951.925 639.924 950.748 641.101 950.748 642.554C950.748 644.006 951.925 645.183 953.378 645.183H958.168C959.621 645.183 960.798 644.006 960.798 642.554C960.798 641.101 959.621 639.924 958.168 639.924Z" fill="white"/>
<path d="M927.742 639.486H897.969C896.517 639.486 895.34 640.664 895.34 642.116C895.34 643.568 896.517 644.746 897.969 644.746H927.742C929.195 644.746 930.372 643.568 930.372 642.116C930.372 640.664 929.195 639.486 927.742 639.486Z" fill="white"/>
<path d="M898.817 687.127H894.026C892.574 687.127 891.396 688.304 891.396 689.757C891.396 691.209 892.574 692.386 894.026 692.386H898.817C900.269 692.386 901.446 691.209 901.446 689.757C901.446 688.304 900.269 687.127 898.817 687.127Z" fill="white"/>
<path d="M914.338 687.127H909.548C908.095 687.127 906.918 688.304 906.918 689.757C906.918 691.209 908.095 692.386 909.548 692.386H914.338C915.79 692.386 916.968 691.209 916.968 689.757C916.968 688.304 915.79 687.127 914.338 687.127Z" fill="white"/>
<path d="M956.963 687.564H927.19C925.738 687.564 924.561 688.742 924.561 690.194C924.561 691.647 925.738 692.824 927.19 692.824H956.963C958.415 692.824 959.593 691.647 959.593 690.194C959.593 688.742 958.415 687.564 956.963 687.564Z" fill="white"/>
<path d="M844.028 687.127H839.237C837.785 687.127 836.607 688.304 836.607 689.757C836.607 691.209 837.785 692.386 839.237 692.386H844.028C845.48 692.386 846.657 691.209 846.657 689.757C846.657 688.304 845.48 687.127 844.028 687.127Z" fill="white"/>
<path d="M883.914 687.564H854.141C852.689 687.564 851.512 688.742 851.512 690.194C851.512 691.647 852.689 692.824 854.141 692.824H883.914C885.367 692.824 886.544 691.647 886.544 690.194C886.544 688.742 885.367 687.564 883.914 687.564Z" fill="white"/>
<path d="M858.641 675.256H853.85C852.398 675.256 851.221 676.433 851.221 677.886C851.221 679.338 852.398 680.515 853.85 680.515H858.641C860.093 680.515 861.271 679.338 861.271 677.886C861.271 676.433 860.093 675.256 858.641 675.256Z" fill="white"/>
<path d="M913.426 675.256H908.636C907.183 675.256 906.006 676.433 906.006 677.886C906.006 679.338 907.183 680.515 908.636 680.515H913.426C914.878 680.515 916.056 679.338 916.056 677.886C916.056 676.433 914.878 675.256 913.426 675.256Z" fill="white"/>
<path d="M928.947 675.256H924.157C922.705 675.256 921.527 676.433 921.527 677.886C921.527 679.338 922.705 680.515 924.157 680.515H928.947C930.4 680.515 931.577 679.338 931.577 677.886C931.577 676.433 930.4 675.256 928.947 675.256Z" fill="white"/>
<path d="M898.524 675.695H868.751C867.298 675.695 866.121 676.873 866.121 678.325C866.121 679.777 867.298 680.955 868.751 680.955H898.524C899.976 680.955 901.153 679.777 901.153 678.325C901.153 676.873 899.976 675.695 898.524 675.695Z" fill="white"/>
<path d="M873.248 663.387H868.458C867.005 663.387 865.828 664.564 865.828 666.016C865.828 667.469 867.005 668.646 868.458 668.646H873.248C874.7 668.646 875.878 667.469 875.878 666.016C875.878 664.564 874.7 663.387 873.248 663.387Z" fill="white"/>
<path d="M928.037 663.387H923.247C921.794 663.387 920.617 664.564 920.617 666.016C920.617 667.469 921.794 668.646 923.247 668.646H928.037C929.49 668.646 930.667 667.469 930.667 666.016C930.667 664.564 929.49 663.387 928.037 663.387Z" fill="white"/>
<path d="M943.559 663.387H938.768C937.316 663.387 936.139 664.564 936.139 666.016C936.139 667.469 937.316 668.646 938.768 668.646H943.559C945.011 668.646 946.188 667.469 946.188 666.016C946.188 664.564 945.011 663.387 943.559 663.387Z" fill="white"/>
<path d="M913.131 663.822H883.358C881.906 663.822 880.729 665 880.729 666.452C880.729 667.904 881.906 669.082 883.358 669.082H913.131C914.583 669.082 915.761 667.904 915.761 666.452C915.761 665 914.583 663.822 913.131 663.822Z" fill="white"/>
<path d="M887.86 651.516H883.069C881.617 651.516 880.439 652.693 880.439 654.145C880.439 655.598 881.617 656.775 883.069 656.775H887.86C889.312 656.775 890.489 655.598 890.489 654.145C890.489 652.693 889.312 651.516 887.86 651.516Z" fill="white"/>
<path d="M942.647 651.516H937.856C936.404 651.516 935.227 652.693 935.227 654.145C935.227 655.598 936.404 656.775 937.856 656.775H942.647C944.099 656.775 945.276 655.598 945.276 654.145C945.276 652.693 944.099 651.516 942.647 651.516Z" fill="white"/>
<path d="M958.168 651.516H953.378C951.925 651.516 950.748 652.693 950.748 654.145C950.748 655.598 951.925 656.775 953.378 656.775H958.168C959.621 656.775 960.798 655.598 960.798 654.145C960.798 652.693 959.621 651.516 958.168 651.516Z" fill="white"/>
<path d="M927.742 651.953H897.969C896.517 651.953 895.34 653.131 895.34 654.583C895.34 656.035 896.517 657.213 897.969 657.213H927.742C929.195 657.213 930.372 656.035 930.372 654.583C930.372 653.131 929.195 651.953 927.742 651.953Z" fill="white"/>
<path d="M802.564 826.244L780.076 790.697L850.662 734.428L879.797 702.15C883.583 697.957 888.402 694.83 893.774 693.083C899.146 691.336 904.883 691.029 910.411 692.193C915.939 693.357 921.064 695.952 925.275 699.718C929.486 703.483 932.635 708.288 934.407 713.652C937.033 721.601 936.469 730.259 932.832 737.8C929.196 745.34 922.772 751.173 914.917 754.067L868.846 771.039L802.564 826.244Z" fill="#FFB6B6"/>
<path d="M322.911 568.507V741.275H443.946V568.507C443.948 567.264 443.552 566.054 442.815 565.053C442.078 564.052 441.04 563.315 439.853 562.948C439.293 562.763 438.707 562.672 438.118 562.678H328.756C327.99 562.677 327.23 562.826 326.521 563.118C325.813 563.411 325.168 563.84 324.626 564.381C324.083 564.922 323.652 565.565 323.358 566.273C323.063 566.981 322.912 567.74 322.911 568.507V568.507ZM370.146 627.87C370.177 624.464 371.553 621.209 373.972 618.811C376.392 616.414 379.66 615.069 383.066 615.069C386.472 615.069 389.741 616.414 392.16 618.811C394.58 621.209 395.955 624.464 395.987 627.87V647.917C395.969 651.332 394.601 654.601 392.179 657.01C389.758 659.419 386.482 660.771 383.066 660.771C379.651 660.771 376.375 659.419 373.953 657.01C371.532 654.601 370.163 651.332 370.146 647.917V627.87Z" fill="#2F2E41"/>
<path d="M322.543 735.75V752.41C322.545 753.273 322.888 754.1 323.497 754.712C324.105 755.324 324.931 755.671 325.794 755.678H441.068C441.932 755.673 442.759 755.327 443.368 754.715C443.977 754.102 444.319 753.274 444.319 752.41V735.75H322.543Z" fill="#3F3D56"/>
<path d="M132.507 308.208V623.658C132.51 627.678 134.108 631.533 136.951 634.375C139.794 637.218 143.648 638.816 147.668 638.819H615.132C619.152 638.816 623.007 637.218 625.849 634.375C628.692 631.533 630.29 627.678 630.293 623.658V308.208C630.284 304.192 628.683 300.343 625.841 297.505C622.999 294.666 619.149 293.069 615.132 293.064H147.668C143.651 293.069 139.801 294.666 136.959 297.505C134.117 300.343 132.517 304.192 132.507 308.208Z" fill="#3F3D56"/>
<path d="M143.473 312.133V619.766C143.476 621.914 144.331 623.973 145.85 625.492C147.369 627.01 149.428 627.865 151.575 627.869H611.24C613.388 627.865 615.447 627.01 616.966 625.492C618.484 623.973 619.339 621.914 619.343 619.766V312.133C619.343 309.982 618.49 307.92 616.97 306.398C615.451 304.875 613.391 304.018 611.24 304.013H151.575C149.425 304.018 147.364 304.875 145.845 306.398C144.326 307.92 143.473 309.982 143.473 312.133Z" fill="white"/>
<path d="M228.78 754.549C229.248 755.135 229.843 755.608 230.519 755.932C231.196 756.256 231.938 756.422 232.688 756.419H506.159C506.907 756.418 507.645 756.25 508.32 755.928C508.995 755.606 509.59 755.137 510.061 754.557C510.532 753.976 510.868 753.297 511.044 752.57C511.22 751.843 511.231 751.086 511.078 750.354L506.833 730.19C506.657 729.368 506.278 728.603 505.731 727.964C505.183 727.326 504.485 726.834 503.699 726.535C503.131 726.311 502.525 726.197 501.914 726.198H236.916C236.305 726.197 235.7 726.311 235.131 726.535C234.345 726.834 233.647 727.326 233.099 727.964C232.552 728.603 232.173 729.368 231.997 730.19L227.752 750.354C227.601 751.086 227.615 751.842 227.793 752.567C227.971 753.293 228.308 753.97 228.78 754.549Z" fill="#2F2E41"/>
<path d="M596.323 346.393H166.217C165.77 346.383 165.345 346.198 165.032 345.879C164.719 345.559 164.544 345.13 164.544 344.682C164.544 344.235 164.719 343.806 165.032 343.486C165.345 343.167 165.77 342.982 166.217 342.972H596.323C596.771 342.982 597.196 343.167 597.509 343.486C597.821 343.806 597.996 344.235 597.996 344.682C597.996 345.13 597.821 345.559 597.509 345.879C597.196 346.198 596.771 346.383 596.323 346.393V346.393Z" fill="#3F3D56"/>
<path d="M195.496 334.237C201.032 334.237 205.519 329.649 205.519 323.99C205.519 318.331 201.032 313.743 195.496 313.743C189.96 313.743 185.472 318.331 185.472 323.99C185.472 329.649 189.96 334.237 195.496 334.237Z" fill="#3F3D56"/>
<path d="M230.121 334.237C235.657 334.237 240.145 329.649 240.145 323.99C240.145 318.331 235.657 313.743 230.121 313.743C224.585 313.743 220.097 318.331 220.097 323.99C220.097 329.649 224.585 334.237 230.121 334.237Z" fill="#3F3D56"/>
<path d="M264.75 334.237C270.286 334.237 274.773 329.649 274.773 323.99C274.773 318.331 270.286 313.743 264.75 313.743C259.214 313.743 254.726 318.331 254.726 323.99C254.726 329.649 259.214 334.237 264.75 334.237Z" fill="#3F3D56"/>
<path d="M575.473 316.275H550.879C550.393 316.287 549.93 316.488 549.59 316.836C549.251 317.183 549.06 317.65 549.06 318.137C549.06 318.623 549.251 319.09 549.59 319.438C549.93 319.786 550.393 319.987 550.879 319.998H575.473C575.963 319.991 576.429 319.792 576.773 319.444C577.116 319.095 577.309 318.626 577.309 318.137C577.309 317.648 577.116 317.178 576.773 316.83C576.429 316.481 575.963 316.282 575.473 316.275Z" fill="#3F3D56"/>
<path d="M575.471 323.267H550.876C550.39 323.277 549.927 323.478 549.587 323.826C549.246 324.174 549.056 324.641 549.056 325.128C549.056 325.615 549.246 326.082 549.587 326.43C549.927 326.778 550.39 326.979 550.876 326.99H575.471C575.961 326.984 576.429 326.785 576.773 326.436C577.117 326.088 577.31 325.618 577.31 325.128C577.31 324.638 577.117 324.168 576.773 323.82C576.429 323.471 575.961 323.273 575.471 323.267V323.267Z" fill="#3F3D56"/>
<path d="M575.473 330.258H550.879C550.393 330.269 549.93 330.47 549.59 330.818C549.251 331.166 549.06 331.633 549.06 332.119C549.06 332.606 549.251 333.073 549.59 333.421C549.93 333.768 550.393 333.97 550.879 333.981H575.473C575.963 333.974 576.429 333.775 576.773 333.426C577.116 333.078 577.309 332.609 577.309 332.119C577.309 331.63 577.116 331.161 576.773 330.812C576.429 330.464 575.963 330.265 575.473 330.258V330.258Z" fill="#3F3D56"/>
<path d="M1168.4 743.062C1169.14 745.223 1170.55 747.093 1172.42 748.404C1174.29 749.715 1176.53 750.399 1178.82 750.358L1223.44 749.21C1225.75 749.165 1227.97 748.376 1229.79 746.962C1231.6 745.548 1232.91 743.585 1233.52 741.365L1239.83 673.835C1242.07 674.85 1244.51 675.352 1246.97 675.302C1249.11 675.249 1251.22 674.775 1253.17 673.908C1255.12 673.04 1256.89 671.797 1258.36 670.248C1259.83 668.7 1260.98 666.876 1261.75 664.881C1262.52 662.887 1262.89 660.761 1262.83 658.624C1262.78 656.487 1262.31 654.382 1261.44 652.429C1260.57 650.475 1259.33 648.712 1257.78 647.239C1256.23 645.766 1254.41 644.613 1252.41 643.845C1250.42 643.077 1248.29 642.709 1246.16 642.762C1245.17 642.759 1244.19 642.861 1243.23 643.067C1242.19 641.936 1240.92 641.036 1239.5 640.426C1238.09 639.816 1236.56 639.509 1235.02 639.524L1166.37 641.297C1165.81 641.318 1165.24 641.388 1164.68 641.507C1163.18 641.788 1161.75 642.387 1160.49 643.266C1159.24 644.145 1158.19 645.282 1157.41 646.601C1156.63 647.92 1156.15 649.391 1155.98 650.914C1155.82 652.436 1155.99 653.976 1156.47 655.429L1168.4 743.062ZM1241.13 669.25L1245.62 653.158C1246.13 651.299 1246.15 649.338 1245.66 647.474C1245.88 647.473 1246.07 647.37 1246.29 647.369C1249.37 647.305 1252.35 648.466 1254.57 650.597C1256.8 652.728 1258.09 655.654 1258.16 658.735C1258.24 661.816 1257.08 664.8 1254.96 667.033C1252.83 669.265 1249.91 670.564 1246.83 670.645C1244.84 670.707 1242.87 670.225 1241.13 669.25Z" fill="#2F2E41"/>
<path d="M1164.68 641.506C1166.14 649.868 1182.58 655.747 1202.36 654.725C1220.54 653.887 1235.4 647.503 1238.13 639.937C1237.12 639.639 1236.07 639.499 1235.02 639.523L1166.37 641.296C1165.8 641.317 1165.24 641.387 1164.68 641.506V641.506Z" fill="#3F3D56"/>
<path d="M441.719 634.821L442.084 635.974L442.103 636.012L453.095 669.43L465.74 707.941L489.53 780.311L489.761 791.553V791.592L491.529 882.026L486.628 894.287L492.144 914.387C492.144 914.387 489.607 884.003 476.002 901.452C468.296 911.368 459.283 921.514 451.884 931.027C462.665 935.389 473.619 939.335 484.745 942.864C487.147 943.633 489.569 944.363 491.99 945.094C492.509 945.247 493.028 945.401 493.547 945.555C530.43 956.462 568.56 962.591 607.003 963.792C609.001 963.849 610.962 963.887 612.864 963.926C613.537 963.945 614.19 963.964 614.843 963.964C616.996 963.984 619.129 964.003 621.281 964.003C625.624 964.003 629.948 963.939 634.252 963.811C666.113 962.913 697.787 958.629 728.742 951.031C728.53 938.252 727.954 923.321 727.127 907.371C726.743 899.55 718.115 891.075 717.596 882.889C717.231 876.739 724.975 870.955 724.572 864.709C721.958 826.256 718.691 841.017 716.27 813.787C716.02 811.116 715.789 808.56 715.578 806.12C714.021 788.632 712.945 777.698 712.945 777.698L723.284 712.534L739.522 610.223L738.273 608.167L736.87 607.475L651.221 565.083L646.57 553.168C645.215 549.736 642.864 546.787 639.82 544.702C636.776 542.616 633.177 541.489 629.487 541.465L573.066 541.235C570.138 541.221 567.249 541.907 564.639 543.233C562.029 544.56 559.772 546.49 558.057 548.864L542.78 570.021L441.719 634.821Z" fill="#3F3D56"/>
<path d="M550.54 764.203L537.76 791.549L529.036 810.227L514.028 888.805L506.514 896.78L500.076 868.548L432.698 883.509C430.488 871.229 432.106 883.924 430.742 870.453C431.126 870.069 431.53 869.684 431.933 869.3C433.009 868.301 433.913 867.359 433.893 866.456C433.125 819.99 435.431 740.912 454.686 693.005C457.702 685.183 461.678 677.766 466.523 670.924C466.908 670.406 467.273 669.887 467.638 669.368C476.516 656.935 482.128 644.694 490.083 635.988V635.969C490.133 635.929 490.178 635.884 490.218 635.835C490.247 635.82 490.273 635.801 490.295 635.777L544.947 606.798L547.292 672.673L548.964 720.024L550.54 764.203Z" fill="#3F3D56"/>
<path d="M699.607 771.971L715.57 806.126L721.142 818.02L736.146 896.591L743.635 904.546L750.087 876.321L753.119 875.699L807.797 864.375L823.734 914.989C827.326 909.004 828.741 901.963 827.74 895.055C826.739 888.147 823.384 881.797 818.241 877.078C817.152 876.093 816.245 875.134 816.271 874.227C817.178 819.575 813.835 719.781 783.646 678.708C774.058 665.673 768.305 652.69 759.935 643.62C759.909 643.595 759.909 643.569 759.883 643.569L739.515 610.218L738.271 608.17L736.871 607.471L699.607 771.971Z" fill="#3F3D56"/>
<path d="M602.907 525.174C644.362 525.174 677.967 491.569 677.967 450.114C677.967 408.659 644.362 375.053 602.907 375.053C561.452 375.053 527.846 408.659 527.846 450.114C527.846 491.569 561.452 525.174 602.907 525.174Z" fill="#FFB6B6"/>
<path d="M704.36 397.685C703.778 397.064 703.077 396.566 702.299 396.221C701.52 395.877 700.68 395.693 699.829 395.681L700.957 392.547C701.326 391.56 701.425 390.493 701.245 389.455C701.066 388.417 700.613 387.446 699.934 386.64C699.256 385.835 698.375 385.224 697.383 384.871C696.39 384.517 695.322 384.434 694.287 384.63L690.176 385.422L690.564 382.676C690.712 381.653 690.592 380.61 690.215 379.647C689.838 378.685 689.217 377.838 688.413 377.189C687.609 376.539 686.65 376.11 685.63 375.944C684.61 375.778 683.564 375.88 682.596 376.241C681.715 376.588 680.767 376.733 679.823 376.666C678.878 376.599 677.961 376.321 677.138 375.853C676.311 375.4 675.594 374.772 675.035 374.012C674.476 373.253 674.09 372.381 673.903 371.457L672.472 364.55L672.32 364.179C665.346 352.556 651.937 344.099 635.529 341C620.924 338.22 605.948 339.635 591.512 340.966C585.784 341.505 579.316 342.112 573.925 345.413C569.343 348.243 565.469 353.904 566.26 359.614C552.026 355.251 536.764 363.96 529.2 374.944C520.238 388.016 518.773 404.39 518.537 417.192C517.897 447.481 524.146 472.26 537.067 490.858C538.01 492.206 538.246 495.019 540.116 495.962L539.729 495.339C541.817 496.383 543.94 498.068 543.148 499.87C540.874 505.059 555.984 516.531 566.631 520.321C586.054 527.244 611.878 526.655 630.038 524.162L630.678 519.866C637.231 518.973 641.846 517.272 643.143 514.61C645.434 512.656 647.388 510.904 649.09 509.287L649.107 509.27C649.14 509.236 649.208 509.186 649.241 509.152C657.445 501.285 659.349 496.804 660.208 489.982C661.033 483.294 659.568 476.506 658.069 470.391C689.637 475.276 645.636 436.767 675.049 429.321C675.386 429.217 675.729 429.133 676.076 429.069C676.935 428.866 677.795 428.664 678.62 428.428C682.599 427.348 686.409 425.721 689.94 423.594C698.161 418.591 700.873 411.953 705.118 404.474C705.731 403.409 705.988 402.176 705.851 400.955C705.715 399.734 705.193 398.589 704.36 397.685V397.685Z" fill="#2F2E41"/>
<path d="M868.384 777.319C868.368 780.267 868.334 784.394 868.199 789.498C868.182 790.205 868.165 790.93 868.149 791.671C867.93 801.054 867.711 808.921 867.357 817.664C867.34 818.27 867.323 818.86 867.289 819.466C866.818 831.662 866.077 845.863 864.796 868.352C862.421 909.893 858.277 874.063 854.116 888.634C853.914 889.358 853.695 890.218 853.493 891.228C852.863 894.895 851.8 898.475 850.326 901.891C848.119 903.205 845.845 904.469 843.605 905.732C837.22 909.287 830.735 912.706 824.199 915.958C820.526 917.777 816.837 919.562 813.131 921.281C812.542 921.55 811.969 921.82 811.396 922.072C792.418 930.851 772.859 938.314 752.858 944.41C748.95 945.589 745.058 946.734 741.116 947.796C737.006 948.941 732.896 950.019 728.735 951.03C697.782 958.629 666.108 962.915 634.248 963.816C629.953 963.95 625.623 964.001 621.277 964.001C619.121 964.001 616.998 963.984 614.842 963.967C614.185 963.967 613.528 963.95 612.871 963.934C610.968 963.883 608.997 963.849 607.009 963.799C568.566 962.6 530.435 956.468 493.554 945.555L491.987 945.1C489.562 944.359 487.153 943.635 484.744 942.86C473.626 939.339 462.67 935.397 451.878 931.034C443.641 927.716 435.499 924.156 427.452 920.354C427.379 920.334 427.31 920.3 427.25 920.253C425.565 919.478 423.864 918.67 422.18 917.844C421.961 917.726 421.725 917.608 421.489 917.49C415.205 914.425 408.989 911.213 402.841 907.855C397.669 895.979 390.392 893.704 385.877 883.26C384.563 880.157 383.614 876.913 383.047 873.591C383.047 873.557 383.03 873.524 383.03 873.473C383.502 879.74 381.026 862.355 383.014 873.406C382.997 873.203 382.98 872.984 382.963 872.732C382.913 872.125 382.845 871.384 382.744 870.458C376.966 814.042 377.337 749.523 374.827 696.359C374.658 692.922 374.484 689.632 374.305 686.487C374.254 685.443 374.187 684.415 374.119 683.405C374.237 683.101 374.372 682.781 374.523 682.478C374.556 682.391 374.595 682.306 374.641 682.225C374.691 682.121 374.747 682.02 374.81 681.922C374.844 681.872 374.894 681.804 374.928 681.754C374.952 681.696 374.98 681.64 375.012 681.585C375.164 681.349 375.332 681.097 375.517 680.861C375.602 680.76 375.669 680.676 375.753 680.591C375.811 680.505 375.879 680.426 375.955 680.356C376.007 680.275 376.069 680.201 376.141 680.137C376.208 680.069 376.275 679.985 376.36 679.901C376.396 679.848 376.441 679.802 376.494 679.766C376.628 679.613 376.774 679.472 376.932 679.345C377.533 678.792 378.175 678.285 378.853 677.829C379.088 677.677 379.341 677.526 379.577 677.357C381.275 676.342 383.062 675.484 384.917 674.797C385.557 674.561 386.197 674.342 386.888 674.106C387.141 674.039 387.377 673.954 387.629 673.87C388 673.752 388.37 673.634 388.758 673.55C390.678 672.977 392.75 672.489 394.991 672.034C395.26 671.983 395.547 671.933 395.833 671.865C396.237 671.781 396.659 671.714 397.08 671.646C397.652 671.545 398.242 671.444 398.832 671.343C403.835 670.552 409.512 669.962 415.778 669.575C416.368 669.541 416.957 669.507 417.547 669.473C418.238 669.44 418.928 669.406 419.636 669.372C420.225 669.339 420.832 669.322 421.438 669.305C422.028 669.271 422.634 669.254 423.258 669.238C424.959 669.187 426.711 669.136 428.497 669.103C433.584 669.002 438.941 669.035 444.567 669.153C447.178 669.221 449.84 669.288 452.569 669.406C452.754 669.406 452.923 669.423 453.091 669.423C455.466 669.507 457.858 669.608 460.318 669.743C462.036 669.827 463.771 669.911 465.506 670.013C467.14 670.114 468.791 670.215 470.459 670.333C471.756 670.4 473.053 670.501 474.367 670.585C475.479 670.669 476.591 670.754 477.702 670.821L479.218 670.922C480.044 670.99 480.869 671.04 481.712 671.124C483.565 671.276 485.418 671.428 487.304 671.579C489.174 671.748 491.078 671.916 492.981 672.084C494.885 672.253 496.805 672.438 498.726 672.624C498.928 672.64 499.113 672.657 499.298 672.674C501.05 672.859 502.802 673.028 504.571 673.213C504.975 673.247 505.396 673.281 505.801 673.331C507.487 673.5 509.206 673.699 510.908 673.88C511.431 673.936 511.95 673.991 512.474 674.048C513.807 674.193 515.121 674.319 516.464 674.477C518.233 674.679 520.035 674.864 521.787 675.1C523.152 675.251 524.516 675.403 525.881 675.572C528.02 675.824 530.193 676.094 532.366 676.38C533.191 676.481 534.017 676.582 534.842 676.7C541.042 677.475 547.308 678.334 553.676 679.227C563.328 680.591 573.132 682.074 583.004 683.674C592.892 685.275 602.837 686.965 612.837 688.745C615.364 689.2 617.891 689.654 620.435 690.126C621.58 690.345 622.726 690.564 623.871 690.783C625.825 691.137 627.779 691.507 629.733 691.878C631.687 692.249 633.642 692.619 635.596 693.007C637.92 693.461 640.262 693.916 642.586 694.371C657.899 697.403 673.127 700.638 687.985 704.024C690.428 704.579 692.871 705.152 695.296 705.708C700.148 706.837 704.954 707.982 709.716 709.145C711.03 709.448 712.327 709.768 713.624 710.088C716.859 710.897 720.093 711.705 723.277 712.531L723.833 712.682C726.174 713.255 728.465 713.845 730.756 714.451C736.164 715.866 741.481 717.298 746.709 718.747C750.179 719.707 753.61 720.678 757.002 721.661C762.072 723.126 767.041 724.609 771.876 726.108C773.072 726.479 774.268 726.849 775.447 727.203C778.985 728.298 782.472 729.41 785.858 730.522C788.553 731.398 791.181 732.29 793.775 733.183C796.37 734.076 798.913 734.969 801.406 735.862C803.007 736.434 804.59 737.041 806.174 737.614C808.448 738.456 810.688 739.298 812.878 740.14C813.552 740.393 814.209 740.663 814.866 740.915C815.287 741.101 815.691 741.252 816.096 741.421C816.887 741.741 817.696 742.044 818.471 742.364C819.263 742.667 820.038 742.987 820.812 743.324C821.57 743.627 822.345 743.947 823.087 744.268C823.845 744.571 824.586 744.891 825.327 745.228C825.95 745.48 826.557 745.75 827.146 746.02C828.342 746.542 829.539 747.064 830.701 747.603C831.274 747.873 831.846 748.125 832.419 748.395L833.733 749.001C833.918 749.102 834.104 749.187 834.289 749.271C834.71 749.473 835.148 749.692 835.569 749.894C836.546 750.349 837.506 750.837 838.45 751.292C839.713 751.932 840.943 752.572 842.122 753.196C843.318 753.836 844.48 754.476 845.592 755.099C845.778 755.2 845.946 755.301 846.131 755.403C846.384 755.537 846.637 755.689 846.889 755.824C847.749 756.312 848.574 756.818 849.399 757.306C851.017 758.3 852.549 759.277 853.981 760.254C854.301 760.473 854.605 760.692 854.925 760.894C855.986 761.652 856.997 762.393 857.94 763.151C857.94 763.168 857.94 763.168 857.957 763.168C858.277 763.404 858.58 763.657 858.883 763.893C859.136 764.128 859.406 764.331 859.658 764.566C860.534 765.324 861.343 766.049 862.084 766.79C862.333 767.019 862.569 767.261 862.792 767.514C862.89 767.596 862.98 767.686 863.061 767.784C863.398 768.121 863.701 768.458 863.988 768.795C864.032 768.841 864.072 768.892 864.106 768.946C864.51 769.418 864.881 769.89 865.234 770.361C865.403 770.597 865.588 770.833 865.74 771.069C865.942 771.355 866.144 771.658 866.312 771.945C866.464 772.181 866.599 772.433 866.733 772.669C867.091 773.276 867.395 773.913 867.643 774.573C867.833 775.02 867.985 775.482 868.098 775.954C868.226 776.401 868.321 776.858 868.384 777.319V777.319Z" fill="#2F2E41"/>
<path opacity="0.2" d="M868.386 777.317C868.369 780.265 868.335 784.393 868.201 789.497C868.184 790.204 868.15 790.929 868.133 791.67C867.965 798.829 867.712 807.673 867.358 817.662C867.341 818.269 867.325 818.858 867.291 819.465C866.819 831.661 866.078 845.862 864.798 868.351C862.422 909.892 858.278 874.061 854.118 888.633C842.562 881.524 829.894 874.078 816.35 866.43C813.907 865.049 811.442 863.662 808.955 862.27C781.867 847.159 751.612 831.324 720.027 815.641C718.78 815.018 717.517 814.394 716.27 813.788C643.919 778.025 564.947 743.239 500.967 720.026C488.62 715.545 476.828 711.502 465.743 707.947C442.395 700.485 422.214 695.263 406.683 693.005C390.511 690.647 379.343 691.489 374.828 696.358C374.659 692.921 374.485 689.631 374.306 686.486C374.238 685.442 374.171 684.414 374.104 683.403C374.207 683.126 374.343 682.861 374.473 682.594C374.492 682.556 374.505 682.515 374.525 682.477C374.557 682.39 374.596 682.305 374.643 682.224C374.692 682.12 374.749 682.018 374.811 681.921C374.866 681.802 374.934 681.689 375.013 681.584C375.165 681.348 375.333 681.095 375.519 680.86C375.655 680.683 375.801 680.514 375.957 680.354C376.008 680.273 376.071 680.2 376.142 680.135C376.209 680.068 376.277 679.984 376.361 679.899C376.397 679.846 376.443 679.801 376.496 679.765C376.629 679.612 376.775 679.471 376.934 679.344C377.535 678.791 378.177 678.284 378.854 677.827C379.09 677.676 379.342 677.524 379.578 677.356C381.276 676.34 383.064 675.483 384.918 674.795C385.559 674.559 386.199 674.34 386.889 674.105C387.142 674.037 387.378 673.953 387.63 673.869C388.001 673.751 388.372 673.633 388.759 673.549C390.68 672.976 392.752 672.487 394.992 672.033C395.666 671.898 396.373 671.763 397.081 671.645C397.654 671.544 398.243 671.443 398.833 671.342C403.836 670.55 409.513 669.961 415.779 669.573C416.369 669.539 416.959 669.506 417.548 669.472C418.239 669.438 418.93 669.405 419.637 669.371C420.227 669.337 420.833 669.32 421.44 669.304C422.029 669.27 422.636 669.253 423.259 669.236C424.96 669.186 426.712 669.135 428.498 669.101C433.585 669.017 438.942 669.051 444.569 669.169C447.18 669.219 449.841 669.304 452.57 669.422C452.739 669.422 452.924 669.438 453.092 669.438C455.468 669.506 457.877 669.624 460.319 669.742C462.037 669.826 463.772 669.91 465.507 670.011C467.141 670.112 468.792 670.213 470.46 670.331C471.757 670.399 473.054 670.5 474.368 670.584C475.48 670.668 476.592 670.752 477.704 670.82C479.034 670.921 480.365 671.022 481.713 671.123C483.566 671.275 485.419 671.426 487.306 671.578C489.175 671.746 491.079 671.915 492.983 672.083C494.886 672.252 496.806 672.437 498.727 672.622C498.929 672.639 499.114 672.656 499.3 672.673C501.052 672.858 502.804 673.027 504.572 673.212C514.376 674.206 524.467 675.368 534.844 676.699C541.043 677.491 547.321 678.338 553.677 679.242C563.33 680.607 573.134 682.089 583.005 683.673C592.894 685.273 602.838 686.963 612.839 688.743C615.365 689.198 617.892 689.653 620.436 690.125C623.536 690.697 626.635 691.281 629.735 691.877C631.689 692.247 633.643 692.618 635.597 693.005C637.922 693.46 640.263 693.915 642.588 694.37C657.901 697.402 673.129 700.636 687.987 704.022C690.429 704.578 692.872 705.151 695.298 705.707C700.149 706.836 704.956 707.981 709.717 709.143C711.031 709.463 712.329 709.783 713.626 710.104C716.877 710.912 720.094 711.721 723.278 712.529V712.546C723.463 712.58 723.649 712.63 723.834 712.681C726.159 713.271 728.467 713.86 730.758 714.467C736.165 715.882 741.483 717.308 746.71 718.745C750.18 719.722 753.617 720.683 757.003 721.66C762.073 723.142 767.043 724.624 771.878 726.107C773.074 726.477 774.27 726.848 775.449 727.202C778.986 728.314 782.457 729.42 785.859 730.52C788.555 731.396 791.183 732.289 793.777 733.182C796.371 734.075 798.915 734.968 801.408 735.86C803.025 736.433 804.608 737.023 806.175 737.595C808.466 738.438 810.69 739.28 812.88 740.139C813.553 740.392 814.21 740.661 814.867 740.914C816.097 741.386 817.293 741.874 818.472 742.363C819.264 742.666 820.039 742.986 820.814 743.323C821.572 743.626 822.347 743.946 823.088 744.266C823.846 744.57 824.587 744.89 825.328 745.227C825.952 745.479 826.558 745.749 827.148 746.018C828.344 746.54 829.54 747.063 830.702 747.602C831.275 747.871 831.848 748.124 832.42 748.394L833.734 749C833.92 749.101 834.105 749.185 834.29 749.269C835.722 749.943 837.103 750.617 838.451 751.291C839.715 751.931 840.944 752.571 842.124 753.194C843.522 753.936 844.852 754.66 846.133 755.401C846.385 755.536 846.638 755.688 846.891 755.822C847.75 756.311 848.575 756.816 849.401 757.305C851.018 758.299 852.551 759.276 853.983 760.253C855.398 761.23 856.712 762.19 857.941 763.15C857.941 763.167 857.941 763.167 857.958 763.167C858.548 763.639 859.121 764.11 859.66 764.565C860.536 765.323 861.344 766.047 862.085 766.789C862.334 767.018 862.57 767.259 862.793 767.513C862.891 767.594 862.981 767.685 863.063 767.783C863.416 768.17 863.77 768.558 864.107 768.945C864.511 769.417 864.882 769.888 865.236 770.36C865.404 770.596 865.589 770.832 865.741 771.067C865.943 771.354 866.145 771.657 866.314 771.943C866.465 772.179 866.6 772.432 866.735 772.668C867.092 773.275 867.397 773.912 867.645 774.571C867.829 775.02 867.981 775.482 868.099 775.953C868.227 776.4 868.323 776.856 868.386 777.317V777.317Z" fill="black"/>
<g clip-path="url(#clip0_824_995)">
<path d="M441.76 501.293L449.48 504.7C449.492 504.673 449.504 504.645 449.516 504.617L441.76 501.293ZM444.235 514.944L438.203 520.845C438.225 520.867 438.247 520.889 438.269 520.911L444.235 514.944ZM444.685 515.394L438.719 521.361L438.722 521.364L444.685 515.394ZM444.685 536.621L438.722 530.651L438.715 530.657L444.685 536.621ZM423.459 536.621L429.429 530.657L429.425 530.654L423.459 536.621ZM423.009 536.171L428.975 530.204C428.953 530.182 428.931 530.16 428.909 530.139L423.009 536.171ZM409.358 533.696L412.682 541.451C412.709 541.439 412.737 541.427 412.765 541.415L409.358 533.696ZM401.857 545.021L393.419 544.988C393.419 544.999 393.419 545.01 393.419 545.021L401.857 545.021ZM371.855 545.621H380.293C380.293 545.556 380.292 545.49 380.291 545.424L371.855 545.621ZM363.754 534.296L360.347 542.015C360.51 542.087 360.675 542.154 360.842 542.215L363.754 534.296ZM350.103 536.771L344.203 530.739C344.181 530.76 344.159 530.782 344.137 530.804L350.103 536.771ZM349.653 537.221L343.687 531.254L343.683 531.257L349.653 537.221ZM328.427 537.221L334.397 531.257L334.39 531.251L328.427 537.221ZM324.027 526.608H332.465H324.027ZM328.427 515.994L334.39 521.964L334.393 521.961L328.427 515.994ZM328.877 515.544L334.843 521.511C334.865 521.489 334.887 521.467 334.909 521.445L328.877 515.544ZM331.352 501.893L323.596 505.217C323.608 505.245 323.62 505.273 323.632 505.3L331.352 501.893ZM320.026 494.393L320.06 485.955C320.049 485.955 320.037 485.955 320.026 485.955V494.393ZM303.75 479.392H295.312H303.75ZM318.751 464.39V472.829V464.39ZM319.426 464.39V472.829C319.492 472.829 319.558 472.828 319.623 472.826L319.426 464.39ZM330.752 456.29L323.032 452.883C322.96 453.045 322.894 453.21 322.832 453.377L330.752 456.29ZM328.277 442.639L334.309 436.738C334.287 436.716 334.265 436.694 334.243 436.672L328.277 442.639ZM327.827 442.189L333.793 436.222L333.79 436.219L327.827 442.189ZM327.827 420.962L333.79 426.932L333.797 426.926L327.827 420.962ZM349.053 420.962L343.083 426.926L343.087 426.929L349.053 420.962ZM349.503 421.412L343.537 427.379C343.559 427.401 343.581 427.423 343.603 427.444L349.503 421.412ZM363.154 423.887V415.449C361.981 415.449 360.821 415.694 359.747 416.168L363.154 423.887ZM363.754 423.887V432.326C364.897 432.326 366.028 432.093 367.078 431.643L363.754 423.887ZM371.255 412.562L379.693 412.595C379.693 412.584 379.693 412.573 379.693 412.562L371.255 412.562ZM386.256 396.285V387.847V396.285ZM401.257 411.962H392.819C392.819 411.973 392.819 411.984 392.819 411.995L401.257 411.962ZM408.758 423.287L412.165 415.568C412.137 415.556 412.109 415.544 412.082 415.532L408.758 423.287ZM422.409 420.812L428.309 426.844C428.331 426.823 428.353 426.801 428.375 426.779L422.409 420.812ZM422.859 420.362L428.825 426.329L428.829 426.326L422.859 420.362ZM433.472 415.963V424.401V415.963ZM444.085 420.362L438.115 426.326L438.122 426.332L444.085 420.362ZM444.085 441.589L438.122 435.619L438.119 435.622L444.085 441.589ZM443.635 442.039L437.668 436.072C437.647 436.094 437.625 436.116 437.603 436.138L443.635 442.039ZM441.16 455.69H449.598C449.598 454.517 449.353 453.356 448.88 452.283L441.16 455.69ZM441.16 456.29H432.722C432.722 457.433 432.954 458.564 433.404 459.614L441.16 456.29ZM452.486 463.79L452.452 472.228C452.463 472.229 452.475 472.229 452.486 472.229V463.79ZM453.086 493.793V485.355C453.075 485.355 453.063 485.355 453.052 485.355L453.086 493.793ZM400.319 478.792C400.319 486.559 394.023 492.855 386.256 492.855V509.731C403.344 509.731 417.196 495.879 417.196 478.792H400.319ZM386.256 492.855C378.489 492.855 372.192 486.559 372.192 478.792H355.316C355.316 495.879 369.168 509.731 386.256 509.731V492.855ZM372.192 478.792C372.192 471.024 378.489 464.728 386.256 464.728V447.852C369.168 447.852 355.316 461.704 355.316 478.792H372.192ZM386.256 464.728C394.023 464.728 400.319 471.024 400.319 478.792H417.196C417.196 461.704 403.344 447.852 386.256 447.852V464.728ZM434.04 497.886C432.361 501.691 431.86 505.911 432.602 510.004L449.208 506.993C449.067 506.218 449.162 505.42 449.48 504.7L434.04 497.886ZM432.602 510.004C433.344 514.096 435.295 517.872 438.203 520.845L450.267 509.044C449.717 508.481 449.348 507.767 449.208 506.993L432.602 510.004ZM438.269 520.911L438.719 521.361L450.652 509.427L450.202 508.977L438.269 520.911ZM438.722 521.364C439.332 521.974 439.816 522.697 440.146 523.494L455.736 517.032C454.557 514.186 452.828 511.601 450.649 509.424L438.722 521.364ZM440.146 523.494C440.477 524.291 440.647 525.145 440.647 526.007H457.523C457.523 522.927 456.916 519.877 455.736 517.032L440.146 523.494ZM440.647 526.007C440.647 526.87 440.477 527.724 440.146 528.521L455.736 534.983C456.916 532.138 457.523 529.088 457.523 526.007H440.647ZM440.146 528.521C439.816 529.317 439.332 530.041 438.722 530.651L450.649 542.591C452.828 540.414 454.557 537.829 455.736 534.983L440.146 528.521ZM438.715 530.657C438.106 531.268 437.382 531.752 436.585 532.082L443.048 547.672C445.893 546.492 448.478 544.763 450.655 542.584L438.715 530.657ZM436.585 532.082C435.788 532.412 434.934 532.582 434.072 532.582V549.459C437.152 549.459 440.202 548.851 443.048 547.672L436.585 532.082ZM434.072 532.582C433.209 532.582 432.355 532.412 431.559 532.082L425.096 547.672C427.942 548.851 430.992 549.459 434.072 549.459V532.582ZM431.559 532.082C430.762 531.752 430.038 531.268 429.429 530.657L417.489 542.584C419.666 544.763 422.251 546.492 425.096 547.672L431.559 532.082ZM429.425 530.654L428.975 530.204L417.042 542.137L417.492 542.587L429.425 530.654ZM428.909 530.139C425.936 527.231 422.16 525.28 418.068 524.538L415.057 541.143C415.831 541.284 416.546 541.653 417.108 542.203L428.909 530.139ZM418.068 524.538C413.976 523.796 409.755 524.297 405.951 525.976L412.765 541.415C413.484 541.098 414.283 541.003 415.057 541.143L418.068 524.538ZM406.034 525.94C402.303 527.539 399.121 530.194 396.879 533.578L410.95 542.896C411.374 542.256 411.976 541.754 412.682 541.451L406.034 525.94ZM396.879 533.578C394.638 536.963 393.435 540.929 393.419 544.988L410.295 545.055C410.298 544.287 410.526 543.537 410.95 542.896L396.879 533.578ZM393.419 545.021V546.296H410.295V545.021H393.419ZM393.419 546.296C393.419 548.037 392.727 549.706 391.497 550.937L403.43 562.871C407.826 558.475 410.295 552.513 410.295 546.296H393.419ZM391.497 550.937C390.266 552.168 388.597 552.859 386.856 552.859V569.736C393.072 569.736 399.034 567.266 403.43 562.871L391.497 550.937ZM386.856 552.859C385.115 552.859 383.446 552.168 382.215 550.937L370.282 562.871C374.678 567.266 380.639 569.736 386.856 569.736V552.859ZM382.215 550.937C380.984 549.706 380.293 548.037 380.293 546.296H363.417C363.417 552.513 365.886 558.475 370.282 562.871L382.215 550.937ZM380.293 546.296V545.621H363.417V546.296H380.293ZM380.291 545.424C380.193 541.249 378.842 537.199 376.412 533.802L362.685 543.62C363.145 544.263 363.401 545.029 363.419 545.819L380.291 545.424ZM376.412 533.802C373.982 530.405 370.587 527.818 366.667 526.376L360.842 542.215C361.583 542.488 362.226 542.977 362.685 543.62L376.412 533.802ZM367.161 526.576C363.357 524.897 359.136 524.396 355.044 525.138L358.055 541.743C358.829 541.603 359.627 541.698 360.347 542.015L367.161 526.576ZM355.044 525.138C350.952 525.88 347.176 527.831 344.203 530.739L356.004 542.803C356.566 542.253 357.281 541.884 358.055 541.743L355.044 525.138ZM344.137 530.804L343.687 531.254L355.62 543.187L356.07 542.737L344.137 530.804ZM343.683 531.257C343.074 531.868 342.35 532.352 341.553 532.682L348.016 548.272C350.861 547.092 353.446 545.363 355.623 543.184L343.683 531.257ZM341.553 532.682C340.756 533.012 339.902 533.182 339.04 533.182V550.059C342.12 550.059 345.17 549.451 348.016 548.272L341.553 532.682ZM339.04 533.182C338.177 533.182 337.323 533.012 336.527 532.682L330.064 548.272C332.91 549.451 335.96 550.059 339.04 550.059V533.182ZM336.527 532.682C335.73 532.352 335.006 531.868 334.397 531.257L322.457 543.184C324.634 545.363 327.219 547.092 330.064 548.272L336.527 532.682ZM334.39 531.251C333.78 530.641 333.296 529.918 332.965 529.121L317.376 535.583C318.555 538.429 320.284 541.014 322.463 543.191L334.39 531.251ZM332.965 529.121C332.635 528.324 332.465 527.47 332.465 526.608H315.589C315.589 529.688 316.196 532.738 317.376 535.583L332.965 529.121ZM332.465 526.608C332.465 525.745 332.635 524.891 332.965 524.094L317.376 517.632C316.196 520.477 315.589 523.527 315.589 526.608H332.465ZM332.965 524.094C333.296 523.298 333.78 522.574 334.39 521.964L322.463 510.024C320.284 512.201 318.555 514.786 317.376 517.632L332.965 524.094ZM334.393 521.961L334.843 521.511L322.91 509.577L322.46 510.028L334.393 521.961ZM334.909 521.445C337.817 518.472 339.768 514.696 340.51 510.604L323.904 507.593C323.764 508.367 323.395 509.081 322.845 509.644L334.909 521.445ZM340.51 510.604C341.252 506.511 340.751 502.291 339.072 498.486L323.632 505.3C323.95 506.02 324.045 506.819 323.904 507.593L340.51 510.604ZM339.108 498.569C337.509 494.838 334.854 491.656 331.469 489.415L322.151 503.485C322.791 503.909 323.294 504.511 323.596 505.217L339.108 498.569ZM331.469 489.415C328.085 487.174 324.119 485.971 320.06 485.955L319.992 502.831C320.76 502.834 321.511 503.061 322.151 503.485L331.469 489.415ZM320.026 485.955H318.751V502.831H320.026V485.955ZM318.751 485.955C317.01 485.955 315.341 485.263 314.11 484.032L302.177 495.966C306.573 500.361 312.535 502.831 318.751 502.831V485.955ZM314.11 484.032C312.879 482.801 312.188 481.132 312.188 479.392H295.312C295.312 485.608 297.781 491.57 302.177 495.966L314.11 484.032ZM312.188 479.392C312.188 477.651 312.879 475.982 314.11 474.751L302.177 462.818C297.781 467.213 295.312 473.175 295.312 479.392H312.188ZM314.11 474.751C315.341 473.52 317.01 472.829 318.751 472.829L318.751 455.952C312.535 455.952 306.573 458.422 302.177 462.818L314.11 474.751ZM318.751 472.829H319.426V455.952H318.751V472.829ZM319.623 472.826C323.799 472.729 327.848 471.377 331.245 468.947L321.427 455.221C320.785 455.68 320.019 455.936 319.229 455.955L319.623 472.826ZM331.245 468.947C334.642 466.518 337.23 463.122 338.671 459.203L322.832 453.377C322.56 454.119 322.07 454.761 321.427 455.221L331.245 468.947ZM338.472 459.697C340.151 455.892 340.652 451.672 339.91 447.579L323.304 450.59C323.445 451.365 323.35 452.163 323.032 452.883L338.472 459.697ZM339.91 447.579C339.168 443.487 337.217 439.711 334.309 436.738L322.245 448.539C322.795 449.102 323.164 449.816 323.304 450.59L339.91 447.579ZM334.243 436.672L333.793 436.222L321.86 448.155L322.31 448.606L334.243 436.672ZM333.79 436.219C333.18 435.609 332.696 434.886 332.365 434.089L316.776 440.551C317.955 443.397 319.684 445.982 321.863 448.159L333.79 436.219ZM332.365 434.089C332.035 433.292 331.865 432.438 331.865 431.576H314.989C314.989 434.656 315.596 437.706 316.776 440.551L332.365 434.089ZM331.865 431.576C331.865 430.713 332.035 429.859 332.365 429.062L316.776 422.6C315.596 425.445 314.989 428.495 314.989 431.576H331.865ZM332.365 429.062C332.696 428.266 333.18 427.542 333.79 426.932L321.863 414.992C319.684 417.169 317.955 419.754 316.776 422.6L332.365 429.062ZM333.797 426.926C334.406 426.315 335.13 425.831 335.927 425.501L329.464 409.911C326.619 411.091 324.034 412.82 321.857 414.999L333.797 426.926ZM335.927 425.501C336.723 425.171 337.577 425.001 338.44 425.001V408.125C335.36 408.125 332.31 408.732 329.464 409.911L335.927 425.501ZM338.44 425.001C339.302 425.001 340.156 425.171 340.953 425.501L347.416 409.911C344.57 408.732 341.52 408.125 338.44 408.125V425.001ZM340.953 425.501C341.75 425.831 342.474 426.315 343.083 426.926L355.023 414.999C352.846 412.82 350.261 411.091 347.416 409.911L340.953 425.501ZM343.087 426.929L343.537 427.379L355.47 415.446L355.02 414.996L343.087 426.929ZM343.603 427.444C346.576 430.353 350.352 432.303 354.444 433.045L357.455 416.44C356.681 416.299 355.966 415.93 355.404 415.38L343.603 427.444ZM354.444 433.045C358.536 433.787 362.757 433.286 366.561 431.607L359.747 416.168C359.027 416.485 358.229 416.58 357.455 416.44L354.444 433.045ZM363.154 432.326H363.754V415.449H363.154V432.326ZM367.078 431.643C370.809 430.044 373.991 427.389 376.233 424.005L362.162 414.687C361.738 415.327 361.136 415.829 360.43 416.132L367.078 431.643ZM376.233 424.005C378.474 420.62 379.677 416.655 379.693 412.595L362.817 412.528C362.814 413.296 362.586 414.046 362.162 414.687L376.233 424.005ZM379.693 412.562V411.287H362.817V412.562H379.693ZM379.693 411.287C379.693 409.546 380.384 407.877 381.615 406.646L369.682 394.713C365.286 399.108 362.817 405.07 362.817 411.287H379.693ZM381.615 406.646C382.846 405.415 384.515 404.724 386.256 404.724V387.847C380.039 387.847 374.078 390.317 369.682 394.713L381.615 406.646ZM386.256 404.724C387.997 404.724 389.666 405.415 390.897 406.646L402.83 394.713C398.434 390.317 392.472 387.847 386.256 387.847V404.724ZM390.897 406.646C392.127 407.877 392.819 409.546 392.819 411.287H409.695C409.695 405.07 407.226 399.108 402.83 394.713L390.897 406.646ZM392.819 411.287V411.962H409.695V411.287H392.819ZM392.819 411.995C392.835 416.054 394.038 420.02 396.279 423.405L410.35 414.087C409.926 413.446 409.698 412.696 409.695 411.928L392.819 411.995ZM396.279 423.405C398.521 426.789 401.703 429.444 405.434 431.043L412.082 415.532C411.376 415.229 410.774 414.727 410.35 414.087L396.279 423.405ZM405.351 431.007C409.155 432.686 413.376 433.187 417.468 432.445L414.457 415.84C413.683 415.98 412.884 415.885 412.165 415.568L405.351 431.007ZM417.468 432.445C421.56 431.703 425.336 429.752 428.309 426.844L416.508 414.78C415.946 415.33 415.231 415.699 414.457 415.84L417.468 432.445ZM428.375 426.779L428.825 426.329L416.892 414.396L416.442 414.846L428.375 426.779ZM428.829 426.326C429.438 425.715 430.162 425.231 430.959 424.901L424.496 409.311C421.651 410.491 419.066 412.22 416.889 414.399L428.829 426.326ZM430.959 424.901C431.755 424.571 432.609 424.401 433.472 424.401V407.524C430.392 407.524 427.342 408.132 424.496 409.311L430.959 424.901ZM433.472 424.401C434.334 424.401 435.188 424.571 435.985 424.901L442.448 409.311C439.602 408.132 436.552 407.524 433.472 407.524V424.401ZM435.985 424.901C436.782 425.231 437.506 425.715 438.115 426.326L450.055 414.399C447.878 412.22 445.293 410.491 442.448 409.311L435.985 424.901ZM438.122 426.332C438.732 426.942 439.216 427.666 439.546 428.462L455.136 422C453.957 419.154 452.228 416.569 450.048 414.392L438.122 426.332ZM439.546 428.462C439.877 429.259 440.047 430.113 440.047 430.976H456.923C456.923 427.895 456.316 424.845 455.136 422L439.546 428.462ZM440.047 430.976C440.047 431.838 439.877 432.692 439.546 433.489L455.136 439.951C456.316 437.106 456.923 434.056 456.923 430.976H440.047ZM439.546 433.489C439.216 434.285 438.732 435.009 438.122 435.619L450.048 447.559C452.228 445.382 453.957 442.797 455.136 439.951L439.546 433.489ZM438.119 435.622L437.668 436.072L449.602 448.005L450.052 447.555L438.119 435.622ZM437.603 436.138C434.695 439.111 432.744 442.887 432.002 446.979L448.608 449.99C448.748 449.216 449.117 448.502 449.667 447.939L437.603 436.138ZM432.002 446.979C431.26 451.072 431.761 455.292 433.44 459.097L448.88 452.283C448.562 451.563 448.467 450.765 448.608 449.99L432.002 446.979ZM432.722 455.69V456.29H449.598V455.69H432.722ZM433.404 459.614C435.003 463.345 437.658 466.527 441.043 468.768L450.361 454.698C449.721 454.274 449.218 453.672 448.916 452.966L433.404 459.614ZM441.043 468.768C444.427 471.01 448.393 472.212 452.452 472.228L452.519 455.352C451.751 455.349 451.001 455.122 450.361 454.698L441.043 468.768ZM452.486 472.229H453.761V455.352H452.486V472.229ZM453.761 472.229C455.501 472.229 457.171 472.92 458.402 474.151L470.335 462.217C465.939 457.822 459.977 455.352 453.761 455.352V472.229ZM458.402 474.151C459.632 475.382 460.324 477.051 460.324 478.792H477.2C477.2 472.575 474.731 466.613 470.335 462.217L458.402 474.151ZM460.324 478.792C460.324 480.532 459.632 482.201 458.402 483.432L470.335 495.366C474.731 490.97 477.2 485.008 477.2 478.792H460.324ZM458.402 483.432C457.171 484.663 455.501 485.355 453.761 485.355V502.231C459.977 502.231 465.939 499.761 470.335 495.366L458.402 483.432ZM453.761 485.355H453.086V502.231H453.761V485.355ZM453.052 485.355C448.993 485.371 445.027 486.574 441.643 488.815L450.961 502.885C451.601 502.461 452.352 502.234 453.119 502.231L453.052 485.355ZM441.643 488.815C438.258 491.056 435.603 494.238 434.004 497.969L449.516 504.617C449.818 503.911 450.321 503.309 450.961 502.885L441.643 488.815Z" fill="#00BFA6"/>
</g>
<path d="M1201 748H1049V772H1201V748Z" fill="#FBFBFB"/>
<path d="M1129.23 756.007C1132.43 758.219 1136.09 759.7 1139.93 760.347C1143.77 760.995 1147.7 760.792 1151.46 759.754C1155.21 758.715 1158.69 756.866 1161.65 754.337C1164.62 751.808 1166.99 748.66 1168.6 745.115L1262.87 753.932L1239.73 710.515L1153.76 708.798C1147.62 706.481 1140.85 706.496 1134.72 708.838C1128.6 711.18 1123.55 715.688 1120.52 721.507C1117.5 727.326 1116.72 734.052 1118.32 740.411C1119.92 746.769 1123.8 752.319 1129.23 756.007V756.007Z" fill="#FFB6B6"/>
<path d="M1224.81 753.038L1355.26 767.663L1355.71 767.087C1356.57 765.988 1441.93 656.726 1456.27 630.716C1465.1 615.09 1468.31 596.915 1465.38 579.211L1465.28 578.778L1464.94 578.491C1457.99 572.663 1449.25 569.378 1440.18 569.18C1431.11 568.981 1422.24 571.879 1415.04 577.396C1380.41 604.22 1352.48 638.727 1333.47 678.193L1322.68 700.655L1224.81 710.307V753.038Z" fill="#00BFA6"/>
<path d="M1118.98 1058.62L1093.85 1117.14C1090.24 1117.39 1086.63 1117.6 1083.02 1117.75C1080.16 1117.9 1077.31 1118.01 1074.44 1118.09L1073.47 1118.39L1072.67 1118.14C1068.81 1118.26 1064.94 1118.34 1061.05 1118.37C1059.41 1118.38 1057.76 1118.39 1056.11 1118.39C1055.33 1118.39 1054.56 1118.39 1053.79 1118.38L1055.45 1112.66L1057.42 1105.89L1065.22 1079.08L1076.47 1040.37L1093.22 1047.55L1118.98 1058.62Z" fill="#FFB6B6"/>
<path d="M1304.79 1077.07C1291.88 1083.3 1275.3 1079.33 1260.54 1080.05L1247.4 1057.95L1289.76 1039.35L1304.79 1077.07Z" fill="#FFB6B6"/>
<path d="M1389.44 962.397V1008.95C1381.63 1014.72 1373.66 1020.28 1365.54 1025.64V962.397H1389.44Z" fill="#CACACA"/>
<path d="M1473.4 932.911C1466.69 940.362 1459.77 947.622 1452.65 954.691C1435.9 971.373 1418.12 986.983 1399.4 1001.43H1292.84C1290.01 1001.43 1287.21 1000.82 1284.64 999.657C1282.06 998.489 1279.76 996.785 1277.9 994.657L1277.88 994.617C1275.66 992.11 1274.12 989.076 1273.4 985.804L1273.38 985.777C1273.08 984.373 1272.93 982.941 1272.93 981.504V952.834C1272.93 947.554 1275.03 942.49 1278.76 938.755C1282.5 935.02 1287.56 932.918 1292.84 932.911H1473.4Z" fill="#3F3D56"/>
<path d="M1517.31 821.009L1505.76 870.497C1506.89 877.667 1507.27 884.935 1506.88 892.183C1501.41 899.527 1495.76 906.725 1489.94 913.775C1484.57 920.279 1479.06 926.657 1473.41 932.911C1466.69 940.362 1459.77 947.622 1452.65 954.691C1434.12 960.513 1412.27 962.89 1389.44 963.05C1381.56 963.117 1373.56 962.903 1365.54 962.476C1332.99 960.766 1300.08 955.545 1273.12 950.124C1265.99 948.708 1259.28 947.266 1253.11 945.864C1241.43 943.233 1231.65 940.776 1224.58 938.907C1216.61 936.824 1212.07 935.475 1212.07 935.475L1181.74 986.258L1154.2 1032.35L1118.72 1077.64C1115.33 1077.94 1111.94 1078.2 1108.54 1078.41C1104.93 1078.66 1101.32 1078.87 1097.71 1079.02C1094.85 1079.17 1092 1079.28 1089.13 1079.36L1088.16 1079.67L1087.36 1079.41L1074.48 1075.31L1070.14 1073.94L1054.53 1068.97C1054.53 1068.97 1058.02 1057.99 1064.12 1039.69C1066.37 1032.97 1082.26 983.307 1098.88 939.948C1103.81 927.076 1108.91 914.016 1114.16 901.023C1118.46 890.353 1122.84 879.724 1127.27 869.242C1134.98 851.067 1172.2 841.266 1216.04 836.125C1218.27 835.871 1220.52 835.617 1222.77 835.377C1245.11 833.027 1268.82 831.812 1290.98 831.251C1302.08 830.97 1312.79 830.864 1322.75 830.85C1325.97 830.85 1329.1 830.859 1332.14 830.877H1332.15C1340.37 830.917 1347.92 831.037 1354.57 831.171C1355.87 831.197 1357.12 831.238 1358.35 831.264H1358.37C1359.19 831.278 1360.01 831.304 1360.81 831.318C1375.35 831.692 1384.27 832.146 1384.27 832.146L1387.73 805.011L1388.44 799.536L1389.11 794.328V794.315L1389.19 793.661L1389.73 793.647L1399.35 793.461L1480.16 791.885L1514.58 790.426L1517.31 821.009Z" fill="#2F2E41"/>
<path d="M1298.01 1040.54C1294.71 1042.23 1291.38 1043.88 1288.04 1045.48C1275.13 1051.72 1261.96 1057.46 1248.52 1062.7C1244.69 1064.21 1240.84 1065.66 1236.95 1067.06C1236.53 1066.46 1236.09 1065.86 1235.64 1065.26C1217.11 1039.82 1205.57 1023.61 1181.74 986.262C1171.76 970.638 1161.73 954.347 1152 937.708L1222.48 904.805L1230.38 901.12L1253.11 945.867L1273.38 985.781L1277.9 994.661L1298.01 1040.54Z" fill="#2F2E41"/>
<path d="M1412.33 501.526C1448.19 501.526 1477.26 472.455 1477.26 436.594C1477.26 400.733 1448.19 371.662 1412.33 371.662C1376.47 371.662 1347.4 400.733 1347.4 436.594C1347.4 472.455 1376.47 501.526 1412.33 501.526Z" fill="#FFB6B6"/>
<path d="M1528.23 638.427C1527.7 584.799 1529.28 600.329 1525.03 581.861C1513.63 532.213 1466.29 523.159 1458.04 522.038C1457.16 519.698 1455.81 517.563 1454.07 515.768C1452.33 513.972 1450.24 512.554 1447.93 511.601C1445.61 510.647 1443.13 510.18 1440.63 510.227C1438.13 510.275 1435.67 510.836 1433.4 511.876L1417.6 520.069C1402.28 527.079 1411.58 537.207 1406.29 553.191L1400.74 570.15L1355.21 695.98L1364.43 743.853L1364.44 743.879L1370.65 776.128L1389.06 797.103L1388.72 793.755L1388.3 794.396L1388.29 794.409L1387.22 795.998C1388.7 796.813 1390.17 797.614 1391.62 798.415C1395.35 800.471 1399 802.488 1402.55 804.464C1403.41 804.945 1404.25 805.412 1405.09 805.893H1405.1C1405.64 806.187 1406.17 806.48 1406.69 806.774C1420.02 814.225 1370.69 827.793 1381.65 834.162C1383.18 835.044 1384.68 835.925 1386.17 836.793C1436.64 866.317 1476.92 903.093 1489.94 913.776C1495.76 906.725 1501.41 899.528 1506.88 892.183C1511.85 885.546 1516.66 878.794 1521.32 871.926C1522.13 866.558 1522.68 861.19 1523.21 855.928C1523.85 849.599 1520.52 790.964 1521.64 784.514C1522.13 781.656 1520.24 778.946 1518.41 776.328C1516.71 773.885 1515.11 771.588 1515.44 769.424C1515.79 767.194 1518.25 764.764 1520.64 762.401C1523.24 759.81 1525.94 757.139 1526.32 754.322C1527.39 746.47 1523 738.591 1523.83 730.686C1525.19 717.827 1526.24 704.927 1526.97 691.988C1527.99 674.121 1528.42 656.267 1528.23 638.427Z" fill="#00BFA6"/>
<path d="M1162 769.948C1164.68 767.122 1167.95 764.919 1171.57 763.493C1175.19 762.067 1179.09 761.452 1182.97 761.694C1186.86 761.935 1190.65 763.026 1194.07 764.889C1197.49 766.752 1200.46 769.343 1202.77 772.478L1293.19 744.394L1279.51 791.654L1195.74 811.078C1190.22 814.611 1183.59 815.994 1177.11 814.967C1170.63 813.939 1164.76 810.571 1160.6 805.501C1156.44 800.432 1154.29 794.012 1154.54 787.46C1154.8 780.907 1157.45 774.676 1162 769.948L1162 769.948Z" fill="#FFB6B6"/>
<path d="M1125.49 744.828L1201.39 678.469C1205 675.314 1198.12 684.715 1201.27 688.324C1204.43 691.933 1216.43 688.383 1212.82 691.538L1136.92 757.897L1117.69 762.286L1125.49 744.828Z" fill="#3F3D56"/>
<path d="M1620.72 532.143C1613.56 542.853 1602.1 550.264 1589.76 553.936C1584.75 555.428 1579.58 556.307 1574.35 556.554C1573.71 550.647 1572.16 544.874 1569.77 539.434C1570.02 545.224 1569.21 551.01 1567.4 556.514C1559.55 556.069 1551.88 554.014 1544.87 550.478C1531.18 543.467 1520.65 530.06 1518.31 514.851C1515.56 497.09 1523.61 479.651 1526.52 461.917C1529.45 444.184 1523.96 421.723 1506.6 417.063C1493.38 413.511 1494.86 415.047 1483.87 423.206C1495.3 440.109 1453.08 502.051 1435.8 496.65C1426.03 493.596 1419.77 484.632 1417.76 484.632C1404.18 508.027 1429.75 547.447 1403.98 555.632L1406.1 553.509C1421.66 534.373 1389.14 493.872 1404.7 474.737C1409.04 469.382 1413.66 463.039 1412.38 456.269C1411.16 449.833 1400.95 446.427 1397.95 451.715C1403.34 439.39 1395.39 422.939 1382.24 419.774C1370.55 416.956 1370.77 420.428 1359.04 421.937C1358.28 416.87 1356.84 411.927 1354.78 407.235C1355 412.29 1354.41 417.348 1353.03 422.218C1348.89 422.137 1344.89 420.691 1341.66 418.105C1332.09 410.4 1334.03 394.215 1342.56 385.389C1351.11 376.562 1363.81 373.384 1375.92 371.327C1379.44 346.809 1447.09 344.252 1456.06 368.75C1459.87 350.456 1482.78 340.962 1500.58 346.637C1518.38 352.312 1530.73 368.937 1537.23 386.457C1543.73 403.963 1545.55 422.805 1549.56 441.046C1553.56 459.287 1560.33 477.862 1574.27 490.294C1588.21 502.712 1610.93 506.825 1625.62 495.288C1630.25 507.306 1627.86 521.421 1620.72 532.143Z" fill="#2F2E41"/>
<defs>
<clipPath id="clip0_824_995">
<rect width="180.013" height="180.013" fill="white" transform="translate(296.25 388.78)"/>
</clipPath>
</defs>
</svg>
