<svg fill="none" xmlns="http://www.w3.org/2000/svg" viewBox="0 0 1773 1467">
  <path d="M163.861 1262.72c5.583 65.38 130.028 129.78 220.455 168.19 59.677 25.35 126.408 24.58 187.879 3.96l626.855-210.27c186.76-62.65 319.34-229.13 338.59-425.182l45.21-460.441c15.11-153.871-89.19-294.025-240.92-323.73l-72.13-14.12S1067.6-22.028 860.3 141.61a535.484 535.484 0 0 0-19.045 15.74 564.729 564.729 0 0 0-79.092 83.783c-63.288 82.794-103.28 180.944-115.848 284.314-9.999 80.994-35.33 183.934-97.012 269.235a498.882 498.882 0 0 1-6.462 8.701c-42.538 55.718-101.352 103.116-182.531 130.623-76.786 26.025-125.861 68.224-155.96 117.604-39.536 64.79-46.417 141.95-40.489 211.11Z" fill="#F2F2F2"/>
  <g clip-path="url(#a)">
    <path d="M552.957 566.314a7.786 7.786 0 0 1-8.771 2.556 11.85 11.85 0 0 1-1.38-.503 58.624 58.624 0 0 0-.746-16.243 43.443 43.443 0 0 1-3.334 13.357 18.102 18.102 0 0 1-3.578-5.108 45.614 45.614 0 0 1-3.259-12.292c-2.449-14.411-4.865-29.402-.869-43.485 5.853-20.572 24.309-35.362 32.018-55.322l3.798-3.409c6.501 11.071 6.789 24.828 4.139 37.381-2.636 12.578-7.948 24.384-12.148 36.514-4.199 12.13-7.346 25.033-5.397 37.726.448 2.988 1.131 6.273-.473 8.828Z" fill="#2F2E41"/>
    <path d="m468.552 740.386-24.75 113.201 108.105 35.211-15.896-148.412h-67.459Z" fill="#DCA592"/>
    <path d="M1263.41 1341.15h48.99v-224.59a218.88 218.88 0 0 0-64.1-154.509 218.895 218.895 0 0 0-154.52-64.104H638.509a218.866 218.866 0 0 0-154.512 64.104 218.844 218.844 0 0 0-64.102 154.509v224.59h48.987v-153.43a220.896 220.896 0 0 1 220.647-220.649h353.231a220.89 220.89 0 0 1 155.95 64.699 220.863 220.863 0 0 1 64.7 155.95v153.43Z" fill="#000" fill-opacity=".4"/>
    <path d="m636.127 1223.66-52.21-15.81a179.874 179.874 0 0 1-5.1-42.62c.025-3.24.972-6.41 2.733-9.13a17.072 17.072 0 0 1 7.206-6.25 17.176 17.176 0 0 1 9.431-1.41c3.214.44 6.237 1.78 8.716 3.87 28.002 24.02 69.018 36.84 95.488 64.21a105.84 105.84 0 0 1 24.068 40.43 105.904 105.904 0 0 1 4.167 46.88l11.427 36.96a177.528 177.528 0 0 1-72.903-21.6 177.33 177.33 0 0 1-57.164-50.14 171.086 171.086 0 0 1-20.578-37.74c22.143-2.51 44.719-7.65 44.719-7.65Z" fill="#F2F2F2"/>
    <path d="m772.197 1284.19 26.629-8.06c.034-.15.068-.29.102-.43a17.105 17.105 0 0 0-15.858-20.85c-3.336-.16-6.645.66-9.52 2.36-12.087 7.18-25.51 13.37-35.149 23.33A54.014 54.014 0 0 0 724 1325.08l-5.829 18.85a90.403 90.403 0 0 0 37.183-11.02 90.404 90.404 0 0 0 29.156-25.57 87.385 87.385 0 0 0 10.495-19.25c-11.294-1.28-22.808-3.9-22.808-3.9Z" fill="#F2F2F2"/>
    <path d="M987.748 732.321H884.052a5.53 5.53 0 0 0-5.525 5.539v163.81h114.76V737.86a5.544 5.544 0 0 0-1.622-3.918 5.533 5.533 0 0 0-3.917-1.621Zm-51.499 93.075a12.302 12.302 0 0 1-12.245-12.245v-18.894a12.243 12.243 0 0 1 12.245-12.229 12.245 12.245 0 0 1 12.245 12.229v18.894a12.302 12.302 0 0 1-12.245 12.245Z" fill="#3F3D56"/>
    <path d="M1159.46 476.674H716.202a14.39 14.39 0 0 0-14.367 14.367v299.114a14.386 14.386 0 0 0 4.212 10.155 14.386 14.386 0 0 0 10.155 4.212h443.258a14.406 14.406 0 0 0 10.16-4.212 14.38 14.38 0 0 0 4.21-10.155V491.041a14.413 14.413 0 0 0-4.21-10.152 14.418 14.418 0 0 0-10.16-4.215Z" fill="#3F3D56"/>
    <path d="M1155.76 487.054H719.902a7.694 7.694 0 0 0-5.433 2.261 7.696 7.696 0 0 0-2.25 5.438v291.701a7.694 7.694 0 0 0 7.683 7.683h435.858a7.69 7.69 0 0 0 7.68-7.683V494.753a7.7 7.7 0 0 0-7.68-7.699Z" fill="#fff"/>
    <path d="M878.17 896.43v15.804a3.098 3.098 0 0 0 3.09 3.09h109.292a3.108 3.108 0 0 0 3.089-3.09V896.43H878.17Z" fill="#3F3D56"/>
    <path d="M1070.87 920.823H811.553a4.761 4.761 0 0 1-3.704-1.765 4.76 4.76 0 0 1-.963-3.988l4.023-19.11a4.79 4.79 0 0 1 4.667-3.787h251.264c1.1.004 2.15.382 3 1.071a4.793 4.793 0 0 1 1.67 2.716l4.02 19.11c.15.695.14 1.413-.03 2.103a4.64 4.64 0 0 1-.93 1.885 4.75 4.75 0 0 1-3.7 1.765Z" fill="#3F3D56"/>
    <path d="M824.411 895.612h-6.001a.992.992 0 0 0-.993.992v2.807c0 .548.444.992.993.992h6.001a.993.993 0 0 0 .993-.992v-2.807a.993.993 0 0 0-.993-.992ZM840.382 895.612h-6.002a.993.993 0 0 0-.993.992v2.807c0 .548.445.992.993.992h6.002a.992.992 0 0 0 .992-.992v-2.807a.992.992 0 0 0-.992-.992ZM856.356 895.612h-6.002a.992.992 0 0 0-.992.992v2.807c0 .548.444.992.992.992h6.002a.992.992 0 0 0 .992-.992v-2.807a.992.992 0 0 0-.992-.992ZM872.33 895.612h-6.001a.993.993 0 0 0-.993.992v2.807c0 .548.445.992.993.992h6.001a.992.992 0 0 0 .993-.992v-2.807a.992.992 0 0 0-.993-.992ZM888.301 895.612h-6.002a.992.992 0 0 0-.992.992v2.807c0 .548.444.992.992.992h6.002a.992.992 0 0 0 .992-.992v-2.807a.992.992 0 0 0-.992-.992ZM904.275 895.612h-6.001a.993.993 0 0 0-.993.992v2.807c0 .548.445.992.993.992h6.001a.993.993 0 0 0 .993-.992v-2.807a.993.993 0 0 0-.993-.992ZM920.25 895.612h-6.002a.992.992 0 0 0-.992.992v2.807c0 .548.444.992.992.992h6.002a.992.992 0 0 0 .992-.992v-2.807a.992.992 0 0 0-.992-.992ZM936.22 895.612h-6.001a.992.992 0 0 0-.993.992v2.807c0 .548.444.992.993.992h6.001a.993.993 0 0 0 .993-.992v-2.807a.993.993 0 0 0-.993-.992ZM952.195 895.612h-6.002a.992.992 0 0 0-.992.992v2.807c0 .548.444.992.992.992h6.002a.992.992 0 0 0 .992-.992v-2.807a.992.992 0 0 0-.992-.992ZM968.169 895.612h-6.001a.992.992 0 0 0-.993.992v2.807c0 .548.444.992.993.992h6.001a.993.993 0 0 0 .993-.992v-2.807a.993.993 0 0 0-.993-.992ZM984.14 895.612h-6.002a.992.992 0 0 0-.992.992v2.807c0 .548.444.992.992.992h6.002a.992.992 0 0 0 .992-.992v-2.807a.992.992 0 0 0-.992-.992ZM1000.11 895.612h-5.997a.992.992 0 0 0-.993.992v2.807c0 .548.444.992.993.992h5.997c.55 0 1-.444 1-.992v-2.807a.997.997 0 0 0-1-.992ZM1016.09 895.612h-6c-.55 0-1 .444-1 .992v2.807c0 .548.45.992 1 .992h6c.55 0 .99-.444.99-.992v-2.807a.989.989 0 0 0-.99-.992ZM1032.06 895.612h-6c-.55 0-1 .444-1 .992v2.807c0 .548.45.992 1 .992h6c.55 0 .99-.444.99-.992v-2.807a.989.989 0 0 0-.99-.992ZM1048.03 895.612h-6c-.55 0-.99.444-.99.992v2.807c0 .548.44.992.99.992h6c.55 0 1-.444 1-.992v-2.807a.997.997 0 0 0-1-.992ZM1064.01 895.612h-6c-.55 0-1 .444-1 .992v2.807c0 .548.45.992 1 .992h6c.55 0 .99-.444.99-.992v-2.807a.989.989 0 0 0-.99-.992ZM824.22 903.601h-6.001a.993.993 0 0 0-.993.992v2.807c0 .548.445.993.993.993h6.001a.994.994 0 0 0 .993-.993v-2.807a.993.993 0 0 0-.993-.992ZM840.195 903.601h-6.002a.992.992 0 0 0-.992.992v2.807c0 .548.444.993.992.993h6.002a.993.993 0 0 0 .992-.993v-2.807a.992.992 0 0 0-.992-.992ZM856.169 903.601h-6.001a.993.993 0 0 0-.993.992v2.807c0 .548.445.993.993.993h6.001a.993.993 0 0 0 .993-.993v-2.807a.992.992 0 0 0-.993-.992ZM872.14 903.601h-6.002a.992.992 0 0 0-.992.992v2.807c0 .548.444.993.992.993h6.002a.993.993 0 0 0 .992-.993v-2.807a.992.992 0 0 0-.992-.992ZM888.114 903.601h-6.001a.992.992 0 0 0-.993.992v2.807c0 .548.444.993.993.993h6.001a.994.994 0 0 0 .993-.993v-2.807a.993.993 0 0 0-.993-.992ZM904.089 903.601h-6.002a.992.992 0 0 0-.992.992v2.807c0 .548.444.993.992.993h6.002a.993.993 0 0 0 .992-.993v-2.807a.992.992 0 0 0-.992-.992ZM920.059 903.601h-6.001a.993.993 0 0 0-.993.992v2.807c0 .548.445.993.993.993h6.001a.994.994 0 0 0 .993-.993v-2.807a.993.993 0 0 0-.993-.992ZM936.034 903.601h-6.002a.992.992 0 0 0-.992.992v2.807c0 .548.444.993.992.993h6.002a.993.993 0 0 0 .992-.993v-2.807a.992.992 0 0 0-.992-.992ZM952.008 903.601h-6.002a.992.992 0 0 0-.992.992v2.807c0 .548.444.993.992.993h6.002a.993.993 0 0 0 .992-.993v-2.807a.992.992 0 0 0-.992-.992ZM967.978 903.601h-6.001a.993.993 0 0 0-.993.992v2.807c0 .548.445.993.993.993h6.001a.993.993 0 0 0 .993-.993v-2.807a.992.992 0 0 0-.993-.992ZM983.953 903.601h-6.002a.992.992 0 0 0-.992.992v2.807c0 .548.444.993.992.993h6.002a.994.994 0 0 0 .993-.993v-2.807a.993.993 0 0 0-.993-.992ZM999.927 903.601h-6.001a.993.993 0 0 0-.993.992v2.807c0 .548.445.993.993.993h6.001a.99.99 0 0 0 .993-.993v-2.807a.99.99 0 0 0-.993-.992ZM1015.9 903.601h-6c-.55 0-1 .444-1 .992v2.807c0 .548.45.993 1 .993h6a.99.99 0 0 0 .99-.993v-2.807a.989.989 0 0 0-.99-.992ZM1031.87 903.601h-6c-.55 0-.99.444-.99.992v2.807c0 .548.44.993.99.993h6a.99.99 0 0 0 .99-.993v-2.807a.989.989 0 0 0-.99-.992ZM1047.85 903.601h-6c-.55 0-1 .444-1 .992v2.807c0 .548.45.993 1 .993h6a.99.99 0 0 0 .99-.993v-2.807a.989.989 0 0 0-.99-.992ZM1063.82 903.601h-6c-.55 0-1 .444-1 .992v2.807c0 .548.45.993 1 .993h6a.99.99 0 0 0 .99-.993v-2.807a.989.989 0 0 0-.99-.992ZM956.798 913.182h-61.907a.994.994 0 0 0-.993.993v2.807c0 .548.445.992.993.992h61.907a.993.993 0 0 0 .993-.992v-2.807a.994.994 0 0 0-.993-.993Z" fill="#E6E6E6"/>
    <path d="M1146.77 584.279v153.535a38.766 38.766 0 0 1-11.35 27.413 38.816 38.816 0 0 1-27.42 11.357H915.839a38.791 38.791 0 0 1-35.598-23.36 36.552 36.552 0 0 1-2.298-7.136 35.309 35.309 0 0 0 12.808 2.379h192.159a35.786 35.786 0 0 0 25.26-10.483 35.826 35.826 0 0 0 10.49-25.258V559.191c0-4.38-.8-8.723-2.38-12.808a36.45 36.45 0 0 1 7.13 2.297 38.795 38.795 0 0 1 23.36 35.599Z" fill="#F2F2F2"/>
    <path d="m373.869 1171.14-19.06 11.8-56.151-69.02 28.129-17.42 47.082 74.64Z" fill="#DCA592"/>
    <path d="m390.324 1195.79-15.332 6.85-9.199-13.26-.547 17.61-40.663 18.15c-1.95.87-4.126 1.09-6.212.64a10.006 10.006 0 0 1-5.382-3.17 9.995 9.995 0 0 1-2.459-5.74c-.187-2.12.31-4.25 1.42-6.08l22.461-36.92-6.533-14.63 35.066-13.21 27.38 49.76ZM320.478 1157.86l32.19-31.2c-23.916-59.02-25.827-95.6-58.982-166.974 78.664 16.09 134.905 15.112 199.962.686 22.024-4.807 78.852-48.703 74.18-71.211a42.085 42.085 0 0 0-.774-3.127c-6.983-23.81-2.066-60.271-17.181-86.692-27.964-10.543-70.45 25.058-103.685 46.76-16.025 10.464-4.294 24.724-16.264 28.462l-45.884 14.895-112.574-18.182a41.716 41.716 0 0 0-31.111 7.751 41.713 41.713 0 0 0-10.96 12.13 41.715 41.715 0 0 0-5.454 15.411 43.802 43.802 0 0 0-.414 3.687c5.18 28.673 10.579 56.593 16.392 83.097 1.877 8.557-1.291 24.957 5.766 25.197 7.056.25 4.213 17.21 6.411 25.5 13.53 51.06 22.085 75.77 68.382 113.81Z" fill="#2F2E41"/>
    <path d="m258.866 1294.69-19.857-10.37 31.417-83.22 29.306 15.3-40.866 78.29Z" fill="#DCA592"/>
    <path d="m255.555 1232.56 31.84 21.92c39.024-56.44 64.361-131.85 83.231-216.24 73.471-32.05 137.76-68.715 182.56-117.899a42.52 42.52 0 0 0-2.459-59.151 42.397 42.397 0 0 0-2.431-2.112c-19.405-15.457-62.502-6.563-90.047-19.482l-49.208 68.106 5.656 15.863-17.118 8.333-14.453 7.036-16.545 8.055-54.238 26.403a41.648 41.648 0 0 0-22.902 40.448 41.595 41.595 0 0 0 4.424 15.72 43.26 43.26 0 0 0 1.784 3.26l-20.144 100.35s5.543 17.47-3.178 15.83c-8.721-1.63-3.969 19.77-3.969 19.77l-12.803 63.79ZM246.84 1340.55l-14.884-7.76 4.677-15.44-14.139 10.5-39.478-20.61a9.958 9.958 0 0 1-4.359-4.47 9.988 9.988 0 0 1-.86-6.18 9.977 9.977 0 0 1 2.971-5.49c1.551-1.47 3.53-2.4 5.648-2.67l42.89-5.31 7.415-14.21 32.127 19.28-22.008 52.36Z" fill="#2F2E41"/>
    <path d="m680.848 904.261-23.223-56.124-18.298 10.165 11.05 57.092a20.339 20.339 0 0 0 15.32 25.859 20.337 20.337 0 0 0 20.111-7.348 20.333 20.333 0 0 0-4.96-29.644ZM291.147 460.454l35.336 49.402 15.518-14.047-23.698-53.103a20.33 20.33 0 0 0-10.004-18.931 20.334 20.334 0 0 0-26.199 30.194 20.336 20.336 0 0 0 9.047 6.485Z" fill="#DCA592"/>
    <path d="M450.718 773.572c-22.92 35.55 61.048 113.008 105.254 94.895 7.74-3.171 34.367-13.647 16.167-28.17-18.2-14.524 2.11 1.73 2.59-7.724.321-6.321-4.573-20.187.533-19.592 5.106.594 8.037-14.173-3.084-17.935a21.584 21.584 0 0 1-14.231-18.297c-1.063-38.966 12.133-79.649 12.133-79.649l53.871 137.708s-.397 23.824 6.472 16.543c6.87-7.28 6.37 16.283 6.37 16.283s10.215 7.129 4.341 11.097 6.324 16.166 6.324 16.166l28.463-2.033s-.446-21.144-5.306-25.82c-4.859-4.676-2.472-12.033-2.472-12.033s-10.019-9.32-4.17-20.295c5.849-10.976-42.595-207.292-42.595-207.292a52.287 52.287 0 0 0-37.338-39.889l-30.742-8.464-5.459-21.659h-43.286l-7.539 14.232-69.124-6.1s-68.396-62.231-65.057-67.09c3.339-4.859-7.263-16.235-7.263-16.235s-9.055-2.964-3.946-4.546c5.11-1.582-4.548-5.241-4.548-5.241s-8.945-2.35-4.726-5.445-14.079-5.128-14.079-5.128l-23.74 19.37 4.798 8.136s-2.925 11.079.893 7.035c3.818-4.045 4.537 7.693 4.537 7.693s1.949 12.852 13.512 16.725c11.563 3.872 20.331 40.66 20.331 40.66l97.585 81.322c-14.862 17.06-11.325 34.899 1.842 53.147l2.689 77.625Z" fill="#6C63FF"/>
    <path d="M525.221 543.022c25.887 0 46.873-20.986 46.873-46.873 0-25.887-20.986-46.873-46.873-46.873-25.887 0-46.873 20.986-46.873 46.873 0 25.887 20.986 46.873 46.873 46.873Z" fill="#DCA592"/>
    <path d="M566.137 482.191c-1.2.345-18.806 2.643-26.43 4.066-7.481 1.402-8.782-8.132-14.902-6.343a.266.266 0 0 0-.02-.122 57.599 57.599 0 0 0-4.819-14.577c.816 4.427.933 8.955.346 13.418a1.993 1.993 0 0 1-.04.345c-.021.204-.061.387-.082.59-6.465-2.846-10.572-.305-15.044.59-5.002.996-8.905 3.191-6.099 20.33 5.753 35.253 35.679 47.837 30.495 71.156-1.016 4.615-3.578 10.389-6.79 11.833a57.636 57.636 0 0 0-4.818-14.577c.816 4.427.932 8.955.345 13.418-4.981-5.388-8.579-24.214-25.331-39.136-4.128-3.66-24.804-25.373-27.284-30.496a65.346 65.346 0 0 1 1.098 12.422 59.762 59.762 0 0 1-.569 8.336c0 .177-.021.355-.061.528-.021.325-.082.61-.122.915-.041.346-.102.671-.163 1.017-6.77-.976-12.767-2.156-15.593-4.92-13.744-13.378 3.029-39.441 12.198-63.025 13.113-33.768 51.192-38.261 54.892-38.627 16.305-1.647 43.853 1.85 52.859 20.33 6.302 12.95 2.277 30.699-4.066 32.529Z" fill="#2F2E41"/>
    <path d="m467.301 489.811 33.954-52.819a52.072 52.072 0 0 0-26.812-7.034 33.388 33.388 0 0 0-24.618 11.612c-6.935 8.618-8.125 20.802-5.527 31.554.898 3.714 17.985-9.353 13.918-3.253-3.338 4.775-8.796 24.846-10.165 30.495-2.203 9.091-8.261 18.424-2.864 26.065 6.381 9.036 17.768 13.527 28.821 13.983 11.053.456 21.932-2.607 32.435-6.076l-39.142-44.527Z" fill="#2F2E41"/>
    <path d="M480.347 487.729a2.029 2.029 0 0 1-2.011-1.753 2.03 2.03 0 0 1 1.456-2.235c.533-.88.315-4.581.139-7.572-.661-11.231-1.768-30.026 16.48-42.714a2.033 2.033 0 0 1 2.321 3.337c-16.376 11.388-15.393 28.088-14.742 39.137.372 6.318.641 10.881-3.191 11.75-.148.034-.3.051-.452.05Z" fill="#6C63FF"/>
    <path d="M1187.95 610.068a22.885 22.885 0 0 1 18.27 6.483 22.905 22.905 0 0 1 5.4 8.336 22.898 22.898 0 0 1 1.37 9.838l74.54 32.807-35.56 22.952-65.33-34.673a23.036 23.036 0 0 1-14.29-7.991 23.025 23.025 0 0 1-5.38-15.463 23.07 23.07 0 0 1 6.26-15.13 23.02 23.02 0 0 1 14.72-7.159ZM1488.62 569.141c30.92 0 55.98-25.061 55.98-55.975 0-30.915-25.06-55.976-55.98-55.976-30.91 0-55.97 25.061-55.97 55.976 0 30.914 25.06 55.975 55.97 55.975ZM1387.31 1311.32h-27.94l-13.29-107.77h41.24l-.01 107.77Z" fill="#FFB8B8"/>
    <path d="M1394.45 1338.4h-90.1v-1.14c0-4.61.91-9.17 2.67-13.42 1.76-4.26 4.35-8.12 7.6-11.38a35.23 35.23 0 0 1 11.38-7.6c4.25-1.76 8.81-2.67 13.42-2.67h55.03v36.21Z" fill="#2F2E41"/>
    <path d="M1503.55 1311.32h-27.94l-13.29-107.77h41.23v107.77Z" fill="#FFB8B8"/>
    <path d="M1510.67 1338.4h-90.09v-1.14c0-4.61.91-9.17 2.67-13.42 1.76-4.26 4.35-8.12 7.6-11.38 3.26-3.25 7.12-5.84 11.38-7.6 4.25-1.76 8.81-2.67 13.42-2.67h55.03l-.01 36.21ZM1502.23 1288.37c-.42 0-.84-.03-1.25-.08l-40.9-5.04c-2.4-.29-4.61-1.42-6.26-3.18a10.276 10.276 0 0 1-2.73-6.47l-11.92-268.39c-.04-.76-.34-1.48-.84-2.06-.5-.58-1.18-.97-1.92-1.11a3.413 3.413 0 0 0-3.75 1.91l-30.62 102.07-6.31 163.94c-.05 1.42-.4 2.8-1.01 4.08-.62 1.27-1.49 2.4-2.57 3.32a10.206 10.206 0 0 1-7.86 2.39l-35.42-4.17a10.2 10.2 0 0 1-6.54-3.44 10.157 10.157 0 0 1-2.51-6.94l3-154.33 24-242.239 1.07.04 145.91 5.624-1.32 403.845c-.01 2.72-1.09 5.32-3.01 7.23-1.93 1.92-4.53 3-7.24 3Z" fill="#2F2E41"/>
    <path d="M1508.26 896.433c-.09 0-.18 0-.26-.002l-146.96-3.85a10.243 10.243 0 0 1-4.15-1 10.24 10.24 0 0 1-5.42-6.37c-.4-1.383-.51-2.836-.32-4.264l28.24-207.828a100.617 100.617 0 0 1 13.8-39.629 100.654 100.654 0 0 1 28.77-30.548 87.046 87.046 0 0 1 70.9-12.641c51.29 12.997 82.06 68.075 68.59 122.776l-43.23 175.553a10.341 10.341 0 0 1-3.64 5.608 10.318 10.318 0 0 1-6.32 2.195Z" fill="#3F3D56"/>
    <path d="M1315.48 731.395a49.698 49.698 0 0 1-27.26-8.101l-85.7-56.224a10.305 10.305 0 0 1-3.1-3.187 10.171 10.171 0 0 1-1.46-4.2c-.18-1.49-.02-3 .45-4.424a10.377 10.377 0 0 1 2.29-3.815l12.91-13.629a10.225 10.225 0 0 1 11.24-2.478l95.72 38.119 88.68-63.326a36.82 36.82 0 0 1 28.97-6.067 36.827 36.827 0 0 1 24.07 17.222c2.6 4.38 4.27 9.253 4.89 14.31.62 5.057.19 10.188-1.27 15.068a36.949 36.949 0 0 1-7.23 13.285 36.821 36.821 0 0 1-11.95 9.261l-109.6 53.232a49.526 49.526 0 0 1-21.65 4.954Z" fill="#3F3D56"/>
    <path d="M1508.02 566.698c9.55 2.255 21.07 3.985 27.89-3.065a28.621 28.621 0 0 0 3.23-4.308l8.92-13.623c6.84-10.435 13.79-21.143 16.69-33.278a54.09 54.09 0 0 0 .76-21.28 54.095 54.095 0 0 0-7.5-19.928 54.158 54.158 0 0 0-34.07-24.14c-13.33-2.983-26.36-8.115-39.98-7.179-13.62.936-29.6.629-41.03-6.837.72 3.328 4.57 18.035 4.57 18.035s-17.19 15.768-20.64 19.7a32.327 32.327 0 0 1 14.36-2.746 32.304 32.304 0 0 1 25.04 13.548 32.229 32.229 0 0 1 5.55 13.518c.98 5.984.41 12.621 3.96 17.533 3.38 4.671 9.45 6.308 14.55 9.005a35.546 35.546 0 0 1 15.82 18.82 35.479 35.479 0 0 1-.22 24.584l2.1 1.641Z" fill="#2F2E41"/>
    <path d="M1433.63 888.413c.37-3.33 1.46-6.539 3.2-9.401a22.99 22.99 0 0 1 6.88-7.161 22.965 22.965 0 0 1 9.27-3.579c3.31-.501 6.69-.269 9.91.678l47.36-66.25 15.19 39.501-47.3 56.856a23.058 23.058 0 0 1-10.75 12.35 23.047 23.047 0 0 1-29.77-7.119 23.018 23.018 0 0 1-3.99-15.875Z" fill="#FFB8B8"/>
    <path d="M1487.89 884.835c-.75.062-1.5.043-2.24-.056a10.188 10.188 0 0 1-4.17-1.534 10.175 10.175 0 0 1-3.13-3.161l-10.01-15.881a10.21 10.21 0 0 1-1.59-5.812c.07-2.053.76-4.037 1.97-5.693l60.63-83.307-39.41-101.59a36.612 36.612 0 0 1 .37-27.744 36.629 36.629 0 0 1 19.72-19.522 36.765 36.765 0 0 1 15.87-2.829 36.836 36.836 0 0 1 15.56 4.223c4.81 2.541 9 6.115 12.26 10.467a36.842 36.842 0 0 1 6.61 14.702l24.45 119.361a49.942 49.942 0 0 1-1.45 25.299 49.974 49.974 0 0 1-13.7 21.318l-75.69 69.113a10.24 10.24 0 0 1-6.05 2.646Z" fill="#3F3D56"/>
    <g clip-path="url(#b)">
      <path d="M937.999 563.167h-23.042a23.04 23.04 0 0 0-16.292 39.334 23.04 23.04 0 0 0 16.292 6.749m23.042-46.083v46.083m0-46.083h23.042a23.035 23.035 0 0 1 16.293 6.748 23.036 23.036 0 0 1 6.748 16.293 23.044 23.044 0 0 1-23.041 23.042m-23.042 0h-23.042m23.042 0h23.042m-23.042 0v46.083m-23.042-46.083a23.04 23.04 0 0 0-23.041 23.042 23.04 23.04 0 0 0 23.041 23.041m46.084-46.083a23.044 23.044 0 0 0-23.042 23.042 23.039 23.039 0 0 0 23.042 23.041 23.035 23.035 0 0 0 16.293-6.748 23.036 23.036 0 0 0 6.748-16.293 23.04 23.04 0 0 0-23.041-23.042Zm-46.084 46.083a23.04 23.04 0 0 0-23.041 23.042 23.038 23.038 0 0 0 23.041 23.042 23.043 23.043 0 0 0 23.042-23.042v-23.042m-23.042 0h23.042" stroke="#6C63FF" stroke-width="14.364" stroke-linecap="round" stroke-linejoin="round"/>
    </g>
  </g>
  <defs>
    <clipPath id="a">
      <path fill="#fff" transform="translate(0 421)" d="M0 0h1772.81v923H0z"/>
    </clipPath>
    <clipPath id="b">
      <path fill="#fff" transform="translate(859 550)" d="M0 0h158v158H0z"/>
    </clipPath>
  </defs>
</svg>
