<svg width="1773" height="1467" viewBox="0 0 1773 1467" fill="none" xmlns="http://www.w3.org/2000/svg">
<path d="M163.861 1262.72C169.444 1328.1 293.889 1392.5 384.316 1430.91C443.993 1456.26 510.724 1455.49 572.195 1434.87L1199.05 1224.6C1385.81 1161.95 1518.39 995.47 1537.64 799.418L1582.85 338.977C1597.96 185.106 1493.66 44.9524 1341.93 15.2478L1269.8 1.12659C1269.8 1.12659 1067.6 -22.0283 860.3 141.61C853.822 146.717 847.474 151.964 841.255 157.35C812.097 182.515 785.596 210.588 762.163 241.133C698.875 323.927 658.883 422.077 646.315 525.447C636.316 606.441 610.985 709.381 549.303 794.682C547.186 797.598 545.032 800.499 542.841 803.383C500.303 859.101 441.489 906.499 360.31 934.006C283.524 960.031 234.449 1002.23 204.35 1051.61C164.814 1116.4 157.933 1193.56 163.861 1262.72Z" fill="#F2F2F2"/>
<g clip-path="url(#clip0_824_996)">
<path d="M552.957 566.314C551.951 567.61 550.561 568.556 548.986 569.015C547.411 569.474 545.731 569.423 544.186 568.87C543.716 568.731 543.255 568.563 542.806 568.367C543.313 562.944 543.062 557.477 542.06 552.124C541.666 556.725 540.54 561.234 538.726 565.481C537.247 563.998 536.036 562.27 535.148 560.373C533.493 556.448 532.396 552.31 531.889 548.081C529.44 533.67 527.024 518.679 531.02 504.596C536.873 484.024 555.329 469.234 563.038 449.274L566.836 445.865C573.337 456.936 573.625 470.693 570.975 483.246C568.339 495.824 563.027 507.63 558.827 519.76C554.628 531.89 551.481 544.793 553.43 557.486C553.878 560.474 554.561 563.759 552.957 566.314Z" fill="#2F2E41"/>
<path d="M468.552 740.386L443.802 853.587L551.907 888.798L536.011 740.386H468.552Z" fill="#DCA592"/>
<path d="M1263.41 1341.15H1312.4V1116.56C1312.33 1058.6 1289.28 1003.03 1248.3 962.051C1207.31 921.067 1151.74 898.013 1093.78 897.947H638.509C580.549 898.013 524.981 921.067 483.997 962.051C443.013 1003.03 419.96 1058.6 419.895 1116.56V1341.15H468.882V1187.72C468.948 1129.22 492.216 1073.14 533.581 1031.77C574.946 990.405 631.03 967.137 689.529 967.071H1042.76C1101.26 967.137 1157.35 990.405 1198.71 1031.77C1240.08 1073.14 1263.35 1129.22 1263.41 1187.72V1341.15Z" fill="black" fill-opacity="0.4"/>
<path d="M636.127 1223.66L583.917 1207.85C580.522 1193.9 578.81 1179.59 578.817 1165.23C578.842 1161.99 579.789 1158.82 581.55 1156.1C583.31 1153.37 585.809 1151.21 588.756 1149.85C591.702 1148.5 594.973 1148.01 598.187 1148.44C601.401 1148.88 604.424 1150.22 606.903 1152.31C634.905 1176.33 675.921 1189.15 702.391 1216.52C713.346 1228.02 721.572 1241.84 726.459 1256.95C731.347 1272.07 732.771 1288.09 730.626 1303.83L742.053 1340.79C716.477 1338.94 691.605 1331.57 669.15 1319.19C646.696 1306.81 627.193 1289.7 611.986 1269.05C603.57 1257.39 596.656 1244.71 591.408 1231.31C613.551 1228.8 636.127 1223.66 636.127 1223.66Z" fill="#F2F2F2"/>
<path d="M772.197 1284.19L798.826 1276.13C798.86 1275.98 798.894 1275.84 798.928 1275.7C799.665 1272.44 799.432 1269.04 798.258 1265.92C797.084 1262.79 795.019 1260.08 792.32 1258.11C789.621 1256.14 786.405 1255.01 783.07 1254.85C779.734 1254.69 776.425 1255.51 773.55 1257.21C761.463 1264.39 748.04 1270.58 738.401 1280.54C732.813 1286.41 728.617 1293.46 726.125 1301.17C723.632 1308.88 722.905 1317.05 724 1325.08L718.171 1343.93C731.216 1342.99 743.902 1339.23 755.354 1332.91C766.807 1326.6 776.754 1317.87 784.51 1307.34C788.803 1301.39 792.329 1294.92 795.005 1288.09C783.711 1286.81 772.197 1284.19 772.197 1284.19Z" fill="#F2F2F2"/>
<path d="M987.748 732.321H884.052C882.585 732.323 881.179 732.908 880.143 733.947C879.107 734.985 878.526 736.393 878.527 737.86V901.67H993.287V737.86C993.287 737.132 993.144 736.412 992.866 735.74C992.588 735.068 992.18 734.457 991.665 733.942C991.151 733.428 990.54 733.02 989.868 732.742C989.196 732.464 988.476 732.321 987.748 732.321ZM936.249 825.396C933.006 825.381 929.9 824.086 927.607 821.793C925.314 819.5 924.019 816.394 924.004 813.151V794.257C924.008 791.012 925.3 787.902 927.596 785.609C929.892 783.316 933.004 782.028 936.249 782.028C939.494 782.028 942.606 783.316 944.902 785.609C947.197 787.902 948.489 791.012 948.494 794.257V813.151C948.479 816.394 947.184 819.5 944.891 821.793C942.597 824.086 939.492 825.381 936.249 825.396Z" fill="#3F3D56"/>
<path d="M1159.46 476.674H716.202C712.394 476.68 708.743 478.196 706.05 480.889C703.357 483.582 701.842 487.232 701.835 491.041V790.155C701.839 793.964 703.354 797.616 706.047 800.31C708.741 803.003 712.393 804.518 716.202 804.522H1159.46C1163.27 804.518 1166.92 803.003 1169.62 800.31C1172.31 797.616 1173.83 793.964 1173.83 790.155V491.041C1173.82 487.232 1172.31 483.582 1169.62 480.889C1166.92 478.196 1163.27 476.68 1159.46 476.674Z" fill="#3F3D56"/>
<path d="M1155.76 487.054H719.902C717.863 487.058 715.909 487.871 714.469 489.315C713.028 490.758 712.219 492.714 712.219 494.753V786.454C712.222 788.491 713.033 790.443 714.473 791.883C715.913 793.323 717.865 794.134 719.902 794.137H1155.76C1157.8 794.134 1159.75 793.323 1161.19 791.883C1162.63 790.443 1163.44 788.491 1163.44 786.454V494.753C1163.44 492.714 1162.63 490.758 1161.19 489.315C1159.75 487.871 1157.8 487.058 1155.76 487.054Z" fill="white"/>
<path d="M878.17 896.43V912.234C878.172 913.053 878.498 913.838 879.077 914.417C879.656 914.996 880.441 915.322 881.26 915.324H990.552C991.37 915.319 992.153 914.993 992.732 914.414C993.31 913.836 993.637 913.052 993.641 912.234V896.43H878.17Z" fill="#3F3D56"/>
<path d="M1070.87 920.823H811.553C810.844 920.823 810.143 920.665 809.502 920.359C808.861 920.054 808.297 919.61 807.849 919.058C807.402 918.507 807.083 917.863 806.917 917.173C806.75 916.483 806.739 915.765 806.886 915.07L810.909 895.96C811.138 894.891 811.726 893.933 812.575 893.244C813.424 892.555 814.483 892.177 815.576 892.173H1066.84C1067.94 892.177 1068.99 892.555 1069.84 893.244C1070.69 893.932 1071.28 894.891 1071.51 895.96L1075.53 915.07C1075.68 915.765 1075.67 916.483 1075.5 917.173C1075.34 917.863 1075.02 918.507 1074.57 919.058C1074.12 919.61 1073.56 920.054 1072.92 920.359C1072.28 920.665 1071.58 920.823 1070.87 920.823Z" fill="#3F3D56"/>
<path d="M824.411 895.612H818.41C817.861 895.612 817.417 896.056 817.417 896.604V899.411C817.417 899.959 817.861 900.403 818.41 900.403H824.411C824.959 900.403 825.404 899.959 825.404 899.411V896.604C825.404 896.056 824.959 895.612 824.411 895.612Z" fill="#E6E6E6"/>
<path d="M840.382 895.612H834.38C833.832 895.612 833.387 896.056 833.387 896.604V899.411C833.387 899.959 833.832 900.403 834.38 900.403H840.382C840.93 900.403 841.374 899.959 841.374 899.411V896.604C841.374 896.056 840.93 895.612 840.382 895.612Z" fill="#E6E6E6"/>
<path d="M856.356 895.612H850.354C849.806 895.612 849.362 896.056 849.362 896.604V899.411C849.362 899.959 849.806 900.403 850.354 900.403H856.356C856.904 900.403 857.348 899.959 857.348 899.411V896.604C857.348 896.056 856.904 895.612 856.356 895.612Z" fill="#E6E6E6"/>
<path d="M872.33 895.612H866.329C865.781 895.612 865.336 896.056 865.336 896.604V899.411C865.336 899.959 865.781 900.403 866.329 900.403H872.33C872.879 900.403 873.323 899.959 873.323 899.411V896.604C873.323 896.056 872.879 895.612 872.33 895.612Z" fill="#E6E6E6"/>
<path d="M888.301 895.612H882.299C881.751 895.612 881.307 896.056 881.307 896.604V899.411C881.307 899.959 881.751 900.403 882.299 900.403H888.301C888.849 900.403 889.293 899.959 889.293 899.411V896.604C889.293 896.056 888.849 895.612 888.301 895.612Z" fill="#E6E6E6"/>
<path d="M904.275 895.612H898.274C897.726 895.612 897.281 896.056 897.281 896.604V899.411C897.281 899.959 897.726 900.403 898.274 900.403H904.275C904.823 900.403 905.268 899.959 905.268 899.411V896.604C905.268 896.056 904.823 895.612 904.275 895.612Z" fill="#E6E6E6"/>
<path d="M920.25 895.612H914.248C913.7 895.612 913.256 896.056 913.256 896.604V899.411C913.256 899.959 913.7 900.403 914.248 900.403H920.25C920.798 900.403 921.242 899.959 921.242 899.411V896.604C921.242 896.056 920.798 895.612 920.25 895.612Z" fill="#E6E6E6"/>
<path d="M936.22 895.612H930.219C929.67 895.612 929.226 896.056 929.226 896.604V899.411C929.226 899.959 929.67 900.403 930.219 900.403H936.22C936.768 900.403 937.213 899.959 937.213 899.411V896.604C937.213 896.056 936.768 895.612 936.22 895.612Z" fill="#E6E6E6"/>
<path d="M952.195 895.612H946.193C945.645 895.612 945.201 896.056 945.201 896.604V899.411C945.201 899.959 945.645 900.403 946.193 900.403H952.195C952.743 900.403 953.187 899.959 953.187 899.411V896.604C953.187 896.056 952.743 895.612 952.195 895.612Z" fill="#E6E6E6"/>
<path d="M968.169 895.612H962.168C961.619 895.612 961.175 896.056 961.175 896.604V899.411C961.175 899.959 961.619 900.403 962.168 900.403H968.169C968.717 900.403 969.162 899.959 969.162 899.411V896.604C969.162 896.056 968.717 895.612 968.169 895.612Z" fill="#E6E6E6"/>
<path d="M984.14 895.612H978.138C977.59 895.612 977.146 896.056 977.146 896.604V899.411C977.146 899.959 977.59 900.403 978.138 900.403H984.14C984.688 900.403 985.132 899.959 985.132 899.411V896.604C985.132 896.056 984.688 895.612 984.14 895.612Z" fill="#E6E6E6"/>
<path d="M1000.11 895.612H994.113C993.564 895.612 993.12 896.056 993.12 896.604V899.411C993.12 899.959 993.564 900.403 994.113 900.403H1000.11C1000.66 900.403 1001.11 899.959 1001.11 899.411V896.604C1001.11 896.056 1000.66 895.612 1000.11 895.612Z" fill="#E6E6E6"/>
<path d="M1016.09 895.612H1010.09C1009.54 895.612 1009.09 896.056 1009.09 896.604V899.411C1009.09 899.959 1009.54 900.403 1010.09 900.403H1016.09C1016.64 900.403 1017.08 899.959 1017.08 899.411V896.604C1017.08 896.056 1016.64 895.612 1016.09 895.612Z" fill="#E6E6E6"/>
<path d="M1032.06 895.612H1026.06C1025.51 895.612 1025.06 896.056 1025.06 896.604V899.411C1025.06 899.959 1025.51 900.403 1026.06 900.403H1032.06C1032.61 900.403 1033.05 899.959 1033.05 899.411V896.604C1033.05 896.056 1032.61 895.612 1032.06 895.612Z" fill="#E6E6E6"/>
<path d="M1048.03 895.612H1042.03C1041.48 895.612 1041.04 896.056 1041.04 896.604V899.411C1041.04 899.959 1041.48 900.403 1042.03 900.403H1048.03C1048.58 900.403 1049.03 899.959 1049.03 899.411V896.604C1049.03 896.056 1048.58 895.612 1048.03 895.612Z" fill="#E6E6E6"/>
<path d="M1064.01 895.612H1058.01C1057.46 895.612 1057.01 896.056 1057.01 896.604V899.411C1057.01 899.959 1057.46 900.403 1058.01 900.403H1064.01C1064.56 900.403 1065 899.959 1065 899.411V896.604C1065 896.056 1064.56 895.612 1064.01 895.612Z" fill="#E6E6E6"/>
<path d="M824.22 903.601H818.219C817.671 903.601 817.226 904.045 817.226 904.593V907.4C817.226 907.948 817.671 908.393 818.219 908.393H824.22C824.768 908.393 825.213 907.948 825.213 907.4V904.593C825.213 904.045 824.768 903.601 824.22 903.601Z" fill="#E6E6E6"/>
<path d="M840.195 903.601H834.193C833.645 903.601 833.201 904.045 833.201 904.593V907.4C833.201 907.948 833.645 908.393 834.193 908.393H840.195C840.743 908.393 841.187 907.948 841.187 907.4V904.593C841.187 904.045 840.743 903.601 840.195 903.601Z" fill="#E6E6E6"/>
<path d="M856.169 903.601H850.168C849.62 903.601 849.175 904.045 849.175 904.593V907.4C849.175 907.948 849.62 908.393 850.168 908.393H856.169C856.718 908.393 857.162 907.948 857.162 907.4V904.593C857.162 904.045 856.718 903.601 856.169 903.601Z" fill="#E6E6E6"/>
<path d="M872.14 903.601H866.138C865.59 903.601 865.146 904.045 865.146 904.593V907.4C865.146 907.948 865.59 908.393 866.138 908.393H872.14C872.688 908.393 873.132 907.948 873.132 907.4V904.593C873.132 904.045 872.688 903.601 872.14 903.601Z" fill="#E6E6E6"/>
<path d="M888.114 903.601H882.113C881.564 903.601 881.12 904.045 881.12 904.593V907.4C881.12 907.948 881.564 908.393 882.113 908.393H888.114C888.662 908.393 889.107 907.948 889.107 907.4V904.593C889.107 904.045 888.662 903.601 888.114 903.601Z" fill="#E6E6E6"/>
<path d="M904.089 903.601H898.087C897.539 903.601 897.095 904.045 897.095 904.593V907.4C897.095 907.948 897.539 908.393 898.087 908.393H904.089C904.637 908.393 905.081 907.948 905.081 907.4V904.593C905.081 904.045 904.637 903.601 904.089 903.601Z" fill="#E6E6E6"/>
<path d="M920.059 903.601H914.058C913.51 903.601 913.065 904.045 913.065 904.593V907.4C913.065 907.948 913.51 908.393 914.058 908.393H920.059C920.607 908.393 921.052 907.948 921.052 907.4V904.593C921.052 904.045 920.607 903.601 920.059 903.601Z" fill="#E6E6E6"/>
<path d="M936.034 903.601H930.032C929.484 903.601 929.04 904.045 929.04 904.593V907.4C929.04 907.948 929.484 908.393 930.032 908.393H936.034C936.582 908.393 937.026 907.948 937.026 907.4V904.593C937.026 904.045 936.582 903.601 936.034 903.601Z" fill="#E6E6E6"/>
<path d="M952.008 903.601H946.006C945.458 903.601 945.014 904.045 945.014 904.593V907.4C945.014 907.948 945.458 908.393 946.006 908.393H952.008C952.556 908.393 953 907.948 953 907.4V904.593C953 904.045 952.556 903.601 952.008 903.601Z" fill="#E6E6E6"/>
<path d="M967.978 903.601H961.977C961.429 903.601 960.984 904.045 960.984 904.593V907.4C960.984 907.948 961.429 908.393 961.977 908.393H967.978C968.527 908.393 968.971 907.948 968.971 907.4V904.593C968.971 904.045 968.527 903.601 967.978 903.601Z" fill="#E6E6E6"/>
<path d="M983.953 903.601H977.951C977.403 903.601 976.959 904.045 976.959 904.593V907.4C976.959 907.948 977.403 908.393 977.951 908.393H983.953C984.501 908.393 984.946 907.948 984.946 907.4V904.593C984.946 904.045 984.501 903.601 983.953 903.601Z" fill="#E6E6E6"/>
<path d="M999.927 903.601H993.926C993.378 903.601 992.933 904.045 992.933 904.593V907.4C992.933 907.948 993.378 908.393 993.926 908.393H999.927C1000.48 908.393 1000.92 907.948 1000.92 907.4V904.593C1000.92 904.045 1000.48 903.601 999.927 903.601Z" fill="#E6E6E6"/>
<path d="M1015.9 903.601H1009.9C1009.35 903.601 1008.9 904.045 1008.9 904.593V907.4C1008.9 907.948 1009.35 908.393 1009.9 908.393H1015.9C1016.45 908.393 1016.89 907.948 1016.89 907.4V904.593C1016.89 904.045 1016.45 903.601 1015.9 903.601Z" fill="#E6E6E6"/>
<path d="M1031.87 903.601H1025.87C1025.32 903.601 1024.88 904.045 1024.88 904.593V907.4C1024.88 907.948 1025.32 908.393 1025.87 908.393H1031.87C1032.42 908.393 1032.86 907.948 1032.86 907.4V904.593C1032.86 904.045 1032.42 903.601 1031.87 903.601Z" fill="#E6E6E6"/>
<path d="M1047.85 903.601H1041.85C1041.3 903.601 1040.85 904.045 1040.85 904.593V907.4C1040.85 907.948 1041.3 908.393 1041.85 908.393H1047.85C1048.4 908.393 1048.84 907.948 1048.84 907.4V904.593C1048.84 904.045 1048.4 903.601 1047.85 903.601Z" fill="#E6E6E6"/>
<path d="M1063.82 903.601H1057.82C1057.27 903.601 1056.82 904.045 1056.82 904.593V907.4C1056.82 907.948 1057.27 908.393 1057.82 908.393H1063.82C1064.37 908.393 1064.81 907.948 1064.81 907.4V904.593C1064.81 904.045 1064.37 903.601 1063.82 903.601Z" fill="#E6E6E6"/>
<path d="M956.798 913.182H894.891C894.343 913.182 893.898 913.627 893.898 914.175V916.982C893.898 917.53 894.343 917.974 894.891 917.974H956.798C957.346 917.974 957.791 917.53 957.791 916.982V914.175C957.791 913.627 957.346 913.182 956.798 913.182Z" fill="#E6E6E6"/>
<path d="M1146.77 584.279V737.814C1146.77 748.096 1142.69 757.956 1135.42 765.227C1128.14 772.497 1118.28 776.582 1108 776.584H915.839C908.274 776.585 900.874 774.375 894.549 770.225C888.224 766.074 883.25 760.165 880.241 753.224C879.232 750.931 878.463 748.539 877.943 746.088C882.028 747.669 886.372 748.475 890.751 748.467H1082.91C1092.39 748.454 1101.47 744.684 1108.17 737.984C1114.87 731.284 1118.64 722.201 1118.66 712.726V559.191C1118.66 554.811 1117.86 550.468 1116.28 546.383C1118.73 546.902 1121.12 547.672 1123.41 548.68C1130.35 551.69 1136.26 556.663 1140.41 562.988C1144.56 569.313 1146.77 576.714 1146.77 584.279Z" fill="#F2F2F2"/>
<path d="M373.869 1171.14L354.809 1182.94L298.658 1113.92L326.787 1096.5L373.869 1171.14Z" fill="#DCA592"/>
<path d="M390.324 1195.79L374.992 1202.64L365.793 1189.38L365.246 1206.99L324.583 1225.14C322.633 1226.01 320.457 1226.23 318.371 1225.78C316.286 1225.32 314.4 1224.22 312.989 1222.61C311.578 1221.01 310.717 1219 310.53 1216.87C310.343 1214.75 310.84 1212.62 311.95 1210.79L334.411 1173.87L327.878 1159.24L362.944 1146.03L390.324 1195.79Z" fill="#2F2E41"/>
<path d="M320.478 1157.86L352.668 1126.66C328.752 1067.64 326.841 1031.06 293.686 959.686C372.35 975.776 428.591 974.798 493.648 960.372C515.672 955.565 572.5 911.669 567.828 889.161C567.61 888.109 567.352 887.067 567.054 886.034C560.071 862.224 564.988 825.763 549.873 799.342C521.909 788.799 479.423 824.4 446.188 846.102C430.163 856.566 441.894 870.826 429.924 874.564L384.04 889.459L271.466 871.277C266.025 870.453 260.475 870.713 255.136 872.043C249.796 873.373 244.773 875.747 240.355 879.028C235.937 882.309 232.213 886.431 229.395 891.158C226.578 895.885 224.725 901.123 223.941 906.569C223.751 907.792 223.613 909.02 223.527 910.256C228.707 938.929 234.106 966.849 239.919 993.353C241.796 1001.91 238.628 1018.31 245.685 1018.55C252.741 1018.8 249.898 1035.76 252.096 1044.05C265.626 1095.11 274.181 1119.82 320.478 1157.86Z" fill="#2F2E41"/>
<path d="M258.866 1294.69L239.009 1284.32L270.426 1201.1L299.732 1216.4L258.866 1294.69Z" fill="#DCA592"/>
<path d="M255.555 1232.56L287.395 1254.48C326.419 1198.04 351.756 1122.63 370.626 1038.24C444.097 1006.19 508.386 969.525 553.186 920.341C560.543 912.095 564.401 901.309 563.942 890.267C563.483 879.226 558.743 868.797 550.727 861.19C549.943 860.455 549.133 859.751 548.296 859.078C528.891 843.621 485.794 852.515 458.249 839.596L409.041 907.702L414.697 923.565L397.579 931.898L383.126 938.934L366.581 946.989L312.343 973.392C307.426 975.85 303.044 979.257 299.45 983.417C295.856 987.577 293.121 992.407 291.403 997.629C289.686 1002.85 289.019 1008.36 289.441 1013.84C289.863 1019.32 291.367 1024.67 293.865 1029.56C294.413 1030.67 295.007 1031.76 295.649 1032.82L275.505 1133.17C275.505 1133.17 281.048 1150.64 272.327 1149C263.606 1147.37 268.358 1168.77 268.358 1168.77L255.555 1232.56Z" fill="#2F2E41"/>
<path d="M246.84 1340.55L231.956 1332.79L236.633 1317.35L222.494 1327.85L183.016 1307.24C181.124 1306.26 179.596 1304.69 178.657 1302.77C177.718 1300.86 177.417 1298.69 177.797 1296.59C178.176 1294.49 179.217 1292.56 180.768 1291.1C182.319 1289.63 184.298 1288.7 186.416 1288.43L229.306 1283.12L236.721 1268.91L268.848 1288.19L246.84 1340.55Z" fill="#2F2E41"/>
<path d="M680.848 904.261L657.625 848.137L639.327 858.302L650.377 915.394C649.271 919.011 649.195 922.865 650.158 926.523C651.122 930.18 653.087 933.497 655.832 936.099C658.577 938.701 661.994 940.486 665.697 941.253C669.401 942.02 673.246 941.739 676.799 940.441C680.351 939.143 683.472 936.879 685.808 933.905C688.145 930.931 689.606 927.364 690.027 923.605C690.448 919.846 689.812 916.044 688.19 912.627C686.569 909.209 684.026 906.312 680.848 904.261Z" fill="#DCA592"/>
<path d="M291.147 460.454L326.483 509.856L342.001 495.809L318.303 442.706C318.561 438.932 317.762 435.161 315.994 431.817C314.227 428.473 311.562 425.688 308.299 423.775C305.035 421.862 301.303 420.898 297.522 420.99C293.741 421.082 290.06 422.227 286.894 424.297C283.727 426.366 281.201 429.278 279.599 432.704C277.997 436.13 277.382 439.936 277.824 443.692C278.266 447.449 279.747 451.008 282.1 453.969C284.454 456.93 287.587 459.176 291.147 460.454H291.147Z" fill="#DCA592"/>
<path d="M450.718 773.572C427.798 809.122 511.766 886.58 555.972 868.467C563.712 865.296 590.339 854.82 572.139 840.297C553.939 825.773 574.249 842.027 574.729 832.573C575.05 826.252 570.156 812.386 575.262 812.981C580.368 813.575 583.299 798.808 572.178 795.046C568.312 793.665 564.919 791.211 562.399 787.97C559.878 784.729 558.334 780.836 557.947 776.749C556.884 737.783 570.08 697.1 570.08 697.1L623.951 834.808C623.951 834.808 623.554 858.632 630.423 851.351C637.293 844.071 636.793 867.634 636.793 867.634C636.793 867.634 647.008 874.763 641.134 878.731C635.26 882.699 647.458 894.897 647.458 894.897L675.921 892.864C675.921 892.864 675.475 871.72 670.615 867.044C665.756 862.368 668.143 855.011 668.143 855.011C668.143 855.011 658.124 845.691 663.973 834.716C669.822 823.74 621.378 627.424 621.378 627.424C619.438 617.979 614.923 609.254 608.333 602.215C601.744 595.175 593.336 590.095 584.04 587.535L553.298 579.071L547.839 557.412H504.553L497.014 571.644L427.89 565.544C427.89 565.544 359.494 503.313 362.833 498.454C366.172 493.595 355.57 482.219 355.57 482.219C355.57 482.219 346.515 479.255 351.624 477.673C356.734 476.091 347.076 472.432 347.076 472.432C347.076 472.432 338.131 470.082 342.35 466.987C346.569 463.892 328.271 461.859 328.271 461.859L304.531 481.229L309.329 489.365C309.329 489.365 306.404 500.444 310.222 496.4C314.04 492.355 314.759 504.093 314.759 504.093C314.759 504.093 316.708 516.945 328.271 520.818C339.834 524.69 348.602 561.478 348.602 561.478L446.187 642.8C431.325 659.86 434.862 677.699 448.029 695.947L450.718 773.572Z" fill="#6C63FF"/>
<path d="M525.221 543.022C551.108 543.022 572.094 522.036 572.094 496.149C572.094 470.262 551.108 449.276 525.221 449.276C499.334 449.276 478.348 470.262 478.348 496.149C478.348 522.036 499.334 543.022 525.221 543.022Z" fill="#DCA592"/>
<path d="M566.137 482.191C564.937 482.536 547.331 484.834 539.707 486.257C532.226 487.659 530.925 478.125 524.805 479.914C524.808 479.872 524.801 479.83 524.785 479.792C523.836 474.74 522.216 469.837 519.966 465.215C520.782 469.642 520.899 474.17 520.312 478.633C520.309 478.749 520.295 478.865 520.272 478.978C520.251 479.182 520.211 479.365 520.19 479.568C513.725 476.722 509.618 479.263 505.146 480.158C500.144 481.154 496.241 483.349 499.047 500.488C504.8 535.741 534.726 548.325 529.542 571.644C528.526 576.259 525.964 582.033 522.752 583.477C521.803 578.425 520.183 573.522 517.934 568.9C518.75 573.327 518.866 577.855 518.279 582.318C513.298 576.93 509.7 558.104 492.948 543.182C488.82 539.522 468.144 517.809 465.664 512.686C466.425 516.782 466.793 520.942 466.762 525.108C466.767 527.896 466.577 530.682 466.193 533.444C466.193 533.621 466.172 533.799 466.132 533.972C466.111 534.297 466.05 534.582 466.01 534.887C465.969 535.233 465.908 535.558 465.847 535.904C459.077 534.928 453.08 533.748 450.254 530.984C436.51 517.606 453.283 491.543 462.452 467.959C475.565 434.191 513.644 429.698 517.344 429.332C533.649 427.685 561.197 431.182 570.203 449.662C576.505 462.612 572.48 480.361 566.137 482.191Z" fill="#2F2E41"/>
<path d="M467.301 489.811L501.255 436.992C493.117 432.268 483.852 429.837 474.443 429.958C469.754 430.056 465.138 431.14 460.896 433.141C456.655 435.142 452.882 438.014 449.825 441.57C442.89 450.188 441.7 462.372 444.298 473.124C445.196 476.838 462.283 463.771 458.216 469.871C454.878 474.646 449.42 494.717 448.051 500.366C445.848 509.457 439.79 518.79 445.187 526.431C451.568 535.467 462.955 539.958 474.008 540.414C485.061 540.87 495.94 537.807 506.443 534.338L467.301 489.811Z" fill="#2F2E41"/>
<path d="M480.347 487.729C479.857 487.729 479.383 487.551 479.014 487.229C478.644 486.907 478.403 486.462 478.336 485.976C478.268 485.491 478.378 484.997 478.646 484.586C478.914 484.176 479.321 483.875 479.792 483.741C480.325 482.861 480.107 479.16 479.931 476.169C479.27 464.938 478.163 446.143 496.411 433.455C496.854 433.147 497.4 433.028 497.931 433.123C498.461 433.218 498.932 433.521 499.24 433.963C499.548 434.406 499.667 434.952 499.572 435.483C499.477 436.014 499.174 436.485 498.732 436.792C482.356 448.18 483.339 464.88 483.99 475.929C484.362 482.247 484.631 486.81 480.799 487.679C480.651 487.713 480.499 487.73 480.347 487.729Z" fill="#6C63FF"/>
<path d="M1187.95 610.068C1191.28 609.747 1194.65 610.161 1197.81 611.281C1200.96 612.401 1203.84 614.2 1206.22 616.551C1208.61 618.902 1210.45 621.747 1211.62 624.887C1212.79 628.028 1213.26 631.386 1212.99 634.725L1287.53 667.532L1251.97 690.484L1186.64 655.811C1181.06 654.986 1175.97 652.143 1172.35 647.82C1168.72 643.497 1166.81 637.995 1166.97 632.357C1167.14 626.718 1169.36 621.335 1173.23 617.227C1177.09 613.119 1182.33 610.572 1187.95 610.068V610.068Z" fill="#FFB8B8"/>
<path d="M1488.62 569.141C1519.54 569.141 1544.6 544.08 1544.6 513.166C1544.6 482.251 1519.54 457.19 1488.62 457.19C1457.71 457.19 1432.65 482.251 1432.65 513.166C1432.65 544.08 1457.71 569.141 1488.62 569.141Z" fill="#FFB8B8"/>
<path d="M1387.31 1311.32L1359.37 1311.32L1346.08 1203.55L1387.32 1203.55L1387.31 1311.32Z" fill="#FFB8B8"/>
<path d="M1394.45 1338.4L1304.35 1338.4V1337.26C1304.35 1332.65 1305.26 1328.09 1307.02 1323.84C1308.78 1319.58 1311.37 1315.72 1314.62 1312.46C1317.88 1309.21 1321.75 1306.62 1326 1304.86C1330.25 1303.1 1334.81 1302.19 1339.42 1302.19H1339.42L1394.45 1302.19L1394.45 1338.4Z" fill="#2F2E41"/>
<path d="M1503.55 1311.32L1475.61 1311.32L1462.32 1203.55L1503.55 1203.55L1503.55 1311.32Z" fill="#FFB8B8"/>
<path d="M1510.67 1338.4L1420.58 1338.4V1337.26C1420.58 1332.65 1421.49 1328.09 1423.25 1323.84C1425.01 1319.58 1427.6 1315.72 1430.85 1312.46C1434.11 1309.21 1437.97 1306.62 1442.23 1304.86C1446.48 1303.1 1451.04 1302.19 1455.65 1302.19H1455.65L1510.68 1302.19L1510.67 1338.4Z" fill="#2F2E41"/>
<path d="M1502.23 1288.37C1501.81 1288.37 1501.39 1288.34 1500.98 1288.29L1460.08 1283.25C1457.68 1282.96 1455.47 1281.83 1453.82 1280.07C1452.18 1278.3 1451.21 1276.01 1451.09 1273.6L1439.17 1005.21C1439.13 1004.45 1438.83 1003.73 1438.33 1003.15C1437.83 1002.57 1437.15 1002.18 1436.41 1002.04C1435.66 1001.89 1434.88 1002 1434.2 1002.35C1433.52 1002.7 1432.98 1003.26 1432.66 1003.95L1402.04 1106.02L1395.73 1269.96C1395.68 1271.38 1395.33 1272.76 1394.72 1274.04C1394.1 1275.31 1393.23 1276.44 1392.15 1277.36C1391.08 1278.28 1389.82 1278.97 1388.47 1279.38C1387.12 1279.79 1385.69 1279.92 1384.29 1279.75L1348.87 1275.58C1346.34 1275.29 1344.01 1274.07 1342.33 1272.14C1340.65 1270.22 1339.76 1267.75 1339.82 1265.2L1342.82 1110.87L1366.82 868.631L1367.89 868.671L1513.8 874.295L1512.48 1278.14C1512.47 1280.86 1511.39 1283.46 1509.47 1285.37C1507.54 1287.29 1504.94 1288.37 1502.23 1288.37H1502.23Z" fill="#2F2E41"/>
<path d="M1508.26 896.433C1508.17 896.433 1508.08 896.433 1508 896.431L1361.04 892.581C1359.6 892.543 1358.19 892.202 1356.89 891.581C1355.59 890.959 1354.43 890.07 1353.5 888.973C1352.57 887.875 1351.88 886.593 1351.47 885.211C1351.07 883.828 1350.96 882.375 1351.15 880.947L1379.39 673.119C1381.15 659.086 1385.86 645.582 1393.19 633.49C1400.53 621.398 1410.33 610.989 1421.96 602.942C1432.19 595.899 1443.81 591.127 1456.04 588.946C1468.27 586.766 1480.82 587.228 1492.86 590.301C1544.15 603.298 1574.92 658.376 1561.45 713.077L1518.22 888.63C1517.66 890.852 1516.38 892.825 1514.58 894.238C1512.78 895.651 1510.55 896.423 1508.26 896.433Z" fill="#3F3D56"/>
<path d="M1315.48 731.395C1305.8 731.407 1296.32 728.592 1288.22 723.294L1202.52 667.07C1201.27 666.248 1200.21 665.16 1199.42 663.883C1198.63 662.607 1198.13 661.173 1197.96 659.683C1197.78 658.193 1197.94 656.683 1198.41 655.259C1198.89 653.836 1199.67 652.533 1200.7 651.444L1213.61 637.815C1215.02 636.32 1216.84 635.285 1218.85 634.843C1220.85 634.401 1222.94 634.574 1224.85 635.337L1320.57 673.456L1409.25 610.13C1413.39 607.169 1418.11 605.101 1423.1 604.057C1428.08 603.013 1433.23 603.015 1438.22 604.063C1443.2 605.112 1447.92 607.184 1452.06 610.148C1456.21 613.113 1459.69 616.905 1462.29 621.285C1464.89 625.665 1466.56 630.538 1467.18 635.595C1467.8 640.652 1467.37 645.783 1465.91 650.663C1464.44 655.544 1461.98 660.068 1458.68 663.948C1455.38 667.829 1451.31 670.982 1446.73 673.209L1337.13 726.441C1330.38 729.71 1322.98 731.404 1315.48 731.395Z" fill="#3F3D56"/>
<path d="M1508.02 566.698C1517.57 568.953 1529.09 570.683 1535.91 563.633C1537.12 562.302 1538.2 560.86 1539.14 559.325L1548.06 545.702C1554.9 535.267 1561.85 524.559 1564.75 512.424C1566.41 505.451 1566.67 498.218 1565.51 491.144C1564.36 484.069 1561.8 477.296 1558.01 471.216C1554.21 465.136 1549.24 459.871 1543.39 455.727C1537.55 451.583 1530.93 448.642 1523.94 447.076C1510.61 444.093 1497.58 438.961 1483.96 439.897C1470.34 440.833 1454.36 440.526 1442.93 433.06C1443.65 436.388 1447.5 451.095 1447.5 451.095C1447.5 451.095 1430.31 466.863 1426.86 470.795C1431.38 468.794 1436.29 467.855 1441.22 468.049C1446.15 468.243 1450.97 469.565 1455.31 471.914C1459.65 474.263 1463.4 477.575 1466.26 481.597C1469.12 485.619 1471.02 490.243 1471.81 495.115C1472.79 501.099 1472.22 507.736 1475.77 512.648C1479.15 517.319 1485.22 518.956 1490.32 521.653C1497.66 525.84 1503.27 532.514 1506.14 540.473C1509 548.431 1508.92 557.15 1505.92 565.057L1508.02 566.698Z" fill="#2F2E41"/>
<path d="M1433.63 888.413C1434 885.083 1435.09 881.874 1436.83 879.012C1438.58 876.151 1440.92 873.706 1443.71 871.851C1446.5 869.995 1449.67 868.774 1452.98 868.272C1456.29 867.771 1459.67 868.003 1462.89 868.95L1510.25 802.7L1525.44 842.201L1478.14 899.057C1476.19 904.351 1472.36 908.745 1467.39 911.407C1462.42 914.07 1456.64 914.816 1451.15 913.504C1445.67 912.192 1440.85 908.913 1437.62 904.288C1434.39 899.664 1432.97 894.015 1433.63 888.413H1433.63Z" fill="#FFB8B8"/>
<path d="M1487.89 884.835C1487.14 884.897 1486.39 884.878 1485.65 884.779C1484.16 884.58 1482.74 884.056 1481.48 883.245C1480.21 882.433 1479.15 881.354 1478.35 880.084L1468.34 864.203C1467.24 862.469 1466.68 860.443 1466.75 858.391C1466.82 856.338 1467.51 854.354 1468.72 852.698L1529.35 769.391L1489.94 667.801C1486.42 658.862 1486.55 648.898 1490.31 640.057C1494.07 631.215 1501.15 624.204 1510.03 620.535C1515.04 618.431 1520.46 617.464 1525.9 617.706C1531.33 617.947 1536.65 619.389 1541.46 621.929C1546.27 624.47 1550.46 628.044 1553.72 632.396C1556.98 636.748 1559.24 641.769 1560.33 647.098L1584.78 766.459C1586.48 774.877 1585.98 783.591 1583.33 791.758C1580.67 799.925 1575.95 807.268 1569.63 813.076L1493.94 882.189C1492.27 883.716 1490.14 884.646 1487.89 884.835Z" fill="#3F3D56"/>
<g clip-path="url(#clip1_824_996)">
<path d="M937.999 563.167H914.957C908.846 563.167 902.986 565.594 898.665 569.915C894.343 574.237 891.916 580.097 891.916 586.208C891.916 592.319 894.343 598.18 898.665 602.501C902.986 606.822 908.846 609.25 914.957 609.25M937.999 563.167V609.25M937.999 563.167H961.041C964.067 563.167 967.063 563.763 969.858 564.921C972.654 566.079 975.194 567.776 977.334 569.915C979.473 572.055 981.171 574.595 982.328 577.391C983.486 580.186 984.082 583.182 984.082 586.208C984.082 589.234 983.486 592.23 982.328 595.026C981.171 597.821 979.473 600.362 977.334 602.501C975.194 604.641 972.654 606.338 969.858 607.496C967.063 608.654 964.067 609.25 961.041 609.25M937.999 609.25H914.957M937.999 609.25H961.041M937.999 609.25V655.333M914.957 609.25C908.846 609.25 902.986 611.678 898.665 615.999C894.343 620.32 891.916 626.181 891.916 632.292C891.916 638.403 894.343 644.263 898.665 648.585C902.986 652.906 908.846 655.333 914.957 655.333M961.041 609.25C958.015 609.25 955.019 609.846 952.223 611.004C949.428 612.162 946.887 613.859 944.748 615.999C942.608 618.138 940.911 620.678 939.753 623.474C938.595 626.269 937.999 629.266 937.999 632.292C937.999 635.317 938.595 638.314 939.753 641.109C940.911 643.905 942.608 646.445 944.748 648.585C946.887 650.724 949.428 652.421 952.223 653.579C955.019 654.737 958.015 655.333 961.041 655.333C964.067 655.333 967.063 654.737 969.858 653.579C972.654 652.421 975.194 650.724 977.334 648.585C979.473 646.445 981.171 643.905 982.328 641.109C983.486 638.314 984.082 635.317 984.082 632.292C984.082 629.266 983.486 626.269 982.328 623.474C981.171 620.678 979.473 618.138 977.334 615.999C975.194 613.859 972.654 612.162 969.858 611.004C967.063 609.846 964.067 609.25 961.041 609.25ZM914.957 655.333C908.846 655.333 902.986 657.761 898.665 662.082C894.343 666.403 891.916 672.264 891.916 678.375C891.916 684.486 894.343 690.347 898.665 694.668C902.986 698.989 908.846 701.417 914.957 701.417C921.068 701.417 926.929 698.989 931.25 694.668C935.572 690.347 937.999 684.486 937.999 678.375V655.333M914.957 655.333H937.999" stroke="#6C63FF" stroke-width="14.3636" stroke-linecap="round" stroke-linejoin="round"/>
</g>
</g>
<defs>
<clipPath id="clip0_824_996">
<rect width="1772.81" height="923" fill="white" transform="translate(0 421)"/>
</clipPath>
<clipPath id="clip1_824_996">
<rect width="158" height="158" fill="white" transform="translate(859 550)"/>
</clipPath>
</defs>
</svg>
