<svg width="152" height="152" viewBox="0 0 152 152" fill="none" xmlns="http://www.w3.org/2000/svg">
<rect width="152" height="152" rx="5" fill="white"/>
<g clip-path="url(#clip0)">
<path d="M45.25 28H52.75C55.645 28 58 30.355 58 33.25V67.75C58 70.645 55.645 73 52.75 73H45.25C42.355 73 40 70.645 40 67.75V33.25C40 30.355 42.355 28 45.25 28Z" fill="#C24245"/>
<path d="M78.343 94.75C75.343 94.75 73.843 93.25 73.843 85.75C73.843 78.622 66.94 72.886 62.5 69.931V32.767C67.303 30.544 76.918 27.25 91.843 27.25H96.643C102.493 27.25 107.473 31.45 108.463 37.21L111.823 56.71C113.083 64.06 107.443 70.75 100.003 70.75H85.843C85.843 70.75 88.093 75.25 88.093 82.75C88.093 91.75 81.343 94.75 78.343 94.75Z" fill="#E56467"/>
</g>
<path d="M71.2734 122H68.1953L63.2266 113.359H63.1562C63.2552 114.885 63.3047 115.974 63.3047 116.625V122H61.1406V110.578H64.1953L69.1562 119.133H69.2109C69.1328 117.648 69.0938 116.599 69.0938 115.984V110.578H71.2734V122ZM79.5156 122L79.0547 120.812H78.9922C78.5911 121.318 78.1771 121.669 77.75 121.867C77.3281 122.06 76.776 122.156 76.0938 122.156C75.2552 122.156 74.5938 121.917 74.1094 121.438C73.6302 120.958 73.3906 120.276 73.3906 119.391C73.3906 118.464 73.7135 117.781 74.3594 117.344C75.0104 116.901 75.9896 116.656 77.2969 116.609L78.8125 116.562V116.18C78.8125 115.294 78.3594 114.852 77.4531 114.852C76.7552 114.852 75.9349 115.062 74.9922 115.484L74.2031 113.875C75.2083 113.349 76.3229 113.086 77.5469 113.086C78.7188 113.086 79.6172 113.341 80.2422 113.852C80.8672 114.362 81.1797 115.138 81.1797 116.18V122H79.5156ZM78.8125 117.953L77.8906 117.984C77.1979 118.005 76.6823 118.13 76.3438 118.359C76.0052 118.589 75.8359 118.938 75.8359 119.406C75.8359 120.078 76.2214 120.414 76.9922 120.414C77.5443 120.414 77.9844 120.255 78.3125 119.938C78.6458 119.62 78.8125 119.198 78.8125 118.672V117.953ZM76.3672 111.484C76.2057 111.484 76.0495 111.555 75.8984 111.695C75.7526 111.831 75.6458 112.039 75.5781 112.32H74.4141C74.4714 111.565 74.6849 110.974 75.0547 110.547C75.4297 110.12 75.9245 109.906 76.5391 109.906C76.7526 109.906 76.9609 109.951 77.1641 110.039C77.3724 110.122 77.5755 110.216 77.7734 110.32C77.9766 110.419 78.1745 110.51 78.3672 110.594C78.5599 110.677 78.75 110.719 78.9375 110.719C79.099 110.719 79.2526 110.651 79.3984 110.516C79.5495 110.38 79.6589 110.172 79.7266 109.891H80.8906C80.8333 110.646 80.6146 111.237 80.2344 111.664C79.8594 112.091 79.3698 112.305 78.7656 112.305C78.5521 112.305 78.3411 112.263 78.1328 112.18C77.9297 112.091 77.7266 111.997 77.5234 111.898C77.3255 111.794 77.1302 111.701 76.9375 111.617C76.7448 111.529 76.5547 111.484 76.3672 111.484ZM85.5391 117.617C85.5391 118.482 85.6797 119.135 85.9609 119.578C86.2474 120.021 86.7109 120.242 87.3516 120.242C87.987 120.242 88.4427 120.023 88.7188 119.586C89 119.143 89.1406 118.487 89.1406 117.617C89.1406 116.753 89 116.104 88.7188 115.672C88.4375 115.24 87.9766 115.023 87.3359 115.023C86.7005 115.023 86.2422 115.24 85.9609 115.672C85.6797 116.099 85.5391 116.747 85.5391 117.617ZM91.5781 117.617C91.5781 119.039 91.2031 120.151 90.4531 120.953C89.7031 121.755 88.6589 122.156 87.3203 122.156C86.4818 122.156 85.7422 121.974 85.1016 121.609C84.4609 121.24 83.9688 120.711 83.625 120.023C83.2812 119.336 83.1094 118.534 83.1094 117.617C83.1094 116.19 83.4818 115.081 84.2266 114.289C84.9714 113.497 86.0182 113.102 87.3672 113.102C88.2057 113.102 88.9453 113.284 89.5859 113.648C90.2266 114.013 90.7188 114.536 91.0625 115.219C91.4062 115.901 91.5781 116.701 91.5781 117.617Z" fill="#525252"/>
<defs>
<clipPath id="clip0">
<rect width="72" height="72" fill="white" transform="matrix(1 0 0 -1 40 97)"/>
</clipPath>
</defs>
</svg>
