<svg width="152" height="152" viewBox="0 0 152 152" fill="none" xmlns="http://www.w3.org/2000/svg">
<rect width="152" height="152" rx="5" fill="white"/>
<g clip-path="url(#clip0)">
<path d="M45.25 94H52.75C55.645 94 58 91.645 58 88.75V54.25C58 51.355 55.645 49 52.75 49H45.25C42.355 49 40 51.355 40 54.25V88.75C40 91.645 42.355 94 45.25 94Z" fill="#6DAE90"/>
<path d="M78.343 27.25C75.343 27.25 73.843 28.75 73.843 36.25C73.843 43.378 66.94 49.114 62.5 52.069V89.233C67.303 91.456 76.918 94.75 91.843 94.75H96.643C102.493 94.75 107.473 90.55 108.463 84.79L111.823 65.29C113.083 57.94 107.443 51.25 100.003 51.25H85.843C85.843 51.25 88.093 46.75 88.093 39.25C88.093 30.25 81.343 27.25 78.343 27.25Z" fill="#81CAA8"/>
</g>
<path d="M69.4688 118.828C69.4688 119.859 69.0964 120.672 68.3516 121.266C67.612 121.859 66.5807 122.156 65.2578 122.156C64.0391 122.156 62.9609 121.927 62.0234 121.469V119.219C62.7943 119.562 63.4453 119.805 63.9766 119.945C64.513 120.086 65.0026 120.156 65.4453 120.156C65.9766 120.156 66.3828 120.055 66.6641 119.852C66.9505 119.648 67.0938 119.346 67.0938 118.945C67.0938 118.721 67.0312 118.523 66.9062 118.352C66.7812 118.174 66.5964 118.005 66.3516 117.844C66.112 117.682 65.6198 117.424 64.875 117.07C64.1771 116.742 63.6536 116.427 63.3047 116.125C62.9557 115.823 62.6771 115.471 62.4688 115.07C62.2604 114.669 62.1562 114.201 62.1562 113.664C62.1562 112.654 62.4974 111.859 63.1797 111.281C63.8672 110.703 64.8151 110.414 66.0234 110.414C66.6172 110.414 67.1823 110.484 67.7188 110.625C68.2604 110.766 68.8255 110.964 69.4141 111.219L68.6328 113.102C68.0234 112.852 67.5182 112.677 67.1172 112.578C66.7214 112.479 66.3307 112.43 65.9453 112.43C65.487 112.43 65.1354 112.536 64.8906 112.75C64.6458 112.964 64.5234 113.242 64.5234 113.586C64.5234 113.799 64.5729 113.987 64.6719 114.148C64.7708 114.305 64.9271 114.458 65.1406 114.609C65.3594 114.755 65.8724 115.021 66.6797 115.406C67.7474 115.917 68.4792 116.43 68.875 116.945C69.2708 117.456 69.4688 118.083 69.4688 118.828ZM71.25 111.008C71.25 110.232 71.6823 109.844 72.5469 109.844C73.4115 109.844 73.8438 110.232 73.8438 111.008C73.8438 111.378 73.7344 111.667 73.5156 111.875C73.3021 112.078 72.9792 112.18 72.5469 112.18C71.6823 112.18 71.25 111.789 71.25 111.008ZM73.7344 122H71.3516V113.266H73.7344V122ZM84.0625 122H81.6797V116.898C81.6797 116.268 81.5729 115.797 81.3594 115.484C81.151 115.167 80.8203 115.008 80.3672 115.008C79.7578 115.008 79.3151 115.232 79.0391 115.68C78.763 116.128 78.625 116.865 78.625 117.891V122H76.2422V113.266H78.0625L78.3828 114.383H78.5156C78.75 113.982 79.0885 113.669 79.5312 113.445C79.974 113.216 80.4818 113.102 81.0547 113.102C82.362 113.102 83.2474 113.529 83.7109 114.383H83.9219C84.1562 113.977 84.5 113.661 84.9531 113.438C85.4115 113.214 85.9271 113.102 86.5 113.102C87.4896 113.102 88.237 113.357 88.7422 113.867C89.2526 114.372 89.5078 115.185 89.5078 116.305V122H87.1172V116.898C87.1172 116.268 87.0104 115.797 86.7969 115.484C86.5885 115.167 86.2578 115.008 85.8047 115.008C85.2214 115.008 84.7839 115.216 84.4922 115.633C84.2057 116.049 84.0625 116.711 84.0625 117.617V122Z" fill="#525252"/>
<defs>
<clipPath id="clip0">
<rect width="72" height="72" fill="white" transform="translate(40 25)"/>
</clipPath>
</defs>
</svg>
