<svg width="1853" height="1213" viewBox="0 0 1853 1213" fill="none" xmlns="http://www.w3.org/2000/svg">
<g clip-path="url(#clip0_821_1003)">
<path d="M340.59 642.542C357.64 569.146 389.06 512.769 431.238 468.019C445.152 453.284 460.219 439.684 476.297 427.348C618.652 317.516 841.993 291.186 1056.19 214.256C1688.48 -12.8188 1615.95 569.571 1509.73 914.15C1466.87 1053.19 1381.74 1169.89 1271.24 1248.72C1248.03 1265.31 1223.66 1280.2 1198.31 1293.3C1079.37 1354.79 939.201 1376.16 794.099 1342.45C545.153 1284.62 367.444 1085.08 332.31 853.906C321.642 783.564 324.452 711.834 340.59 642.542Z" fill="#F2F2F2"/>
<path d="M1548.55 1004.42H1330.91C1329.72 987 1329.83 969.51 1331.23 952.1C1339.92 844.553 1398.45 742.098 1486.74 680.06C1475.46 720.244 1481.26 760.192 1493.01 800.297C1491.36 800.845 1489.72 801.315 1488.23 801.942C1476.31 806.356 1465.37 813.062 1456.03 821.681C1453.44 824.109 1450.7 827.634 1452.03 831.002C1453.21 833.822 1456.73 834.762 1459.79 835.389C1467.15 836.799 1474.52 838.208 1481.8 839.54C1487.68 840.715 1493.56 841.812 1499.43 842.987C1502.17 843.457 1504.92 844.005 1507.66 844.553C1508.05 845.493 1508.28 846.355 1508.68 847.217C1522.46 885.206 1537.51 923.51 1544.56 962.44C1546.3 972.209 1547.51 982.068 1548.16 991.97C1548.4 996.122 1548.55 1000.27 1548.55 1004.42Z" fill="#F2F2F2"/>
<path d="M556.136 861.864C519.157 884.345 495.654 919.123 476.46 958.053C459.757 961.859 444.337 969.96 431.725 981.552C429.061 983.981 426.319 987.505 427.729 990.873C428.905 993.694 432.43 994.634 435.485 995.26C442.771 996.67 450.214 998.08 457.5 999.412C456.795 1001.06 456.09 1002.78 455.385 1004.42H210.95C222.047 989.463 234.334 975.422 247.694 962.44C250.593 959.541 253.57 956.8 256.625 953.98C287.785 925.826 323.563 903.25 362.39 887.243C423.558 861.677 490.446 852.915 556.136 861.864Z" fill="#F2F2F2"/>
<path d="M439.881 964.658C439.878 971.856 441.258 978.987 443.944 985.665C444.976 988.255 446.208 990.76 447.629 993.159C449.463 996.287 451.592 999.233 453.987 1001.96C459.276 1007.98 465.79 1012.81 473.095 1016.12C480.4 1019.42 488.327 1021.13 496.345 1021.13H1320.17C1335.14 1021.13 1349.51 1015.19 1360.1 1004.6C1370.68 994.011 1376.63 979.652 1376.63 964.679C1376.63 949.707 1370.68 935.348 1360.1 924.761C1349.51 914.174 1335.14 908.226 1320.17 908.226H496.345C481.378 908.24 467.028 914.19 456.443 924.769C445.858 935.349 439.901 949.694 439.881 964.658Z" fill="#E6E6E6"/>
<path d="M0 996.905C18.2893 1018.57 38.0711 1038.93 59.201 1057.84H1757.29C1778.42 1038.93 1798.2 1018.57 1816.49 996.905H0Z" fill="#3F3D56"/>
<path d="M835.151 793.129V1009.01H986.417V793.129C986.419 791.577 985.924 790.064 985.003 788.814C984.082 787.564 982.784 786.642 981.301 786.183C980.601 785.952 979.869 785.838 979.132 785.846H842.456C841.498 785.844 840.549 786.031 839.663 786.397C838.777 786.762 837.972 787.298 837.294 787.974C836.615 788.65 836.077 789.454 835.709 790.339C835.341 791.223 835.152 792.171 835.151 793.129ZM894.183 867.306C894.223 863.051 895.942 858.983 898.966 855.988C901.99 852.993 906.075 851.313 910.331 851.313C914.588 851.313 918.672 852.993 921.696 855.988C924.72 858.983 926.439 863.051 926.479 867.306V892.355C926.457 896.622 924.746 900.708 921.72 903.718C918.694 906.728 914.6 908.417 910.331 908.417C906.063 908.417 901.968 906.728 898.942 903.718C895.916 900.708 894.205 896.622 894.183 892.355V867.306Z" fill="#2F2E41"/>
<path d="M834.688 1002.1V1022.92C834.691 1024 835.12 1025.03 835.881 1025.8C836.641 1026.56 837.673 1027 838.751 1027.01H982.817C983.896 1027 984.93 1026.57 985.691 1025.8C986.453 1025.04 986.88 1024 986.88 1022.92V1002.1H834.688Z" fill="#3F3D56"/>
<path d="M597.189 467.879V862.044C597.193 867.067 599.19 871.883 602.743 875.435C606.296 878.987 611.113 880.984 616.137 880.988H1200.36C1205.38 880.984 1210.2 878.987 1213.75 875.435C1217.3 871.883 1219.3 867.067 1219.3 862.044V467.879C1219.29 462.86 1217.29 458.051 1213.74 454.504C1210.19 450.957 1205.38 448.962 1200.36 448.956H616.137C611.117 448.962 606.305 450.957 602.753 454.504C599.202 458.051 597.201 462.86 597.189 467.879Z" fill="#3F3D56"/>
<path d="M610.895 472.783V857.182C610.899 859.865 611.968 862.438 613.866 864.336C615.764 866.233 618.337 867.302 621.021 867.306H1195.49C1198.18 867.302 1200.75 866.233 1202.65 864.336C1204.55 862.438 1205.62 859.865 1205.62 857.182V472.783C1205.62 470.096 1204.55 467.519 1202.66 465.617C1200.76 463.715 1198.18 462.644 1195.49 462.638H621.021C618.333 462.644 615.758 463.715 613.86 465.617C611.961 467.519 610.895 470.096 610.895 472.783Z" fill="#81CAA8"/>
<path d="M728.033 1031.91C728.618 1032.64 729.361 1033.23 730.207 1033.64C731.053 1034.04 731.98 1034.25 732.918 1034.25H1074.69C1075.63 1034.25 1076.55 1034.04 1077.39 1033.63C1078.24 1033.23 1078.98 1032.65 1079.57 1031.92C1080.16 1031.19 1080.58 1030.35 1080.8 1029.44C1081.02 1028.53 1081.03 1027.58 1080.84 1026.67L1075.53 1001.47C1075.31 1000.45 1074.84 999.49 1074.16 998.692C1073.47 997.894 1072.6 997.28 1071.62 996.905C1070.91 996.627 1070.15 996.484 1069.39 996.484H738.202C737.438 996.484 736.681 996.627 735.97 996.905C734.988 997.28 734.116 997.894 733.432 998.692C732.748 999.489 732.274 1000.45 732.055 1001.47L726.749 1026.67C726.56 1027.58 726.578 1028.53 726.8 1029.43C727.022 1030.34 727.443 1031.19 728.033 1031.91Z" fill="#2F2E41"/>
<path d="M1057.46 1007.34H1065.93C1066.5 1007.34 1066.96 1006.88 1066.96 1006.31V1002.05C1066.96 1001.48 1066.5 1001.02 1065.93 1001.02H1057.46C1056.89 1001.02 1056.43 1001.48 1056.43 1002.05V1006.31C1056.43 1006.88 1056.89 1007.34 1057.46 1007.34Z" fill="#3F3D56"/>
<path d="M1036.41 1007.34H1044.88C1045.45 1007.34 1045.91 1006.88 1045.91 1006.31V1002.05C1045.91 1001.48 1045.45 1001.02 1044.88 1001.02H1036.41C1035.84 1001.02 1035.38 1001.48 1035.38 1002.05V1006.31C1035.38 1006.88 1035.84 1007.34 1036.41 1007.34Z" fill="#3F3D56"/>
<path d="M1015.35 1007.34H1023.83C1024.39 1007.34 1024.85 1006.88 1024.85 1006.31V1002.05C1024.85 1001.48 1024.39 1001.02 1023.83 1001.02H1015.35C1014.79 1001.02 1014.33 1001.48 1014.33 1002.05V1006.31C1014.33 1006.88 1014.79 1007.34 1015.35 1007.34Z" fill="#3F3D56"/>
<path d="M994.301 1007.34H1002.77C1003.34 1007.34 1003.8 1006.88 1003.8 1006.31V1002.05C1003.8 1001.48 1003.34 1001.02 1002.77 1001.02H994.301C993.734 1001.02 993.273 1001.48 993.273 1002.05V1006.31C993.273 1006.88 993.734 1007.34 994.301 1007.34Z" fill="#3F3D56"/>
<path d="M973.248 1007.34H981.719C982.287 1007.34 982.747 1006.88 982.747 1006.31V1002.05C982.747 1001.48 982.287 1001.02 981.719 1001.02H973.248C972.681 1001.02 972.221 1001.48 972.221 1002.05V1006.31C972.221 1006.88 972.681 1007.34 973.248 1007.34Z" fill="#3F3D56"/>
<path d="M952.195 1007.34H960.666C961.234 1007.34 961.694 1006.88 961.694 1006.31V1002.05C961.694 1001.48 961.234 1001.02 960.666 1001.02H952.195C951.628 1001.02 951.168 1001.48 951.168 1002.05V1006.31C951.168 1006.88 951.628 1007.34 952.195 1007.34Z" fill="#3F3D56"/>
<path d="M931.142 1007.34H939.613C940.181 1007.34 940.641 1006.88 940.641 1006.31V1002.05C940.641 1001.48 940.181 1001.02 939.613 1001.02H931.142C930.575 1001.02 930.115 1001.48 930.115 1002.05V1006.31C930.115 1006.88 930.575 1007.34 931.142 1007.34Z" fill="#3F3D56"/>
<path d="M910.089 1007.34H918.56C919.128 1007.34 919.588 1006.88 919.588 1006.31V1002.05C919.588 1001.48 919.128 1001.02 918.56 1001.02H910.089C909.522 1001.02 909.062 1001.48 909.062 1002.05V1006.31C909.062 1006.88 909.522 1007.34 910.089 1007.34Z" fill="#3F3D56"/>
<path d="M889.036 1007.34H897.507C898.075 1007.34 898.535 1006.88 898.535 1006.31V1002.05C898.535 1001.48 898.075 1001.02 897.507 1001.02H889.036C888.469 1001.02 888.009 1001.48 888.009 1002.05V1006.31C888.009 1006.88 888.469 1007.34 889.036 1007.34Z" fill="#3F3D56"/>
<path d="M867.983 1007.34H876.454C877.022 1007.34 877.482 1006.88 877.482 1006.31V1002.05C877.482 1001.48 877.022 1001.02 876.454 1001.02H867.983C867.416 1001.02 866.956 1001.48 866.956 1002.05V1006.31C866.956 1006.88 867.416 1007.34 867.983 1007.34Z" fill="#3F3D56"/>
<path d="M846.93 1007.34H855.401C855.969 1007.34 856.429 1006.88 856.429 1006.31V1002.05C856.429 1001.48 855.969 1001.02 855.401 1001.02H846.93C846.363 1001.02 845.903 1001.48 845.903 1002.05V1006.31C845.903 1006.88 846.363 1007.34 846.93 1007.34Z" fill="#3F3D56"/>
<path d="M825.877 1007.34H834.348C834.916 1007.34 835.376 1006.88 835.376 1006.31V1002.05C835.376 1001.48 834.916 1001.02 834.348 1001.02H825.877C825.31 1001.02 824.85 1001.48 824.85 1002.05V1006.31C824.85 1006.88 825.31 1007.34 825.877 1007.34Z" fill="#3F3D56"/>
<path d="M804.824 1007.34H813.295C813.863 1007.34 814.323 1006.88 814.323 1006.31V1002.05C814.323 1001.48 813.863 1001.02 813.295 1001.02H804.824C804.257 1001.02 803.797 1001.48 803.797 1002.05V1006.31C803.797 1006.88 804.257 1007.34 804.824 1007.34Z" fill="#3F3D56"/>
<path d="M783.771 1007.34H792.242C792.81 1007.34 793.27 1006.88 793.27 1006.31V1002.05C793.27 1001.48 792.81 1001.02 792.242 1001.02H783.771C783.204 1001.02 782.744 1001.48 782.744 1002.05V1006.31C782.744 1006.88 783.204 1007.34 783.771 1007.34Z" fill="#3F3D56"/>
<path d="M762.718 1007.34H771.189C771.757 1007.34 772.217 1006.88 772.217 1006.31V1002.05C772.217 1001.48 771.757 1001.02 771.189 1001.02H762.718C762.151 1001.02 761.691 1001.48 761.691 1002.05V1006.31C761.691 1006.88 762.151 1007.34 762.718 1007.34Z" fill="#3F3D56"/>
<path d="M741.665 1007.34H750.136C750.704 1007.34 751.164 1006.88 751.164 1006.31V1002.05C751.164 1001.48 750.704 1001.02 750.136 1001.02H741.665C741.098 1001.02 740.638 1001.48 740.638 1002.05V1006.31C740.638 1006.88 741.098 1007.34 741.665 1007.34Z" fill="#3F3D56"/>
<path d="M1057.71 1017.86H1066.18C1066.75 1017.86 1067.21 1017.4 1067.21 1016.83V1012.57C1067.21 1012.01 1066.75 1011.55 1066.18 1011.55H1057.71C1057.14 1011.55 1056.68 1012.01 1056.68 1012.57V1016.83C1056.68 1017.4 1057.14 1017.86 1057.71 1017.86Z" fill="#3F3D56"/>
<path d="M1036.66 1017.86H1045.13C1045.69 1017.86 1046.15 1017.4 1046.15 1016.83V1012.57C1046.15 1012.01 1045.69 1011.55 1045.13 1011.55H1036.66C1036.09 1011.55 1035.63 1012.01 1035.63 1012.57V1016.83C1035.63 1017.4 1036.09 1017.86 1036.66 1017.86Z" fill="#3F3D56"/>
<path d="M1015.6 1017.86H1024.07C1024.64 1017.86 1025.1 1017.4 1025.1 1016.83V1012.57C1025.1 1012.01 1024.64 1011.55 1024.07 1011.55H1015.6C1015.04 1011.55 1014.58 1012.01 1014.58 1012.57V1016.83C1014.58 1017.4 1015.04 1017.86 1015.6 1017.86Z" fill="#3F3D56"/>
<path d="M994.55 1017.86H1003.02C1003.59 1017.86 1004.05 1017.4 1004.05 1016.83V1012.57C1004.05 1012.01 1003.59 1011.55 1003.02 1011.55H994.55C993.983 1011.55 993.522 1012.01 993.522 1012.57V1016.83C993.522 1017.4 993.983 1017.86 994.55 1017.86Z" fill="#3F3D56"/>
<path d="M973.497 1017.86H981.968C982.536 1017.86 982.996 1017.4 982.996 1016.83V1012.57C982.996 1012.01 982.536 1011.55 981.968 1011.55H973.497C972.93 1011.55 972.47 1012.01 972.47 1012.57V1016.83C972.47 1017.4 972.93 1017.86 973.497 1017.86Z" fill="#3F3D56"/>
<path d="M952.444 1017.86H960.915C961.483 1017.86 961.943 1017.4 961.943 1016.83V1012.57C961.943 1012.01 961.483 1011.55 960.915 1011.55H952.444C951.876 1011.55 951.416 1012.01 951.416 1012.57V1016.83C951.416 1017.4 951.876 1017.86 952.444 1017.86Z" fill="#3F3D56"/>
<path d="M931.391 1017.86H939.862C940.43 1017.86 940.89 1017.4 940.89 1016.83V1012.57C940.89 1012.01 940.43 1011.55 939.862 1011.55H931.391C930.823 1011.55 930.363 1012.01 930.363 1012.57V1016.83C930.363 1017.4 930.823 1017.86 931.391 1017.86Z" fill="#3F3D56"/>
<path d="M910.338 1017.86H918.809C919.377 1017.86 919.837 1017.4 919.837 1016.83V1012.57C919.837 1012.01 919.377 1011.55 918.809 1011.55H910.338C909.771 1011.55 909.31 1012.01 909.31 1012.57V1016.83C909.31 1017.4 909.771 1017.86 910.338 1017.86Z" fill="#3F3D56"/>
<path d="M889.285 1017.86H897.756C898.324 1017.86 898.784 1017.4 898.784 1016.83V1012.57C898.784 1012.01 898.324 1011.55 897.756 1011.55H889.285C888.717 1011.55 888.257 1012.01 888.257 1012.57V1016.83C888.257 1017.4 888.717 1017.86 889.285 1017.86Z" fill="#3F3D56"/>
<path d="M868.232 1017.86H876.703C877.271 1017.86 877.731 1017.4 877.731 1016.83V1012.57C877.731 1012.01 877.271 1011.55 876.703 1011.55H868.232C867.665 1011.55 867.204 1012.01 867.204 1012.57V1016.83C867.204 1017.4 867.665 1017.86 868.232 1017.86Z" fill="#3F3D56"/>
<path d="M847.179 1017.86H855.65C856.218 1017.86 856.678 1017.4 856.678 1016.83V1012.57C856.678 1012.01 856.218 1011.55 855.65 1011.55H847.179C846.612 1011.55 846.151 1012.01 846.151 1012.57V1016.83C846.151 1017.4 846.612 1017.86 847.179 1017.86Z" fill="#3F3D56"/>
<path d="M826.126 1017.86H834.597C835.165 1017.86 835.625 1017.4 835.625 1016.83V1012.57C835.625 1012.01 835.165 1011.55 834.597 1011.55H826.126C825.559 1011.55 825.098 1012.01 825.098 1012.57V1016.83C825.098 1017.4 825.559 1017.86 826.126 1017.86Z" fill="#3F3D56"/>
<path d="M805.073 1017.86H813.544C814.112 1017.86 814.572 1017.4 814.572 1016.83V1012.57C814.572 1012.01 814.112 1011.55 813.544 1011.55H805.073C804.506 1011.55 804.046 1012.01 804.046 1012.57V1016.83C804.046 1017.4 804.506 1017.86 805.073 1017.86Z" fill="#3F3D56"/>
<path d="M784.02 1017.86H792.491C793.059 1017.86 793.519 1017.4 793.519 1016.83V1012.57C793.519 1012.01 793.059 1011.55 792.491 1011.55H784.02C783.453 1011.55 782.993 1012.01 782.993 1012.57V1016.83C782.993 1017.4 783.453 1017.86 784.02 1017.86Z" fill="#3F3D56"/>
<path d="M762.967 1017.86H771.438C772.006 1017.86 772.466 1017.4 772.466 1016.83V1012.57C772.466 1012.01 772.006 1011.55 771.438 1011.55H762.967C762.4 1011.55 761.94 1012.01 761.94 1012.57V1016.83C761.94 1017.4 762.4 1017.86 762.967 1017.86Z" fill="#3F3D56"/>
<path d="M741.914 1017.86H750.385C750.953 1017.86 751.413 1017.4 751.413 1016.83V1012.57C751.413 1012.01 750.953 1011.55 750.385 1011.55H741.914C741.347 1011.55 740.887 1012.01 740.887 1012.57V1016.83C740.887 1017.4 741.347 1017.86 741.914 1017.86Z" fill="#3F3D56"/>
<path d="M882.969 1030.49H965.126C965.693 1030.49 966.154 1030.03 966.154 1029.46V1025.2C966.154 1024.64 965.693 1024.18 965.126 1024.18H882.969C882.402 1024.18 881.942 1024.64 881.942 1025.2V1029.46C881.942 1030.03 882.402 1030.49 882.969 1030.49Z" fill="#3F3D56"/>
<path d="M649.888 515.59H1187.42C1187.98 515.578 1188.51 515.347 1188.9 514.948C1189.29 514.549 1189.51 514.012 1189.51 513.453C1189.51 512.894 1189.29 512.358 1188.9 511.958C1188.51 511.559 1187.98 511.328 1187.42 511.316H649.888C649.33 511.328 648.798 511.559 648.407 511.958C648.016 512.358 647.797 512.894 647.797 513.453C647.797 514.012 648.016 514.549 648.407 514.948C648.798 515.347 649.33 515.578 649.888 515.59Z" fill="#3F3D56"/>
<path d="M1150.83 500.404C1157.75 500.404 1163.36 494.671 1163.36 487.599C1163.36 480.528 1157.75 474.795 1150.83 474.795C1143.91 474.795 1138.3 480.528 1138.3 487.599C1138.3 494.671 1143.91 500.404 1150.83 500.404Z" fill="#3F3D56"/>
<path d="M1107.55 500.404C1114.47 500.404 1120.08 494.671 1120.08 487.599C1120.08 480.528 1114.47 474.795 1107.55 474.795C1100.63 474.795 1095.03 480.528 1095.03 487.599C1095.03 494.671 1100.63 500.404 1107.55 500.404Z" fill="#3F3D56"/>
<path d="M1064.28 500.404C1071.2 500.404 1076.8 494.671 1076.8 487.599C1076.8 480.528 1071.2 474.795 1064.28 474.795C1057.36 474.795 1051.75 480.528 1051.75 487.599C1051.75 494.671 1057.36 500.404 1064.28 500.404Z" fill="#3F3D56"/>
<path d="M673.653 480.298C673.652 480.601 673.71 480.901 673.825 481.181C673.939 481.461 674.108 481.716 674.321 481.931C674.534 482.146 674.788 482.317 675.067 482.434C675.346 482.551 675.645 482.612 675.948 482.613H706.686C707.293 482.599 707.871 482.348 708.296 481.913C708.721 481.479 708.958 480.895 708.958 480.287C708.958 479.68 708.721 479.096 708.296 478.662C707.871 478.227 707.293 477.976 706.686 477.961H675.948C675.335 477.969 674.749 478.219 674.319 478.657C673.889 479.094 673.65 479.684 673.653 480.298Z" fill="#3F3D56"/>
<path d="M673.653 489.033C673.652 489.336 673.71 489.636 673.825 489.916C673.939 490.196 674.108 490.451 674.321 490.666C674.534 490.881 674.787 491.052 675.067 491.169C675.346 491.286 675.645 491.347 675.948 491.349H706.685C707.294 491.335 707.872 491.084 708.298 490.65C708.723 490.215 708.961 489.631 708.961 489.023C708.961 488.415 708.723 487.831 708.298 487.396C707.872 486.961 707.294 486.71 706.685 486.697H675.948C675.335 486.704 674.749 486.954 674.319 487.392C673.889 487.83 673.65 488.42 673.653 489.033Z" fill="#3F3D56"/>
<path d="M673.653 497.748C673.65 498.361 673.889 498.951 674.319 499.389C674.749 499.827 675.335 500.077 675.948 500.084H706.686C707.293 500.07 707.871 499.819 708.296 499.384C708.721 498.949 708.958 498.366 708.958 497.758C708.958 497.151 708.721 496.567 708.296 496.132C707.871 495.698 707.293 495.446 706.686 495.432H675.948C675.645 495.434 675.346 495.495 675.067 495.612C674.788 495.729 674.534 495.9 674.321 496.115C674.108 496.33 673.939 496.585 673.825 496.865C673.71 497.145 673.652 497.445 673.653 497.748Z" fill="#3F3D56"/>
<path d="M736.669 1149.18C736.206 1149.41 735.743 1149.64 735.28 1149.85C732.353 1151.31 729.406 1152.74 726.438 1154.15C717.553 1158.38 708.556 1162.4 699.448 1166.21C675.48 1176.23 650.888 1184.69 625.825 1191.53C621.615 1165.28 617.53 1103.38 613.615 1057.85C612.878 1049.28 612.141 1041.3 611.404 1034.25C610.704 1024.99 609.375 1015.8 607.425 1006.72C607.234 1006.01 606.959 1005.32 606.604 1004.68C607.004 1008.32 607.425 1019.18 607.825 1034.25C608.036 1041.3 608.225 1049.28 608.436 1057.85C609.425 1101.67 610.457 1161.3 611.488 1195.26C608.562 1195.97 605.614 1196.69 602.667 1197.36C600.814 1197.8 598.941 1198.22 597.067 1198.62C594.793 1199.13 592.519 1199.63 590.246 1200.1C587.867 1200.6 585.488 1201.09 583.109 1201.55C544.232 1209.18 504.705 1213.02 465.086 1213C462.454 1213 459.844 1212.98 457.212 1212.96C456.412 1212.96 455.612 1212.94 454.791 1212.92C452.475 1212.87 450.075 1212.83 447.633 1212.77C400.813 1211.47 354.3 1204.77 309.02 1192.79L310.852 1057.85L311.167 1034.25L311.294 1025.31C310.251 1028.18 309.627 1031.2 309.441 1034.25C308.704 1040 307.946 1048.14 307.188 1057.85C304.304 1095.23 301.336 1155.54 298.262 1189.85C261.861 1179.49 235.25 1170.04 201.987 1153.41C200.702 1152.78 199.397 1152.13 198.113 1151.47C198.344 1149.85 198.597 1148.23 198.829 1146.57C202.597 1120.38 198.155 1086.31 202.323 1057.85C205.502 1035.89 208.787 1014.8 212.092 996.91C216.092 975.377 220.155 958.453 224.176 950.223C228.808 940.73 233.44 931.384 237.924 922.438C239.861 918.586 241.763 914.805 243.629 911.093C244.64 909.093 245.65 907.115 246.64 905.178C251.145 896.359 255.398 888.213 259.293 880.993C262.03 875.92 264.556 871.331 266.872 867.311C269.588 862.575 271.988 858.66 273.967 855.692C288.584 833.539 310.333 817.044 335.61 808.942L336.241 808.773L336.852 809.026L337.547 809.342L377.674 794.67L395.59 751.541L487.612 745.879L502.476 757.182L510.076 762.971L518.181 769.138L533.087 780.483L537.318 781.788L543.613 783.725L586.667 796.944L587.109 796.754L587.74 796.923C610.742 804.284 630.876 818.632 645.341 837.968C646.773 839.821 648.099 841.736 649.383 843.673C652.878 848.851 657.594 857.039 663.152 867.311C665.447 871.542 667.868 876.13 670.415 880.993C671.952 883.919 685.216 925.301 698.121 967.568C710.185 1007.14 721.932 1047.49 723.469 1057.85C723.743 1059.76 724.037 1061.7 724.311 1063.61C726.058 1075.59 727.785 1087.65 729.448 1099.42C731.911 1116.87 734.311 1133.71 736.606 1148.76C736.627 1148.91 736.648 1149.03 736.669 1149.18Z" fill="#3F3D56"/>
<path opacity="0.2" d="M639.148 996.813L621.259 927.789L605.463 987.349L639.148 996.813Z" fill="black"/>
<path d="M33.3254 996.012C34.253 998.713 36.0125 1001.05 38.3512 1002.69C40.69 1004.33 43.4877 1005.18 46.3427 1005.13L102.116 1003.69C104.992 1003.64 107.772 1002.65 110.042 1000.89C112.312 999.119 113.948 996.665 114.707 993.891L122.6 909.511C125.4 910.78 128.449 911.406 131.522 911.344C136.915 911.209 142.033 908.937 145.751 905.029C149.468 901.121 151.481 895.896 151.345 890.504C151.21 885.112 148.938 879.995 145.029 876.278C141.12 872.561 135.894 870.549 130.501 870.685C129.273 870.681 128.047 870.808 126.846 871.065C125.54 869.651 123.951 868.527 122.184 867.765C120.417 867.003 118.509 866.619 116.585 866.638L30.7926 868.853C30.081 868.879 29.3729 868.967 28.6764 869.116C26.795 869.466 25.0106 870.216 23.4432 871.314C21.8758 872.412 20.5618 873.833 19.5897 875.481C18.6177 877.129 18.01 878.967 17.8077 880.869C17.6054 882.772 17.8132 884.696 18.4169 886.512L33.3254 996.012ZM124.218 903.782L129.835 883.674C130.474 881.352 130.488 878.902 129.878 876.571C130.15 876.571 130.39 876.441 130.663 876.441C134.514 876.361 138.239 877.811 141.022 880.474C143.805 883.136 145.418 886.793 145.508 890.643C145.599 894.493 144.158 898.221 141.503 901.011C138.848 903.801 135.194 905.424 131.344 905.525C128.855 905.602 126.391 905 124.218 903.782Z" fill="#2F2E41"/>
<path d="M28.6765 869.116C30.5043 879.565 51.0539 886.91 75.7633 885.634C98.4852 884.587 117.064 876.61 120.468 867.156C119.208 866.783 117.898 866.609 116.585 866.638L30.7927 868.853C30.0811 868.879 29.373 868.967 28.6765 869.116Z" fill="#3F3D56"/>
<path d="M1652.97 1151.47C1651.69 1152.12 1650.38 1152.77 1649.1 1153.41C1615.84 1170.03 1589.22 1179.49 1552.82 1189.84C1549.75 1155.53 1546.78 1095.23 1543.9 1057.84C1543.14 1048.14 1542.38 1039.99 1541.65 1034.25C1541.46 1031.19 1540.84 1028.18 1539.79 1025.3L1539.92 1034.25L1540.23 1057.84L1542.07 1192.79C1496.79 1204.77 1450.27 1211.47 1403.45 1212.76C1401.01 1212.83 1398.61 1212.87 1396.3 1212.91C1395.47 1212.93 1394.67 1212.95 1393.87 1212.95C1391.24 1212.97 1388.63 1213 1386 1213C1336.66 1213.03 1287.5 1207.07 1239.6 1195.25C1240.63 1161.3 1241.66 1101.67 1242.65 1057.84C1242.86 1049.28 1243.05 1041.3 1243.26 1034.25C1243.66 1019.18 1244.08 1008.31 1244.48 1004.67C1244.13 1005.32 1243.85 1006 1243.66 1006.71C1241.71 1015.79 1240.38 1024.99 1239.68 1034.25C1238.95 1041.3 1238.21 1049.28 1237.47 1057.84C1233.56 1103.37 1229.47 1165.28 1225.26 1191.53C1200.2 1184.68 1175.61 1176.23 1151.64 1166.2C1139.01 1160.94 1126.6 1155.26 1114.42 1149.17C1116.73 1134.02 1119.15 1117.03 1121.64 1099.41C1123.57 1085.75 1125.57 1071.71 1127.62 1057.84C1130.77 1036.41 1238.06 805.022 1263.35 796.918L1263.98 796.75L1264.42 796.939L1307.47 783.72L1313.77 781.784L1318 780.479L1332.9 769.133L1341.01 762.966L1348.61 757.177L1363.47 745.874L1455.5 751.536L1473.41 794.666L1513.54 809.337L1514.23 809.021L1514.84 808.769L1515.48 808.937C1540.75 817.04 1562.5 833.534 1577.12 855.687C1579.1 858.655 1581.5 862.57 1584.21 867.306C1586.53 871.327 1589.06 875.915 1591.79 880.988C1595.69 888.208 1599.94 896.354 1604.45 905.174C1605.44 907.11 1606.45 909.089 1607.46 911.088C1609.33 914.793 1611.23 918.575 1613.16 922.434C1617.65 931.38 1622.28 940.725 1626.91 950.219C1630.93 958.449 1634.99 975.372 1638.99 996.905C1642.3 1014.8 1645.58 1035.89 1648.76 1057.84C1652.93 1086.3 1648.49 1120.38 1652.26 1146.56C1652.49 1148.23 1652.74 1149.85 1652.97 1151.47Z" fill="#3F3D56"/>
<path d="M1383.08 730.392C1442.19 730.392 1490.11 682.484 1490.11 623.386C1490.11 564.288 1442.19 516.38 1383.08 516.38C1323.98 516.38 1276.06 564.288 1276.06 623.386C1276.06 682.484 1323.98 730.392 1383.08 730.392Z" fill="#FFB6B6"/>
<path opacity="0.2" d="M1211.93 996.813L1229.82 927.789L1245.62 987.349L1211.93 996.813Z" fill="black"/>
<path d="M1687.96 951.839C1681.56 1039.99 1688.19 1078.81 1652.87 1151.49C1620.73 1167.22 1587.25 1180.05 1552.82 1189.84C1549.25 1190.85 1545.66 1191.83 1542.07 1192.79C1496.79 1204.77 1450.27 1211.47 1403.45 1212.76C1401.01 1212.83 1398.61 1212.87 1396.3 1212.91C1395.47 1212.93 1394.67 1212.95 1393.87 1212.95C1391.24 1212.97 1388.63 1213 1386 1213C1336.66 1213.03 1287.5 1207.07 1239.6 1195.25C1234.8 1194.07 1230.02 1192.83 1225.26 1191.53C1200.2 1184.68 1175.61 1176.23 1151.64 1166.2C1139.01 1160.94 1126.6 1155.26 1114.42 1149.17C1111.66 1147.79 1108.9 1146.4 1106.19 1144.96C1092.23 1120.42 1084.29 1090.57 1084.12 1054.71C1093.79 992.906 1666.62 898.543 1687.96 951.839Z" fill="#2F2E41"/>
<path opacity="0.2" d="M1687.95 966.936C1688.27 961.479 1688.64 955.841 1689.07 949.971C1667.72 896.675 1094.89 991.038 1085.22 1052.84C1085.25 1058.5 1085.49 1064 1085.9 1069.37C1109.3 1008.37 1653.5 918.688 1687.95 966.936Z" fill="black"/>
<path d="M1079.44 988.29L1126.45 964.784L1087.27 859.011L1076.95 805.669C1075.6 798.738 1072.47 792.282 1067.85 786.943C1063.23 781.605 1057.29 777.573 1050.62 775.249C1043.96 772.925 1036.8 772.391 1029.86 773.7C1022.92 775.009 1016.45 778.116 1011.09 782.71C1003.14 789.517 998.156 799.144 997.177 809.558C996.198 819.973 999.304 830.36 1005.84 838.528L1044.17 886.434L1079.44 988.29Z" fill="#FFB6B6"/>
<path d="M1116.89 912.904L1054.2 944.244L1101.78 1093.29C1105.2 1103.99 1111.32 1113.63 1119.56 1121.27C1127.8 1128.91 1137.87 1134.29 1148.8 1136.9C1162.28 1140.11 1176.43 1138.94 1189.2 1133.57C1201.97 1128.19 1212.7 1118.89 1219.83 1107.01L1345.99 890.81C1354.93 875.912 1357.69 858.11 1353.68 841.205C1349.67 824.3 1339.21 809.633 1324.52 800.337C1316.63 795.338 1307.77 792.056 1298.52 790.707C1289.27 789.357 1279.84 789.969 1270.85 792.504C1261.85 795.039 1253.49 799.439 1246.31 805.418C1239.13 811.397 1233.29 818.821 1229.16 827.207L1152.16 991.255L1116.89 912.904Z" fill="#3F3D56"/>
<path d="M441.076 723.008C506.113 723.008 558.836 670.295 558.836 605.27C558.836 540.245 506.113 487.532 441.076 487.532C376.039 487.532 323.316 540.245 323.316 605.27C323.316 670.295 376.039 723.008 441.076 723.008Z" fill="#A0616A"/>
<path d="M324.73 524.135C334.305 511.232 348.067 502.059 358.593 489.92C364.369 483.259 369.165 475.713 375.658 469.75C387.722 458.671 404.594 454.132 420.965 453.567C438.906 453.107 456.704 456.875 472.918 464.569C489.132 472.262 503.307 483.664 514.295 497.851C522.852 492.835 531.409 487.819 539.966 482.803C543.347 491.699 546.728 500.596 550.108 509.492C552.883 507.081 556.422 505.73 560.097 505.678C563.773 505.627 567.348 506.878 570.189 509.21C573.031 511.542 574.954 514.805 575.619 518.42C576.284 522.035 575.647 525.768 573.822 528.958C575.858 522.667 585.189 521.332 590.333 525.488C595.477 529.645 596.854 537.04 596.015 543.599C594.962 550.795 591.78 557.512 586.878 562.885C581.977 568.259 575.58 572.044 568.51 573.754C557.343 576.241 544.346 573.628 535.409 580.769C528.243 586.493 526.08 596.917 518.768 602.452C509.757 609.272 497.021 606.118 485.821 607.625C466.224 610.263 450.708 630.301 453.063 649.93C451.29 643.737 449.427 637.364 445.403 632.333C441.378 627.301 434.601 623.899 428.429 625.748C418.227 628.806 416.558 642.709 419.03 653.066C425.588 680.535 450.44 724.936 450.44 724.936C418.171 737.663 379.726 725.629 354.828 701.479C329.93 677.33 316.962 643.134 311.314 608.914C306.524 579.896 307.203 547.755 324.73 524.135Z" fill="#2F2E41"/>
<path d="M1517.21 682.374C1539.61 631.018 1526.92 583.759 1499.61 558.689V558.668C1488.87 534.609 1474.6 516.044 1458.26 511.687C1450.37 506.614 1442.7 500.657 1434.2 497.626C1430.23 496.143 1426.01 495.478 1421.79 495.669C1417.56 495.861 1413.42 496.906 1409.61 498.742L1405.27 497.584C1401.59 488.175 1397.27 487.986 1392.47 494.174C1373.99 485.565 1357.33 481.713 1342.51 481.713C1294.17 481.713 1265.58 522.632 1258 572.098L1298.4 582.854L1312.45 560.479L1305.96 584.874L1328.26 590.789C1362.2 634.971 1321.58 736.891 1270.11 793.597C1282.36 790.208 1294.57 787.346 1306.72 785.009L1350.89 720.262L1323.52 779.2C1337.73 777.116 1355.86 779.115 1375.67 783.136C1382.34 774.421 1385.86 762.802 1382.41 752.446C1388.05 763.368 1391.94 775.11 1393.94 787.24C1435.75 797.449 1492.79 802.69 1523.52 806.563C1548.36 798.458 1548.43 706.918 1517.21 682.374Z" fill="#2F2E41"/>
<path d="M1531.78 507.684C1548.19 544.421 1515.08 560.223 1484.75 559.777C1457.34 559.374 1434.05 540.121 1432.65 512.75C1431.97 499.606 1436.55 486.734 1445.37 476.964C1454.19 467.195 1466.54 461.329 1479.68 460.657C1507.06 459.258 1520.61 482.659 1531.78 507.684Z" fill="#2F2E41"/>
<path d="M770.502 1105.73L743.47 1060.65L833.348 992.475L870.717 953.027C875.572 947.902 881.687 944.141 888.452 942.119C895.216 940.098 902.393 939.886 909.264 941.506C916.136 943.126 922.462 946.521 927.61 951.351C932.758 956.182 936.549 962.278 938.602 969.032C941.645 979.04 940.68 989.839 935.91 999.149C931.141 1008.46 922.94 1015.55 913.039 1018.93L854.969 1038.75L770.502 1105.73Z" fill="#A0616A"/>
<path d="M790.038 1104.24L747.953 1139.31L736.606 1148.76L735.28 1149.85C732.353 1151.31 729.406 1152.74 726.437 1154.15C717.553 1158.38 708.556 1162.4 699.448 1166.21C675.48 1176.23 650.888 1184.69 625.825 1191.53C621.067 1192.84 616.288 1194.08 611.488 1195.26C608.562 1195.97 605.614 1196.69 602.667 1197.36C600.814 1197.8 598.941 1198.22 597.067 1198.62C594.793 1199.13 592.519 1199.63 590.246 1200.1C587.867 1200.6 585.488 1201.09 583.109 1201.55C576.707 1195.46 571.611 1188.13 568.129 1180.01C564.648 1171.89 562.853 1163.15 562.856 1154.32C562.856 1153.75 562.856 1153.16 562.877 1152.57L569.635 979.271L572.624 902.463C573.085 885.093 580.322 868.592 592.788 856.486C605.255 844.38 621.962 837.628 639.341 837.674C641.362 837.674 643.362 837.779 645.341 837.969C646.773 839.821 648.099 841.736 649.384 843.673C652.878 848.851 657.594 857.039 663.152 867.311C665.447 871.542 667.868 876.131 670.416 880.993C671.952 883.919 685.216 925.301 698.121 967.568L692.437 1011.71L682.163 1091.27L724.311 1063.61L753.996 1044.12L757.512 1050L766.67 1065.28L784.354 1094.75L790.038 1104.24Z" fill="#3F3D56"/>
<path d="M766.964 1054.71C766.943 1058.29 766.859 1061.8 766.67 1065.28C766.231 1074.86 765.119 1084.4 763.343 1093.82C760.437 1109.65 755.254 1124.97 747.953 1139.31C746.985 1141.22 745.953 1143.12 744.901 1144.97C742.185 1146.4 739.427 1147.79 736.669 1149.18C736.206 1149.41 735.743 1149.64 735.28 1149.85C723.553 1155.68 711.609 1161.14 699.447 1166.21C675.48 1176.23 650.887 1184.69 625.825 1191.53C621.067 1192.84 616.288 1194.08 611.488 1195.26C602.12 1197.57 592.66 1199.67 583.109 1201.55C544.232 1209.19 504.705 1213.02 465.086 1213C462.454 1213 459.843 1212.98 457.212 1212.96C456.412 1212.96 455.612 1212.94 454.791 1212.92C452.475 1212.87 450.075 1212.83 447.633 1212.77C400.813 1211.47 354.299 1204.77 309.02 1192.79C305.42 1191.85 301.834 1190.86 298.262 1189.85C263.841 1180.06 230.36 1167.22 198.218 1151.49C162.891 1078.81 169.523 1040 163.123 951.844C176.26 919.029 398.516 942.204 569.635 979.271C616.078 989.333 658.731 1000.43 692.437 1011.71C727.258 1023.35 752.501 1035.18 762.396 1046.29C764.708 1048.59 766.296 1051.52 766.964 1054.71Z" fill="#2F2E41"/>
<path opacity="0.2" d="M163.135 966.936C162.808 961.479 162.443 955.841 162.017 949.971C183.364 896.675 756.195 991.038 765.858 1052.84C765.832 1058.5 765.589 1064 765.182 1069.37C741.78 1008.37 197.583 918.688 163.135 966.936Z" fill="black"/>
<g clip-path="url(#clip1_821_1003)">
<path d="M845.533 725.263L799.326 671.635L852.955 625.428M960.437 732.55L1014.07 686.343L967.859 632.715" stroke="#FBFBFB" stroke-width="22.525" stroke-linecap="round" stroke-linejoin="round"/>
<path d="M864.856 757.812C865.766 754.232 917.018 655.149 942.53 606.055" stroke="#FBFBFB" stroke-width="22.525" stroke-linecap="round" stroke-linejoin="round"/>
</g>
</g>
<defs>
<clipPath id="clip0_821_1003">
<rect width="1853" height="1213" fill="white"/>
</clipPath>
<clipPath id="clip1_821_1003">
<rect width="240.267" height="240.267" fill="white" transform="translate(797 551) rotate(4.25155)"/>
</clipPath>
</defs>
</svg>
