<svg fill="none" xmlns="http://www.w3.org/2000/svg" viewBox="0 0 1853 1213">
  <g clip-path="url(#a)">
    <path d="M340.59 642.542c17.05-73.396 48.47-129.773 90.648-174.523a380.743 380.743 0 0 1 45.059-40.671c142.355-109.832 365.696-136.162 579.893-213.092 632.29-227.075 559.76 355.315 453.54 699.894-42.86 139.04-127.99 255.74-238.49 334.57a595.656 595.656 0 0 1-72.93 44.58c-118.94 61.49-259.109 82.86-404.211 49.15-248.946-57.83-426.655-257.37-461.789-488.544a560.988 560.988 0 0 1 8.28-211.364Z" fill="#F2F2F2"/>
    <path d="M1548.55 1004.42h-217.64c-1.19-17.42-1.08-34.91.32-52.32 8.69-107.547 67.22-210.002 155.51-272.04-11.28 40.184-5.48 80.132 6.27 120.237-1.65.548-3.29 1.018-4.78 1.645a97.307 97.307 0 0 0-32.2 19.739c-2.59 2.428-5.33 5.953-4 9.321 1.18 2.82 4.7 3.76 7.76 4.387 7.36 1.41 14.73 2.819 22.01 4.151 5.88 1.175 11.76 2.272 17.63 3.447 2.74.47 5.49 1.018 8.23 1.566.39.94.62 1.802 1.02 2.664 13.78 37.989 28.83 76.293 35.88 115.223a268.85 268.85 0 0 1 3.6 29.53c.24 4.152.39 8.3.39 12.45ZM556.136 861.864c-36.979 22.481-60.482 57.259-79.676 96.189a98.42 98.42 0 0 0-44.735 23.499c-2.664 2.429-5.406 5.953-3.996 9.321 1.176 2.821 4.701 3.761 7.756 4.387 7.286 1.41 14.729 2.82 22.015 4.152-.705 1.648-1.41 3.368-2.115 5.008H210.95a345.972 345.972 0 0 1 36.744-41.98c2.899-2.899 5.876-5.64 8.931-8.46a365.632 365.632 0 0 1 105.765-66.737 372.146 372.146 0 0 1 193.746-25.379Z" fill="#F2F2F2"/>
    <path d="M439.881 964.658a56.231 56.231 0 0 0 4.063 21.007 53.723 53.723 0 0 0 3.685 7.494 57.112 57.112 0 0 0 6.358 8.801 56.454 56.454 0 0 0 19.108 14.16 56.482 56.482 0 0 0 23.25 5.01h823.825c14.97 0 29.34-5.94 39.93-16.53a56.486 56.486 0 0 0 16.53-39.921 56.478 56.478 0 0 0-16.53-39.918 56.49 56.49 0 0 0-39.93-16.535H496.345a56.521 56.521 0 0 0-39.902 16.543 56.506 56.506 0 0 0-16.562 39.889Z" fill="#E6E6E6"/>
    <path d="M0 996.905a608.741 608.741 0 0 0 59.201 60.935H1757.29a608.798 608.798 0 0 0 59.2-60.935H0Z" fill="#3F3D56"/>
    <path d="M835.151 793.129v215.881h151.266V793.129a7.26 7.26 0 0 0-5.116-6.946 6.686 6.686 0 0 0-2.169-.337H842.456a7.286 7.286 0 0 0-7.305 7.283Zm59.032 74.177a16.144 16.144 0 0 1 16.148-15.993 16.15 16.15 0 0 1 16.148 15.993v25.049a16.146 16.146 0 0 1-16.148 16.062 16.15 16.15 0 0 1-16.148-16.062v-25.049Z" fill="#2F2E41"/>
    <path d="M834.688 1002.1v20.82a4.109 4.109 0 0 0 1.193 2.88c.76.76 1.792 1.2 2.87 1.21h144.066a4.089 4.089 0 0 0 2.874-1.21 4.07 4.07 0 0 0 1.189-2.88v-20.82H834.688ZM597.189 467.879v394.165a18.955 18.955 0 0 0 5.554 13.391 18.966 18.966 0 0 0 13.394 5.553h584.223a18.958 18.958 0 0 0 18.94-18.944V467.879a18.96 18.96 0 0 0-18.94-18.923H616.137a18.972 18.972 0 0 0-18.948 18.923Z" fill="#3F3D56"/>
    <path d="M610.895 472.783v384.399a10.14 10.14 0 0 0 10.126 10.124h574.469a10.149 10.149 0 0 0 7.16-2.97 10.114 10.114 0 0 0 2.97-7.154V472.783c0-2.687-1.07-5.264-2.96-7.166a10.168 10.168 0 0 0-7.17-2.979H621.021a10.147 10.147 0 0 0-10.126 10.145Z" fill="#81CAA8"/>
    <path d="M728.033 1031.91a6.309 6.309 0 0 0 2.174 1.73c.846.4 1.773.61 2.711.61h341.772c.94 0 1.86-.21 2.7-.62.85-.4 1.59-.98 2.18-1.71.59-.73 1.01-1.57 1.23-2.48.22-.91.23-1.86.04-2.77l-5.31-25.2a6.357 6.357 0 0 0-1.37-2.778 6.365 6.365 0 0 0-2.54-1.787 6.13 6.13 0 0 0-2.23-.421H738.202a6.13 6.13 0 0 0-2.232.421 6.304 6.304 0 0 0-3.915 4.565l-5.306 25.2c-.189.91-.171 1.86.051 2.76.222.91.643 1.76 1.233 2.48Z" fill="#2F2E41"/>
    <path d="M1057.46 1007.34h8.47c.57 0 1.03-.46 1.03-1.03v-4.26c0-.57-.46-1.03-1.03-1.03h-8.47c-.57 0-1.03.46-1.03 1.03v4.26c0 .57.46 1.03 1.03 1.03ZM1036.41 1007.34h8.47c.57 0 1.03-.46 1.03-1.03v-4.26c0-.57-.46-1.03-1.03-1.03h-8.47c-.57 0-1.03.46-1.03 1.03v4.26c0 .57.46 1.03 1.03 1.03ZM1015.35 1007.34h8.48c.56 0 1.02-.46 1.02-1.03v-4.26c0-.57-.46-1.03-1.02-1.03h-8.48c-.56 0-1.02.46-1.02 1.03v4.26c0 .57.46 1.03 1.02 1.03ZM994.301 1007.34h8.469c.57 0 1.03-.46 1.03-1.03v-4.26c0-.57-.46-1.03-1.03-1.03h-8.469c-.567 0-1.028.46-1.028 1.03v4.26c0 .57.461 1.03 1.028 1.03ZM973.248 1007.34h8.471c.568 0 1.028-.46 1.028-1.03v-4.26c0-.57-.46-1.03-1.028-1.03h-8.471c-.567 0-1.027.46-1.027 1.03v4.26c0 .57.46 1.03 1.027 1.03ZM952.195 1007.34h8.471c.568 0 1.028-.46 1.028-1.03v-4.26c0-.57-.46-1.03-1.028-1.03h-8.471c-.567 0-1.027.46-1.027 1.03v4.26c0 .57.46 1.03 1.027 1.03ZM931.142 1007.34h8.471c.568 0 1.028-.46 1.028-1.03v-4.26c0-.57-.46-1.03-1.028-1.03h-8.471c-.567 0-1.027.46-1.027 1.03v4.26c0 .57.46 1.03 1.027 1.03ZM910.089 1007.34h8.471c.568 0 1.028-.46 1.028-1.03v-4.26c0-.57-.46-1.03-1.028-1.03h-8.471c-.567 0-1.027.46-1.027 1.03v4.26c0 .57.46 1.03 1.027 1.03ZM889.036 1007.34h8.471c.568 0 1.028-.46 1.028-1.03v-4.26c0-.57-.46-1.03-1.028-1.03h-8.471c-.567 0-1.027.46-1.027 1.03v4.26c0 .57.46 1.03 1.027 1.03ZM867.983 1007.34h8.471c.568 0 1.028-.46 1.028-1.03v-4.26c0-.57-.46-1.03-1.028-1.03h-8.471c-.567 0-1.027.46-1.027 1.03v4.26c0 .57.46 1.03 1.027 1.03ZM846.93 1007.34h8.471c.568 0 1.028-.46 1.028-1.03v-4.26c0-.57-.46-1.03-1.028-1.03h-8.471c-.567 0-1.027.46-1.027 1.03v4.26c0 .57.46 1.03 1.027 1.03ZM825.877 1007.34h8.471c.568 0 1.028-.46 1.028-1.03v-4.26c0-.57-.46-1.03-1.028-1.03h-8.471c-.567 0-1.027.46-1.027 1.03v4.26c0 .57.46 1.03 1.027 1.03ZM804.824 1007.34h8.471c.568 0 1.028-.46 1.028-1.03v-4.26c0-.57-.46-1.03-1.028-1.03h-8.471c-.567 0-1.027.46-1.027 1.03v4.26c0 .57.46 1.03 1.027 1.03ZM783.771 1007.34h8.471c.568 0 1.028-.46 1.028-1.03v-4.26c0-.57-.46-1.03-1.028-1.03h-8.471c-.567 0-1.027.46-1.027 1.03v4.26c0 .57.46 1.03 1.027 1.03ZM762.718 1007.34h8.471c.568 0 1.028-.46 1.028-1.03v-4.26c0-.57-.46-1.03-1.028-1.03h-8.471c-.567 0-1.027.46-1.027 1.03v4.26c0 .57.46 1.03 1.027 1.03ZM741.665 1007.34h8.471c.568 0 1.028-.46 1.028-1.03v-4.26c0-.57-.46-1.03-1.028-1.03h-8.471c-.567 0-1.027.46-1.027 1.03v4.26c0 .57.46 1.03 1.027 1.03ZM1057.71 1017.86h8.47c.57 0 1.03-.46 1.03-1.03v-4.26c0-.56-.46-1.02-1.03-1.02h-8.47c-.57 0-1.03.46-1.03 1.02v4.26c0 .57.46 1.03 1.03 1.03ZM1036.66 1017.86h8.47c.56 0 1.02-.46 1.02-1.03v-4.26c0-.56-.46-1.02-1.02-1.02h-8.47c-.57 0-1.03.46-1.03 1.02v4.26c0 .57.46 1.03 1.03 1.03ZM1015.6 1017.86h8.47c.57 0 1.03-.46 1.03-1.03v-4.26c0-.56-.46-1.02-1.03-1.02h-8.47c-.56 0-1.02.46-1.02 1.02v4.26c0 .57.46 1.03 1.02 1.03ZM994.55 1017.86h8.47c.57 0 1.03-.46 1.03-1.03v-4.26c0-.56-.46-1.02-1.03-1.02h-8.47c-.567 0-1.028.46-1.028 1.02v4.26c0 .57.461 1.03 1.028 1.03ZM973.497 1017.86h8.471c.568 0 1.028-.46 1.028-1.03v-4.26c0-.56-.46-1.02-1.028-1.02h-8.471c-.567 0-1.027.46-1.027 1.02v4.26c0 .57.46 1.03 1.027 1.03ZM952.444 1017.86h8.471c.568 0 1.028-.46 1.028-1.03v-4.26c0-.56-.46-1.02-1.028-1.02h-8.471c-.568 0-1.028.46-1.028 1.02v4.26c0 .57.46 1.03 1.028 1.03ZM931.391 1017.86h8.471c.568 0 1.028-.46 1.028-1.03v-4.26c0-.56-.46-1.02-1.028-1.02h-8.471c-.568 0-1.028.46-1.028 1.02v4.26c0 .57.46 1.03 1.028 1.03ZM910.338 1017.86h8.471c.568 0 1.028-.46 1.028-1.03v-4.26c0-.56-.46-1.02-1.028-1.02h-8.471c-.567 0-1.028.46-1.028 1.02v4.26c0 .57.461 1.03 1.028 1.03ZM889.285 1017.86h8.471c.568 0 1.028-.46 1.028-1.03v-4.26c0-.56-.46-1.02-1.028-1.02h-8.471c-.568 0-1.028.46-1.028 1.02v4.26c0 .57.46 1.03 1.028 1.03ZM868.232 1017.86h8.471c.568 0 1.028-.46 1.028-1.03v-4.26c0-.56-.46-1.02-1.028-1.02h-8.471c-.567 0-1.028.46-1.028 1.02v4.26c0 .57.461 1.03 1.028 1.03ZM847.179 1017.86h8.471c.568 0 1.028-.46 1.028-1.03v-4.26c0-.56-.46-1.02-1.028-1.02h-8.471c-.567 0-1.028.46-1.028 1.02v4.26c0 .57.461 1.03 1.028 1.03ZM826.126 1017.86h8.471c.568 0 1.028-.46 1.028-1.03v-4.26c0-.56-.46-1.02-1.028-1.02h-8.471c-.567 0-1.028.46-1.028 1.02v4.26c0 .57.461 1.03 1.028 1.03ZM805.073 1017.86h8.471c.568 0 1.028-.46 1.028-1.03v-4.26c0-.56-.46-1.02-1.028-1.02h-8.471c-.567 0-1.027.46-1.027 1.02v4.26c0 .57.46 1.03 1.027 1.03ZM784.02 1017.86h8.471c.568 0 1.028-.46 1.028-1.03v-4.26c0-.56-.46-1.02-1.028-1.02h-8.471c-.567 0-1.027.46-1.027 1.02v4.26c0 .57.46 1.03 1.027 1.03ZM762.967 1017.86h8.471c.568 0 1.028-.46 1.028-1.03v-4.26c0-.56-.46-1.02-1.028-1.02h-8.471c-.567 0-1.027.46-1.027 1.02v4.26c0 .57.46 1.03 1.027 1.03ZM741.914 1017.86h8.471c.568 0 1.028-.46 1.028-1.03v-4.26c0-.56-.46-1.02-1.028-1.02h-8.471c-.567 0-1.027.46-1.027 1.02v4.26c0 .57.46 1.03 1.027 1.03ZM882.969 1030.49h82.157c.567 0 1.028-.46 1.028-1.03v-4.26c0-.56-.461-1.02-1.028-1.02h-82.157c-.567 0-1.027.46-1.027 1.02v4.26c0 .57.46 1.03 1.027 1.03ZM649.888 515.59h537.532a2.14 2.14 0 0 0 1.48-3.632c-.39-.399-.92-.63-1.48-.642H649.888a2.14 2.14 0 0 0-2.091 2.137 2.136 2.136 0 0 0 2.091 2.137ZM1150.83 500.404c6.92 0 12.53-5.733 12.53-12.805 0-7.071-5.61-12.804-12.53-12.804-6.92 0-12.53 5.733-12.53 12.804 0 7.072 5.61 12.805 12.53 12.805ZM1107.55 500.404c6.92 0 12.53-5.733 12.53-12.805 0-7.071-5.61-12.804-12.53-12.804-6.92 0-12.52 5.733-12.52 12.804 0 7.072 5.6 12.805 12.52 12.805ZM1064.28 500.404c6.92 0 12.52-5.733 12.52-12.805 0-7.071-5.6-12.804-12.52-12.804s-12.53 5.733-12.53 12.804c0 7.072 5.61 12.805 12.53 12.805ZM673.653 480.298a2.303 2.303 0 0 0 2.295 2.315h30.738a2.326 2.326 0 0 0 0-4.652h-30.738a2.326 2.326 0 0 0-2.295 2.337ZM673.653 489.033a2.303 2.303 0 0 0 1.414 2.136c.279.117.578.178.881.18h30.737a2.328 2.328 0 0 0 0-4.652h-30.737a2.32 2.32 0 0 0-2.295 2.336ZM673.653 497.748a2.326 2.326 0 0 0 2.295 2.336h30.738a2.326 2.326 0 0 0 0-4.652h-30.738a2.316 2.316 0 0 0-1.627.683 2.298 2.298 0 0 0-.668 1.633ZM736.669 1149.18c-.463.23-.926.46-1.389.67a512.345 512.345 0 0 1-8.842 4.3 614.085 614.085 0 0 1-26.99 12.06 601.384 601.384 0 0 1-73.623 25.32c-4.21-26.25-8.295-88.15-12.21-133.68-.737-8.57-1.474-16.55-2.211-23.6a204.46 204.46 0 0 0-3.979-27.53 9.075 9.075 0 0 0-.821-2.04c.4 3.64.821 14.5 1.221 29.57.211 7.05.4 15.03.611 23.6.989 43.82 2.021 103.45 3.052 137.41-2.926.71-5.874 1.43-8.821 2.1-1.853.44-3.726.86-5.6 1.26a417.69 417.69 0 0 1-6.821 1.48c-2.379.5-4.758.99-7.137 1.45A611.239 611.239 0 0 1 465.086 1213c-2.632 0-5.242-.02-7.874-.04-.8 0-1.6-.02-2.421-.04-2.316-.05-4.716-.09-7.158-.15-46.82-1.3-93.333-8-138.613-19.98l1.832-134.94.315-23.6.127-8.94a31.894 31.894 0 0 0-1.853 8.94c-.737 5.75-1.495 13.89-2.253 23.6-2.884 37.38-5.852 97.69-8.926 132-36.401-10.36-63.012-19.81-96.275-36.44-1.285-.63-2.59-1.28-3.874-1.94.231-1.62.484-3.24.716-4.9 3.768-26.19-.674-60.26 3.494-88.72 3.179-21.96 6.464-43.05 9.769-60.94 4-21.533 8.063-38.457 12.084-46.687a2913.407 2913.407 0 0 1 13.748-27.785l5.705-11.345c1.011-2 2.021-3.978 3.011-5.915 4.505-8.819 8.758-16.965 12.653-24.185 2.737-5.073 5.263-9.662 7.579-13.682 2.716-4.736 5.116-8.651 7.095-11.619a116.429 116.429 0 0 1 61.643-46.75l.631-.169.611.253.695.316 40.127-14.672 17.916-43.129 92.022-5.662 14.864 11.303 7.6 5.789 8.105 6.167 14.906 11.345 4.231 1.305 6.295 1.937 43.054 13.219.442-.19.631.169a116.144 116.144 0 0 1 57.601 41.045c1.432 1.853 2.758 3.768 4.042 5.705 3.495 5.178 8.211 13.366 13.769 23.638 2.295 4.231 4.716 8.819 7.263 13.682 1.537 2.926 14.801 44.308 27.706 86.575 12.064 39.572 23.811 79.922 25.348 90.282.274 1.91.568 3.85.842 5.76 1.747 11.98 3.474 24.04 5.137 35.81 2.463 17.45 4.863 34.29 7.158 49.34.021.15.042.27.063.42Z" fill="#3F3D56"/>
    <path opacity=".2" d="m639.148 996.813-17.889-69.024-15.796 59.56 33.685 9.464Z" fill="#000"/>
    <path d="M33.325 996.012a13.501 13.501 0 0 0 13.017 9.118l55.774-1.44a13.323 13.323 0 0 0 7.926-2.8 13.343 13.343 0 0 0 4.665-6.999l7.893-84.38a20.608 20.608 0 0 0 8.922 1.833 20.333 20.333 0 0 0 13.507-35.066 20.339 20.339 0 0 0-14.528-5.593 17.203 17.203 0 0 0-3.655.38 13.798 13.798 0 0 0-10.261-4.427l-85.792 2.215c-.712.026-1.42.114-2.117.263a13.39 13.39 0 0 0-9.086 6.365 13.397 13.397 0 0 0-1.173 11.031l14.908 109.5Zm90.893-92.23 5.617-20.108a13.7 13.7 0 0 0 .043-7.103c.272 0 .512-.13.785-.13a14.546 14.546 0 0 1 .681 29.084 13.708 13.708 0 0 1-7.126-1.743Z" fill="#2F2E41"/>
    <path d="M28.677 869.116c1.827 10.449 22.377 17.794 47.086 16.518 22.722-1.047 41.301-9.024 44.705-18.478a12.692 12.692 0 0 0-3.883-.518l-85.792 2.215c-.712.026-1.42.114-2.116.263ZM1652.97 1151.47c-1.28.65-2.59 1.3-3.87 1.94-33.26 16.62-59.88 26.08-96.28 36.43-3.07-34.31-6.04-94.61-8.92-132-.76-9.7-1.52-17.85-2.25-23.59-.19-3.06-.81-6.07-1.86-8.95l.13 8.95.31 23.59 1.84 134.95a607.385 607.385 0 0 1-138.62 19.97c-2.44.07-4.84.11-7.15.15-.83.02-1.63.04-2.43.04-2.63.02-5.24.05-7.87.05-49.34.03-98.5-5.93-146.4-17.75 1.03-33.95 2.06-93.58 3.05-137.41.21-8.56.4-16.54.61-23.59.4-15.07.82-25.94 1.22-29.58-.35.65-.63 1.33-.82 2.04-1.95 9.08-3.28 18.28-3.98 27.54-.73 7.05-1.47 15.03-2.21 23.59-3.91 45.53-8 107.44-12.21 133.69a601.681 601.681 0 0 1-73.62-25.33 593.024 593.024 0 0 1-37.22-17.03c2.31-15.15 4.73-32.14 7.22-49.76 1.93-13.66 3.93-27.7 5.98-41.57 3.15-21.43 110.44-252.818 135.73-260.922l.63-.168.44.189 43.05-13.219 6.3-1.936 4.23-1.305 14.9-11.346 8.11-6.167 7.6-5.789 14.86-11.303 92.03 5.662 17.91 43.13 40.13 14.671.69-.316.61-.252.64.168a116.465 116.465 0 0 1 61.64 46.75c1.98 2.968 4.38 6.883 7.09 11.619 2.32 4.021 4.85 8.609 7.58 13.682 3.9 7.22 8.15 15.366 12.66 24.186.99 1.936 2 3.915 3.01 5.914 1.87 3.705 3.77 7.487 5.7 11.346 4.49 8.946 9.12 18.291 13.75 27.785 4.02 8.23 8.08 25.153 12.08 46.686 3.31 17.895 6.59 38.985 9.77 60.935 4.17 28.46-.27 62.54 3.5 88.72.23 1.67.48 3.29.71 4.91Z" fill="#3F3D56"/>
    <path d="M1383.08 730.392c59.11 0 107.03-47.908 107.03-107.006s-47.92-107.006-107.03-107.006c-59.1 0-107.02 47.908-107.02 107.006s47.92 107.006 107.02 107.006Z" fill="#FFB6B6"/>
    <path opacity=".2" d="m1211.93 996.813 17.89-69.024 15.8 59.56-33.69 9.464Z" fill="#000"/>
    <path d="M1687.96 951.839c-6.4 88.151.23 126.971-35.09 199.651a602.33 602.33 0 0 1-100.05 38.35 774.1 774.1 0 0 1-10.75 2.95 607.385 607.385 0 0 1-138.62 19.97c-2.44.07-4.84.11-7.15.15-.83.02-1.63.04-2.43.04-2.63.02-5.24.05-7.87.05-49.34.03-98.5-5.93-146.4-17.75-4.8-1.18-9.58-2.42-14.34-3.72a601.681 601.681 0 0 1-73.62-25.33 593.024 593.024 0 0 1-37.22-17.03c-2.76-1.38-5.52-2.77-8.23-4.21-13.96-24.54-21.9-54.39-22.07-90.25 9.67-61.804 582.5-156.167 603.84-102.871Z" fill="#2F2E41"/>
    <path opacity=".2" d="M1687.95 966.936c.32-5.457.69-11.095 1.12-16.965-21.35-53.296-594.18 41.067-603.85 102.869.03 5.66.27 11.16.68 16.53 23.4-61 567.6-150.682 602.05-102.434Z" fill="#000"/>
    <path d="m1079.44 988.29 47.01-23.506-39.18-105.773-10.32-53.342a40.41 40.41 0 0 0-9.1-18.726 40.337 40.337 0 0 0-17.23-11.694 40.329 40.329 0 0 0-20.76-1.549 40.324 40.324 0 0 0-18.77 9.01 40.326 40.326 0 0 0-5.25 55.818l38.33 47.906 35.27 101.856Z" fill="#FFB6B6"/>
    <path d="m1116.89 912.904-62.69 31.34 47.58 149.046a65.235 65.235 0 0 0 47.02 43.61 65.237 65.237 0 0 0 40.4-3.33 65.277 65.277 0 0 0 30.63-26.56l126.16-216.2a66.551 66.551 0 0 0 7.69-49.605 66.528 66.528 0 0 0-29.16-40.868 66.516 66.516 0 0 0-26-9.63 66.551 66.551 0 0 0-27.67 1.797 66.534 66.534 0 0 0-24.54 12.914 66.692 66.692 0 0 0-17.15 21.789l-77 164.048-35.27-78.351Z" fill="#3F3D56"/>
    <path d="M441.076 723.008c65.037 0 117.76-52.713 117.76-117.738s-52.723-117.738-117.76-117.738-117.76 52.713-117.76 117.738 52.723 117.738 117.76 117.738Z" fill="#A0616A"/>
    <path d="M324.73 524.135c9.575-12.903 23.337-22.076 33.863-34.215 5.776-6.661 10.572-14.207 17.065-20.17 12.064-11.079 28.936-15.618 45.307-16.183a114.348 114.348 0 0 1 93.33 44.284l25.671-15.048 10.142 26.689a15.565 15.565 0 0 1 25.511 8.928 15.554 15.554 0 0 1-1.797 10.538c2.036-6.291 11.367-7.626 16.511-3.47 5.144 4.157 6.521 11.552 5.682 18.111a36.46 36.46 0 0 1-27.505 30.155c-11.167 2.487-24.164-.126-33.101 7.015-7.166 5.724-9.329 16.148-16.641 21.683-9.011 6.82-21.747 3.666-32.947 5.173-19.597 2.638-35.113 22.676-32.758 42.305-1.773-6.193-3.636-12.566-7.66-17.597-4.025-5.032-10.802-8.434-16.974-6.585-10.202 3.058-11.871 16.961-9.399 27.318 6.558 27.469 31.41 71.87 31.41 71.87-32.269 12.727-70.714.693-95.612-23.457-24.898-24.149-37.866-58.345-43.514-92.565-4.79-29.018-4.111-61.159 13.416-84.779ZM1517.21 682.374c22.4-51.356 9.71-98.615-17.6-123.685v-.021c-10.74-24.059-25.01-42.624-41.35-46.981-7.89-5.073-15.56-11.03-24.06-14.061a31.403 31.403 0 0 0-12.41-1.957 31.317 31.317 0 0 0-12.18 3.073l-4.34-1.158c-3.68-9.409-8-9.598-12.8-3.41-18.48-8.609-35.14-12.461-49.96-12.461-48.34 0-76.93 40.919-84.51 90.385l40.4 10.756 14.05-22.375-6.49 24.395 22.3 5.915c33.94 44.182-6.68 146.102-58.15 202.808a470.875 470.875 0 0 1 36.61-8.588l44.17-64.747-27.37 58.938c14.21-2.084 32.34-.085 52.15 3.936 6.67-8.715 10.19-20.334 6.74-30.69a117.493 117.493 0 0 1 11.53 34.794c41.81 10.209 98.85 15.45 129.58 19.323 24.84-8.105 24.91-99.645-6.31-124.189Z" fill="#2F2E41"/>
    <path d="M1531.78 507.684c16.41 36.737-16.7 52.539-47.03 52.093-27.41-.403-50.7-19.656-52.1-47.027a49.583 49.583 0 0 1 12.72-35.786 49.654 49.654 0 0 1 34.31-16.307c27.38-1.399 40.93 22.002 52.1 47.027Z" fill="#2F2E41"/>
    <path d="m770.502 1105.73-27.032-45.08 89.878-68.175 37.369-39.448a40.342 40.342 0 0 1 38.547-11.521 40.341 40.341 0 0 1 29.338 27.526 40.332 40.332 0 0 1-25.563 49.898l-58.07 19.82-84.467 66.98Z" fill="#A0616A"/>
    <path d="m790.038 1104.24-42.085 35.07-11.347 9.45-1.326 1.09a508.906 508.906 0 0 1-8.843 4.3 613.519 613.519 0 0 1-26.989 12.06 601.384 601.384 0 0 1-73.623 25.32 536.398 536.398 0 0 1-14.337 3.73c-2.926.71-5.874 1.43-8.821 2.1-1.853.44-3.726.86-5.6 1.26a417.69 417.69 0 0 1-6.821 1.48c-2.379.5-4.758.99-7.137 1.45a65.188 65.188 0 0 1-20.253-47.23c0-.57 0-1.16.021-1.75l6.758-173.299 2.989-76.808a66.55 66.55 0 0 1 20.164-45.977 66.572 66.572 0 0 1 46.553-18.812c2.021 0 4.021.105 6 .295 1.432 1.852 2.758 3.767 4.043 5.704 3.494 5.178 8.21 13.366 13.768 23.638 2.295 4.231 4.716 8.82 7.264 13.682 1.536 2.926 14.8 44.308 27.705 86.575l-5.684 44.142-10.274 79.56 42.148-27.66 29.685-19.49 3.516 5.88 9.158 15.28 17.684 29.47 5.684 9.49Z" fill="#3F3D56"/>
    <path d="M766.964 1054.71c-.021 3.58-.105 7.09-.294 10.57a204.63 204.63 0 0 1-3.327 28.54 166.52 166.52 0 0 1-15.39 45.49c-.968 1.91-2 3.81-3.052 5.66-2.716 1.43-5.474 2.82-8.232 4.21-.463.23-.926.46-1.389.67a593.29 593.29 0 0 1-35.833 16.36 601.37 601.37 0 0 1-73.622 25.32 536.398 536.398 0 0 1-14.337 3.73 613.137 613.137 0 0 1-28.379 6.29A610.452 610.452 0 0 1 465.086 1213c-2.632 0-5.243-.02-7.874-.04-.8 0-1.6-.02-2.421-.04-2.316-.05-4.716-.09-7.158-.15-46.82-1.3-93.334-8-138.613-19.98-3.6-.94-7.186-1.93-10.758-2.94a602.678 602.678 0 0 1-100.044-38.36c-35.327-72.68-28.695-111.49-35.095-199.646 13.137-32.815 235.393-9.64 406.512 27.427 46.443 10.062 89.096 21.159 122.802 32.439 34.821 11.64 60.064 23.47 69.959 34.58 2.312 2.3 3.9 5.23 4.568 8.42Z" fill="#2F2E41"/>
    <path opacity=".2" d="M163.135 966.936c-.327-5.457-.692-11.095-1.118-16.965 21.347-53.296 594.178 41.067 603.841 102.869-.026 5.66-.269 11.16-.676 16.53-23.402-61-567.599-150.682-602.047-102.434Z" fill="#000"/>
    <g clip-path="url(#b)" stroke="#FBFBFB" stroke-width="22.525" stroke-linecap="round" stroke-linejoin="round">
      <path d="m845.533 725.263-46.207-53.628 53.629-46.207M960.437 732.55l53.633-46.207-46.211-53.628M864.856 757.812c.91-3.58 52.162-102.663 77.674-151.757"/>
    </g>
  </g>
  <defs>
    <clipPath id="a">
      <path fill="#fff" d="M0 0h1853v1213H0z"/>
    </clipPath>
    <clipPath id="b">
      <path fill="#fff" transform="rotate(4.252 -7023.614 11011.298)" d="M0 0h240.267v240.267H0z"/>
    </clipPath>
  </defs>
</svg>
