<svg width="144" height="144" viewBox="0 0 144 144" fill="none" xmlns="http://www.w3.org/2000/svg">
<rect width="144" height="144" rx="5" fill="white"/>
<path d="M109.47 106.843C127.477 106.843 142.074 92.245 142.074 74.238C142.074 56.231 127.477 41.6335 109.47 41.6335C91.4628 41.6335 76.8652 56.231 76.8652 74.238C76.8652 92.245 91.4628 106.843 109.47 106.843Z" fill="#F2F2F2"/>
<path d="M17.6891 51.9027C24.5658 51.9027 30.1405 46.3281 30.1405 39.4514C30.1405 32.5747 24.5658 27 17.6891 27C10.8125 27 5.23779 32.5747 5.23779 39.4514C5.23779 46.3281 10.8125 51.9027 17.6891 51.9027Z" fill="#FF6584"/>
<path d="M40.0246 93.8778C58.0316 93.8778 72.6291 79.2802 72.6291 61.2732C72.6291 43.2663 58.0316 28.6687 40.0246 28.6687C22.0176 28.6687 7.42004 43.2663 7.42004 61.2732C7.42004 79.2802 22.0176 93.8778 40.0246 93.8778Z" fill="#F2F2F2"/>
<path d="M38.4842 95.675C58.2636 95.675 74.2979 94.8129 74.2979 93.7495C74.2979 92.6861 58.2636 91.8241 38.4842 91.8241C18.7049 91.8241 2.67053 92.6861 2.67053 93.7495C2.67053 94.8129 18.7049 95.675 38.4842 95.675Z" fill="#3F3D56"/>
<path opacity="0.1" d="M31.2958 95.1439C46.1126 95.1439 58.124 94.5494 58.124 93.816C58.124 93.0826 46.1126 92.4881 31.2958 92.4881C16.479 92.4881 4.46765 93.0826 4.46765 93.816C4.46765 94.5494 16.479 95.1439 31.2958 95.1439Z" fill="black"/>
<path d="M108.186 109.282C127.966 109.282 144 108.333 144 107.164C144 105.994 127.966 105.046 108.186 105.046C88.4068 105.046 72.3724 105.994 72.3724 107.164C72.3724 108.333 88.4068 109.282 108.186 109.282Z" fill="#3F3D56"/>
<path opacity="0.1" d="M100.998 108.697C115.815 108.697 127.826 108.043 127.826 107.237C127.826 106.43 115.815 105.776 100.998 105.776C86.1809 105.776 74.1696 106.43 74.1696 107.237C74.1696 108.043 86.1809 108.697 100.998 108.697Z" fill="black"/>
<path d="M51.4617 103.377C64.0839 103.377 74.3162 102.86 74.3162 102.222C74.3162 101.584 64.0839 101.066 51.4617 101.066C38.8396 101.066 28.6073 101.584 28.6073 102.222C28.6073 102.86 38.8396 103.377 51.4617 103.377Z" fill="#3F3D56"/>
<path d="M11.0269 98.928C17.1169 98.928 22.0538 98.6784 22.0538 98.3706C22.0538 98.0627 17.1169 97.8132 11.0269 97.8132C4.93691 97.8132 0 98.0627 0 98.3706C0 98.6784 4.93691 98.928 11.0269 98.928Z" fill="#3F3D56"/>
<path d="M122.322 116.737C133.656 116.737 142.845 116.273 142.845 115.7C142.845 115.127 133.656 114.662 122.322 114.662C110.987 114.662 101.799 115.127 101.799 115.7C101.799 116.273 110.987 116.737 122.322 116.737Z" fill="#3F3D56"/>
<path d="M120.124 82.5818H79.0475V106.971H120.124V82.5818Z" fill="#3F3D56"/>
<path d="M92.269 104.275C97.3733 104.275 101.511 100.138 101.511 95.0332C101.511 89.9288 97.3733 85.7909 92.269 85.7909C87.1646 85.7909 83.0267 89.9288 83.0267 95.0332C83.0267 100.138 87.1646 104.275 92.269 104.275Z" fill="#81CAA8"/>
<path d="M107.416 86.4327H104.335V89.5135H107.416V86.4327Z" fill="#81CAA8"/>
<path opacity="0.5" d="M111.267 86.4327H108.186V89.5135H111.267V86.4327Z" fill="#81CAA8"/>
<path opacity="0.2" d="M115.118 86.4327H112.037V89.5135H115.118V86.4327Z" fill="#81CAA8"/>
<path d="M107.416 90.2837H104.335V93.3644H107.416V90.2837Z" fill="#2F2E41"/>
<path opacity="0.5" d="M111.267 90.2837H108.186V93.3644H111.267V90.2837Z" fill="#2F2E41"/>
<path opacity="0.2" d="M115.118 90.2837H112.037V93.3644H115.118V90.2837Z" fill="#2F2E41"/>
<path d="M107.416 94.1346H104.335V97.2154H107.416V94.1346Z" fill="#FF6584"/>
<path opacity="0.5" d="M111.267 94.1346H108.186V97.2154H111.267V94.1346Z" fill="#FF6584"/>
<path opacity="0.2" d="M115.118 94.1346H112.037V97.2154H115.118V94.1346Z" fill="#FF6584"/>
<path opacity="0.5" d="M92.2689 85.7909V104.275C97.3733 104.275 101.768 100.138 101.768 95.0332C101.768 89.9288 97.3733 85.7909 92.2689 85.7909Z" fill="#3F3D56"/>
<path d="M128.917 84.3147C128.917 84.3147 134.308 86.7537 132.383 89.5777C130.457 92.4017 124.681 97.793 124.553 98.9483C124.424 100.104 123.654 101.13 123.654 101.13C123.654 101.13 121.087 98.4348 121.344 98.1781C121.6 97.9214 124.168 95.4824 124.296 94.8406C124.424 94.1988 128.275 89.1926 128.275 89.1926L124.809 86.1118L128.917 84.3147Z" fill="#FFB9B9"/>
<path opacity="0.1" d="M128.917 84.3147C128.917 84.3147 134.308 86.7537 132.383 89.5777C130.457 92.4017 124.681 97.793 124.553 98.9483C124.424 100.104 123.654 101.13 123.654 101.13C123.654 101.13 121.087 98.4348 121.344 98.1781C121.6 97.9214 124.168 95.4824 124.296 94.8406C124.424 94.1988 128.275 89.1926 128.275 89.1926L124.809 86.1118L128.917 84.3147Z" fill="black"/>
<path d="M122.114 89.706C122.114 89.706 125.836 91.2464 125.58 93.6854C125.323 96.1243 130.072 103.056 130.072 103.056C130.072 103.056 130.586 104.725 130.457 105.238C130.329 105.752 133.795 105.623 133.795 105.623V104.468C133.795 104.468 131.099 99.8469 130.843 98.5632C130.586 97.2796 129.045 92.2733 129.045 92.2733C129.045 92.2733 128.532 87.7806 125.965 87.7806C125.217 87.7806 124.48 87.9546 123.812 88.2888C123.144 88.623 122.562 89.1082 122.114 89.706V89.706Z" fill="#FFB9B9"/>
<path d="M122.307 78.0891C122.307 78.0891 130.008 84.3789 129.752 84.8924C129.495 85.4058 125.772 87.3313 125.131 87.4597C124.489 87.588 119.948 78.0891 119.948 78.0891H122.307Z" fill="#2F2E41"/>
<path opacity="0.1" d="M122.307 78.0891C122.307 78.0891 130.008 84.3789 129.752 84.8924C129.495 85.4058 125.772 87.3313 125.131 87.4597C124.489 87.588 119.948 78.0891 119.948 78.0891H122.307Z" fill="black"/>
<path d="M113.963 79.3727C113.963 79.3727 113.192 82.8385 115.246 84.2505C117.3 85.6626 120.766 91.1822 121.151 91.1822C121.536 91.1822 127.056 88.2298 126.799 87.7164C126.542 87.2029 123.718 82.7102 123.718 82.7102L122.82 77.9607C122.82 77.9607 114.989 77.704 113.963 79.3727Z" fill="#2F2E41"/>
<path d="M122.306 68.0766L123.462 75.5218L125.515 80.7847C125.515 80.7847 128.596 83.9938 126.799 84.2505C125.002 84.5073 123.975 80.7847 123.975 80.7847L122.306 77.704V68.0766Z" fill="#FFB9B9"/>
<path opacity="0.1" d="M122.306 68.0766L123.462 75.5218L125.515 80.7847C125.515 80.7847 128.596 83.9938 126.799 84.2505C125.002 84.5073 123.975 80.7847 123.975 80.7847L122.306 77.704V68.0766Z" fill="black"/>
<path d="M118.006 59.7971C118.006 59.7971 118.006 62.4928 117.108 62.7495C116.209 63.0062 120.702 66.4721 120.702 66.4721C120.702 66.4721 120.188 61.9793 121.986 60.824L118.006 59.7971Z" fill="#FFB9B9"/>
<path opacity="0.1" d="M118.006 59.7971C118.006 59.7971 118.006 62.4928 117.108 62.7495C116.209 63.0062 120.702 66.4721 120.702 66.4721C120.702 66.4721 120.188 61.9793 121.986 60.824L118.006 59.7971Z" fill="black"/>
<path d="M120.06 61.9793C121.69 61.9793 123.012 60.6575 123.012 59.0269C123.012 57.3964 121.69 56.0745 120.06 56.0745C118.429 56.0745 117.108 57.3964 117.108 59.0269C117.108 60.6575 118.429 61.9793 120.06 61.9793Z" fill="#FFB9B9"/>
<path d="M120.188 65.1884C120.188 65.1884 117.493 61.8509 117.108 61.9793C116.723 62.1076 113.899 64.9316 113.642 65.8302C113.385 66.7287 112.872 73.147 113.257 74.4306C113.642 75.7143 113.642 79.0517 113.513 79.3085C113.385 79.5652 112.615 80.207 113.385 80.207C114.155 80.207 116.851 78.2816 118.648 78.6666C120.445 79.0517 122.884 78.5383 123.012 78.2816C123.141 78.0248 122.884 71.3499 123.012 70.8364C123.141 70.323 122.756 67.7557 122.627 67.2422C122.499 66.7287 122.499 64.6749 121.215 64.1615L120.668 64.1074L120.637 65.3771L120.188 65.1884Z" fill="#81CAA8"/>
<path d="M114.54 71.8634C114.54 71.8634 114.797 75.8427 116.722 77.5114C118.648 79.1801 122.755 82.0042 123.012 82.5176C123.269 83.0311 125.708 85.7267 126.221 84.5715C126.37 84.2113 126.406 83.8143 126.324 83.4333C126.25 83.0545 126.098 82.695 125.88 82.3768C125.661 82.0587 125.38 81.7886 125.053 81.5832L123.911 80.8489L118.263 74.9441L118.006 71.8634H114.54Z" fill="#FFB9B9"/>
<path d="M121.921 97.7289C121.921 97.7289 120.445 97.408 119.932 98.3065C119.418 99.2051 120.445 101.644 120.445 101.644C120.445 101.644 123.398 107.805 123.911 107.035C124.424 106.265 123.526 103.441 123.526 103.441C123.526 103.441 124.81 100.617 124.296 100.489C123.783 100.36 121.921 99.2692 121.921 97.7289Z" fill="#2F2E41"/>
<path d="M130.971 105.11C130.971 105.11 130.201 104.725 130.073 105.11C129.944 105.495 129.174 107.42 130.073 107.677C130.971 107.934 139.828 108.191 139.571 107.677C139.315 107.164 137.903 106.522 137.004 106.265C136.106 106.008 133.795 104.083 133.795 104.083C133.795 104.083 132.511 105.752 130.971 105.11Z" fill="#2F2E41"/>
<path d="M123.034 56.6837C122.979 56.4974 122.857 56.3381 122.691 56.2361C122.7 56.0365 122.675 55.837 122.619 55.6454C122.43 55.0877 121.983 55.1197 121.562 54.8731C121.379 54.7661 121.39 54.6716 121.295 54.4959C121.17 54.2656 120.983 54.0749 120.756 53.9455C120.485 53.7731 120.199 53.5957 119.879 53.5738C119.207 53.528 118.691 54.1605 118.049 54.3635C117.765 54.453 117.461 54.4567 117.176 54.5413C116.891 54.6259 116.607 54.8279 116.565 55.1219C116.545 55.2577 116.58 55.3969 116.56 55.5327C116.52 55.8024 116.284 55.9913 116.125 56.2132C115.775 56.7038 115.815 57.397 116.095 57.9308C116.154 58.0412 116.222 58.1469 116.297 58.2469C116.32 58.4992 116.393 58.7445 116.51 58.9691C116.791 59.5029 117.273 59.9018 117.776 60.2332C117.735 60.0562 117.71 59.8757 117.702 59.6942C117.694 59.6336 117.702 59.5723 117.724 59.5155C117.781 59.3983 117.929 59.3671 118.042 59.3029C118.276 59.1699 118.368 58.8756 118.374 58.6065C118.381 58.3374 118.324 58.0679 118.352 57.8002C118.353 57.7386 118.367 57.678 118.393 57.6221C118.419 57.5663 118.457 57.5165 118.503 57.4761C118.589 57.4268 118.688 57.4033 118.787 57.4083C119.267 57.3887 119.768 57.3799 120.191 57.1531C120.327 57.0625 120.474 56.9884 120.628 56.9322C120.987 56.8384 121.355 57.0904 121.562 57.3987C121.769 57.707 121.872 58.074 122.063 58.3925C122.254 58.711 122.585 58.9951 122.954 58.9574C122.975 58.9574 122.996 58.9531 123.015 58.9446C123.034 58.9361 123.051 58.9238 123.065 58.9083C123.08 58.8796 123.088 58.8469 123.085 58.8143L123.106 57.4017C123.123 57.16 123.099 56.9172 123.034 56.6837Z" fill="#2F2E41"/>
<path d="M115.695 65.3168C115.695 65.3168 118.52 66.6004 118.391 69.2961C118.263 71.9917 119.161 72.2485 116.979 72.5052C114.797 72.7619 114.283 72.5052 114.155 72.7619C114.027 73.0186 113.257 66.8571 113.77 66.2153C114.283 65.5735 115.695 65.3168 115.695 65.3168Z" fill="#81CAA8"/>
<path d="M58.8942 43.559C61.1628 43.559 63.0018 41.72 63.0018 39.4514C63.0018 37.1828 61.1628 35.3437 58.8942 35.3437C56.6256 35.3437 54.7865 37.1828 54.7865 39.4514C54.7865 41.72 56.6256 43.559 58.8942 43.559Z" fill="#2F2E41"/>
<path d="M61.6543 84.4431L59.3438 90.7329C59.3438 90.7329 57.4183 92.2733 58.5736 92.7868C59.7289 93.3002 62.0394 92.2733 62.0394 92.2733L63.8365 87.6522L63.5798 84.4431H61.6543Z" fill="#2F2E41"/>
<path opacity="0.1" d="M61.6543 84.4431L59.3438 90.7329C59.3438 90.7329 57.4183 92.2733 58.5736 92.7868C59.7289 93.3002 62.0394 92.2733 62.0394 92.2733L63.8365 87.6522L63.5798 84.4431H61.6543Z" fill="black"/>
<path d="M61.8468 47.1532L63.7723 47.4099C63.7723 47.4099 64.6708 54.47 64.2857 54.9834C63.9006 55.4969 61.9752 57.5507 61.205 57.0373C60.4348 56.5238 61.8468 47.1532 61.8468 47.1532Z" fill="#575A89"/>
<path d="M43.4263 60.0538C43.4263 60.0538 40.7306 61.2091 40.2172 61.3375C39.7037 61.4658 38.9335 62.7495 39.8321 63.0062C40.7306 63.2629 44.1965 60.6957 44.1965 60.6957L43.4263 60.0538Z" fill="#A0616A"/>
<path d="M62.5526 87.0104L63.9646 92.2733C63.9646 92.2733 64.093 94.1987 64.7348 94.3271C65.3766 94.4554 67.3021 93.6853 67.3021 93.4285C67.3021 93.1718 66.5319 91.118 66.5319 91.118C66.5319 91.118 66.5319 89.5776 65.7617 88.9358C64.9915 88.294 64.2977 86.144 64.2977 86.144L62.5526 87.0104Z" fill="#2F2E41"/>
<path d="M64.3498 74.9441C64.6091 75.5487 64.577 79.9349 64.2933 82.8539C64.1559 84.2724 63.9595 85.3442 63.7079 85.47L61.8685 85.0105L61.1406 84.8282L61.1214 83.2313L61.0123 74.4307L58.8301 65.3168V63.0062L64.3498 63.5197L65.2252 64.8945L65.2483 64.9317C65.2483 64.9317 63.9647 74.0456 64.3498 74.9441Z" fill="#2F2E41"/>
<path opacity="0.1" d="M63.1945 77.7681C63.4692 78.1802 63.9274 80.6473 64.2933 82.8539C64.1559 84.2724 63.9595 85.3442 63.7079 85.47L61.8685 85.0105C61.8402 84.9514 61.812 84.8898 61.7825 84.8282C61.5475 84.3353 61.3268 83.791 61.1214 83.2313L61.0123 74.4307L58.8301 65.3168V63.0062L64.3497 63.5197L65.2252 64.8945L60.1137 64.5466L61.269 69.5528L62.681 74.8158C62.681 74.8158 62.681 76.9979 63.1945 77.7681Z" fill="black"/>
<path d="M54.0809 57.8717C54.0809 57.8717 52.2838 61.851 54.8511 67.3706C56.4397 70.8056 57.8535 74.3187 59.0871 77.8965C59.0871 77.8965 59.9856 82.1326 61.2693 84.8282C62.5529 87.5239 62.2962 87.6522 62.2962 87.6522L64.35 86.497C64.35 86.497 63.1947 78.5384 62.6813 77.7682C62.1678 76.998 62.1678 74.8158 62.1678 74.8158L60.7558 69.5528L59.6005 64.5466L65.2486 64.9317C65.2486 64.9317 65.2486 57.615 62.6813 56.2029L54.0809 57.8717Z" fill="#2F2E41"/>
<path d="M56.1988 41.3768C56.1988 41.3768 56.1988 43.4307 55.5569 43.559C54.9151 43.6874 53.6315 43.6874 53.2464 44.3292C52.8613 44.971 56.1988 53.4431 56.1988 53.4431L59.6646 51.2609L60.8199 45.4845C60.8199 45.4845 59.1512 44.4576 59.1512 43.9441V41.6336L56.1988 41.3768Z" fill="#A0616A"/>
<path opacity="0.1" d="M56.1988 41.3768C56.1988 41.3768 56.1988 43.4307 55.5569 43.559C54.9151 43.6874 53.6315 43.6874 53.2464 44.3292C52.8613 44.971 56.1988 53.4431 56.1988 53.4431L59.6646 51.2609L60.8199 45.4845C60.8199 45.4845 59.1512 44.4576 59.1512 43.9441V41.6336L56.1988 41.3768Z" fill="black"/>
<path d="M58.1882 43.6232C59.8896 43.6232 61.2689 42.2439 61.2689 40.5425C61.2689 38.841 59.8896 37.4617 58.1882 37.4617C56.4867 37.4617 55.1074 38.841 55.1074 40.5425C55.1074 42.2439 56.4867 43.6232 58.1882 43.6232Z" fill="#A0616A"/>
<path d="M56.5836 50.8758C56.5836 50.8758 55.4284 43.559 55.1716 43.559C54.9149 43.559 51.3207 44.3292 51.064 44.4576C50.8072 44.5859 49.9087 45.7412 49.9087 45.7412L51.7058 50.8758C51.7058 50.8758 52.476 54.47 52.9894 55.1118C53.5029 55.7537 54.5298 57.5508 54.0164 57.8075C53.5029 58.0642 52.9894 58.4493 53.5029 58.4493C54.0164 58.4493 58.2524 57.6791 58.5091 58.0642C58.7658 58.4493 63.0019 56.6522 63.0019 56.5238C63.0019 56.3955 62.4884 50.3623 62.4884 50.3623L63.772 47.41L59.9211 44.7143L56.5836 50.8758Z" fill="#575A89"/>
<path d="M51.1924 45.0994L49.9087 45.7412C49.9087 45.7412 46.3145 53.9565 46.0578 54.0849C45.8011 54.2132 44.5174 56.6522 44.3891 57.1656C44.2607 57.6791 44.004 59.3478 43.6189 59.6045C43.4123 59.7448 43.198 59.8734 42.9771 59.9896C42.9771 59.9896 43.7472 61.2733 44.1323 61.2733C44.5174 61.2733 45.8011 59.4762 45.8011 59.4762C45.8011 59.4762 48.6251 61.2733 49.3953 59.8613C50.1655 58.4493 52.0909 49.4638 52.0909 49.4638L51.1924 45.0994Z" fill="#575A89"/>
<path d="M61.2692 49.0145C61.2692 49.0145 59.4721 44.6501 58.4452 45.1636C57.4183 45.677 59.2154 48.7578 60.3707 49.2712L61.2692 49.0145Z" fill="#A0616A"/>
<path opacity="0.1" d="M59.4719 49.1429L61.2729 48.7357L61.6541 50.6832C61.6541 50.6832 63.3228 53.6356 62.9377 54.9193C62.5526 56.2029 60.2421 58.2567 59.4719 57.1014C58.7017 55.9462 58.0599 54.1491 58.5733 53.1222C59.0868 52.0952 59.857 49.6563 59.4719 49.1429Z" fill="black"/>
<path d="M59.857 48.8861L61.658 48.479L62.0392 50.4265C62.0392 50.4265 63.7079 53.3789 63.3228 54.6625C62.9378 55.9462 60.6272 58 59.857 56.8447C59.0868 55.6895 58.445 53.8924 58.9584 52.8654C59.4719 51.8385 60.2421 49.3996 59.857 48.8861Z" fill="#575A89"/>
<path d="M61.8126 39.9238C62.1585 39.1856 61.1898 38.0019 59.6491 37.2801C58.1083 36.5584 56.5789 36.5717 56.233 37.31C55.8872 38.0483 56.8558 39.2319 58.3966 39.9537C59.9374 40.6755 61.4668 40.6621 61.8126 39.9238Z" fill="#2F2E41"/>
<path d="M61.3331 37.7826C62.3256 37.7826 63.1302 36.978 63.1302 35.9855C63.1302 34.993 62.3256 34.1884 61.3331 34.1884C60.3406 34.1884 59.536 34.993 59.536 35.9855C59.536 36.978 60.3406 37.7826 61.3331 37.7826Z" fill="#2F2E41"/>
<path d="M59.6644 35.3437C59.6645 34.9004 59.8283 34.4729 60.1245 34.1431C60.4207 33.8133 60.8283 33.6047 61.269 33.5572C61.018 33.5298 60.7641 33.5556 60.5237 33.6328C60.2834 33.7101 60.062 33.8372 59.8741 34.0057C59.6861 34.1743 59.5358 34.3805 59.4328 34.6111C59.3299 34.8416 59.2767 35.0912 59.2767 35.3437C59.2767 35.5961 59.3299 35.8458 59.4328 36.0763C59.5358 36.3068 59.6861 36.5131 59.8741 36.6816C60.062 36.8502 60.2834 36.9772 60.5237 37.0545C60.7641 37.1318 61.018 37.1576 61.269 37.1302C60.8283 37.0827 60.4207 36.874 60.1245 36.5442C59.8283 36.2145 59.6645 35.7869 59.6644 35.3437V35.3437Z" fill="#2F2E41"/>
<path d="M53.2462 62.5569H8.3186V93.7495H53.2462V62.5569Z" fill="#3F3D56"/>
<path d="M17.8176 65.6377H11.9128V71.5425H17.8176V65.6377Z" fill="#F2F2F2"/>
<path d="M17.8176 75.265H11.9128V81.1698H17.8176V75.265Z" fill="#81CAA8"/>
<path d="M17.8176 84.8924H11.9128V90.7971H17.8176V84.8924Z" fill="#F2F2F2"/>
<path d="M48.7534 67.499H20.6416V68.0125H48.7534V67.499Z" fill="#F2F2F2"/>
<path d="M29.3704 69.1677H20.6416V69.6812H29.3704V69.1677Z" fill="#F2F2F2"/>
<path d="M48.7534 77.1263H20.6416V77.6397H48.7534V77.1263Z" fill="#F2F2F2"/>
<path d="M29.3704 78.795H20.6416V79.3085H29.3704V78.795Z" fill="#F2F2F2"/>
<path d="M48.7534 86.7537H20.6416V87.2671H48.7534V86.7537Z" fill="#F2F2F2"/>
<path d="M29.3704 88.4224H20.6416V88.9358H29.3704V88.4224Z" fill="#F2F2F2"/>
<path d="M127.056 112.867C127.056 115.48 125.503 116.393 123.586 116.393C123.542 116.393 123.498 116.392 123.454 116.391C123.365 116.389 123.277 116.385 123.19 116.379C121.46 116.256 120.117 115.297 120.117 112.867C120.117 110.353 123.33 107.18 123.572 106.944L123.572 106.944C123.582 106.935 123.586 106.93 123.586 106.93C123.586 106.93 127.056 110.254 127.056 112.867Z" fill="#81CAA8"/>
<path d="M123.46 115.993L124.729 114.22L123.457 116.188L123.454 116.391C123.365 116.389 123.277 116.385 123.19 116.379L123.326 113.765L123.325 113.744L123.328 113.741L123.341 113.494L122.065 111.521L123.345 113.309L123.348 113.361L123.451 111.386L122.359 109.348L123.464 111.039L123.572 106.944L123.572 106.93V106.944L123.554 110.173L124.641 108.893L123.55 110.451L123.521 112.22L124.536 110.522L123.517 112.48L123.501 113.463L124.974 111.101L123.495 113.806L123.46 115.993Z" fill="#3F3D56"/>
<path d="M14.4803 95.0245C14.4803 97.6375 12.9271 98.5499 11.0108 98.5499C10.9665 98.5499 10.9221 98.5492 10.878 98.5483C10.7892 98.5463 10.7011 98.5422 10.6142 98.5361C8.88478 98.4138 7.54138 97.4546 7.54138 95.0245C7.54138 92.5101 10.7544 89.337 10.9965 89.1017L10.9968 89.1014C11.0061 89.0921 11.0108 89.0876 11.0108 89.0876C11.0108 89.0876 14.4803 92.4118 14.4803 95.0245Z" fill="#81CAA8"/>
<path d="M10.8842 98.1501L12.1532 96.3772L10.881 98.3449L10.8778 98.5483C10.7891 98.5464 10.7009 98.5422 10.6141 98.5362L10.7508 95.9222L10.7498 95.9017L10.752 95.8982L10.7651 95.6511L9.48975 93.6786L10.769 95.4659L10.7721 95.5182L10.8753 93.5432L9.78352 91.505L10.8887 93.1968L10.9963 89.1017L10.9966 89.0877V89.1014L10.9788 92.3304L12.0657 91.0503L10.9743 92.6086L10.9455 94.377L11.9607 92.6798L10.9414 94.6372L10.9254 95.6204L12.3985 93.2581L10.9197 95.9634L10.8842 98.1501Z" fill="#3F3D56"/>
</svg>
