<svg width="144" height="144" viewBox="0 0 144 144" fill="none" xmlns="http://www.w3.org/2000/svg">
<rect width="144" height="144" rx="5" fill="white"/>
<path d="M69.6687 113.674C38.6745 111.315 1.7125 87.2955 3.59429 62.5634C5.47608 37.8313 41.2742 14.8078 72.2683 17.1669C103.262 19.526 121.104 65.746 119.222 90.4781C117.34 115.21 100.663 116.033 69.6687 113.674Z" fill="#F2F2F2"/>
<path d="M72.2681 117.647C108.001 117.647 136.967 115.872 136.967 113.682C136.967 111.493 108.001 109.718 72.2681 109.718C36.5356 109.718 7.56873 111.493 7.56873 113.682C7.56873 115.872 36.5356 117.647 72.2681 117.647Z" fill="#3F3D56"/>
<path opacity="0.1" d="M72.2681 116.24C102.704 116.24 127.378 115.066 127.378 113.618C127.378 112.17 102.704 110.996 72.2681 110.996C41.8319 110.996 17.1586 112.17 17.1586 113.618C17.1586 115.066 41.8319 116.24 72.2681 116.24Z" fill="black"/>
<path d="M27.132 126.343C42.1166 126.343 54.264 125.284 54.264 123.977C54.264 122.67 42.1166 121.611 27.132 121.611C12.1474 121.611 0 122.67 0 123.977C0 125.284 12.1474 126.343 27.132 126.343Z" fill="#3F3D56"/>
<path opacity="0.1" d="M27.1321 125.503C39.8956 125.503 50.2425 124.803 50.2425 123.939C50.2425 123.075 39.8956 122.374 27.1321 122.374C14.3685 122.374 4.02161 123.075 4.02161 123.939C4.02161 124.803 14.3685 125.503 27.1321 125.503Z" fill="black"/>
<path d="M121.24 37.7176H25.0862V113.171H121.24V37.7176Z" fill="#3F3D56"/>
<path d="M72.0693 48.0289H48.3482C48.3103 48.029 48.2728 48.0216 48.2378 48.0072C48.2028 47.9927 48.171 47.9715 48.1442 47.9448C48.1174 47.9181 48.0962 47.8863 48.0817 47.8513C48.0672 47.8163 48.0597 47.7789 48.0597 47.741C48.0597 47.7031 48.0672 47.6656 48.0817 47.6307C48.0962 47.5957 48.1174 47.5639 48.1442 47.5372C48.171 47.5104 48.2028 47.4892 48.2378 47.4748C48.2728 47.4604 48.3103 47.453 48.3482 47.4531H72.0693C72.1455 47.4532 72.2186 47.4836 72.2724 47.5376C72.3263 47.5916 72.3565 47.6647 72.3565 47.741C72.3565 47.8173 72.3263 47.8904 72.2724 47.9444C72.2186 47.9984 72.1455 48.0288 72.0693 48.0289V48.0289Z" fill="#F2F2F2"/>
<path d="M98.0358 51.1962H60.7268C60.6505 51.1962 60.5773 51.1658 60.5233 51.1118C60.4693 51.0578 60.439 50.9846 60.439 50.9082C60.439 50.8319 60.4693 50.7586 60.5233 50.7046C60.5773 50.6506 60.6505 50.6203 60.7268 50.6203H98.0358C98.0736 50.6203 98.111 50.6277 98.1459 50.6422C98.1809 50.6567 98.2126 50.6779 98.2393 50.7046C98.2661 50.7314 98.2873 50.7631 98.3017 50.798C98.3162 50.833 98.3236 50.8704 98.3236 50.9082C98.3236 50.946 98.3162 50.9835 98.3017 51.0184C98.2873 51.0533 98.2661 51.0851 98.2393 51.1118C98.2126 51.1386 98.1809 51.1598 98.1459 51.1742C98.111 51.1887 98.0736 51.1962 98.0358 51.1962V51.1962Z" fill="#F2F2F2"/>
<path d="M72.1844 54.3633H48.4633C48.3869 54.3633 48.3137 54.333 48.2597 54.279C48.2057 54.225 48.1754 54.1518 48.1754 54.0754C48.1754 53.999 48.2057 53.9258 48.2597 53.8718C48.3137 53.8178 48.3869 53.7875 48.4633 53.7875H72.1844C72.2607 53.7875 72.334 53.8178 72.388 53.8718C72.4419 53.9258 72.4723 53.999 72.4723 54.0754C72.4723 54.1518 72.4419 54.225 72.388 54.279C72.334 54.333 72.2607 54.3633 72.1844 54.3633V54.3633Z" fill="#F2F2F2"/>
<path d="M98.0357 54.4209H74.3146C74.2383 54.4209 74.165 54.3906 74.1111 54.3366C74.0571 54.2826 74.0267 54.2094 74.0267 54.133C74.0267 54.0567 74.0571 53.9834 74.1111 53.9294C74.165 53.8754 74.2383 53.8451 74.3146 53.8451H98.0357C98.1121 53.8451 98.1853 53.8754 98.2393 53.9294C98.2933 53.9834 98.3236 54.0567 98.3236 54.133C98.3236 54.2094 98.2933 54.2826 98.2393 54.3366C98.1853 54.3906 98.1121 54.4209 98.0357 54.4209V54.4209Z" fill="#F2F2F2"/>
<path d="M72.2419 57.5306H48.5208C48.4444 57.5306 48.3712 57.5002 48.3172 57.4462C48.2632 57.3922 48.2329 57.319 48.2329 57.2426C48.2329 57.1663 48.2632 57.093 48.3172 57.039C48.3712 56.985 48.4444 56.9547 48.5208 56.9547H72.2419C72.3182 56.9547 72.3915 56.985 72.4455 57.039C72.4994 57.093 72.5298 57.1663 72.5298 57.2426C72.5298 57.319 72.4994 57.3922 72.4455 57.4462C72.3915 57.5002 72.3182 57.5306 72.2419 57.5306V57.5306Z" fill="#F2F2F2"/>
<path d="M72.2995 60.6977H48.5784C48.5021 60.6977 48.4288 60.6674 48.3748 60.6134C48.3209 60.5594 48.2905 60.4862 48.2905 60.4098C48.2905 60.3335 48.3209 60.2602 48.3748 60.2062C48.4288 60.1522 48.5021 60.1219 48.5784 60.1219H72.2995C72.3759 60.1219 72.4491 60.1522 72.5031 60.2062C72.5571 60.2602 72.5874 60.3335 72.5874 60.4098C72.5874 60.4862 72.5571 60.5594 72.5031 60.6134C72.4491 60.6674 72.3759 60.6977 72.2995 60.6977V60.6977Z" fill="#F2F2F2"/>
<path d="M83.0662 48.0865H76.2722C76.1959 48.0865 76.1227 48.0562 76.0687 48.0022C76.0147 47.9482 75.9844 47.875 75.9844 47.7986C75.9844 47.7222 76.0147 47.649 76.0687 47.595C76.1227 47.541 76.1959 47.5107 76.2722 47.5107H83.0662C83.1425 47.5107 83.2157 47.541 83.2697 47.595C83.3237 47.649 83.354 47.7222 83.354 47.7986C83.354 47.875 83.3237 47.9482 83.2697 48.0022C83.2157 48.0562 83.1425 48.0865 83.0662 48.0865V48.0865Z" fill="#F2F2F2"/>
<path d="M83.0662 57.5306H76.2722C76.1959 57.5306 76.1227 57.5002 76.0687 57.4462C76.0147 57.3922 75.9844 57.319 75.9844 57.2426C75.9844 57.1663 76.0147 57.093 76.0687 57.039C76.1227 56.985 76.1959 56.9547 76.2722 56.9547H83.0662C83.1425 56.9547 83.2157 56.985 83.2697 57.039C83.3237 57.093 83.354 57.1663 83.354 57.2426C83.354 57.319 83.3237 57.3922 83.2697 57.4462C83.2157 57.5002 83.1425 57.5306 83.0662 57.5306V57.5306Z" fill="#F2F2F2"/>
<path d="M83.0662 60.6402H76.2722C76.2344 60.6403 76.1969 60.6329 76.1619 60.6184C76.1269 60.604 76.0951 60.5828 76.0683 60.5561C76.0415 60.5293 76.0202 60.4976 76.0057 60.4626C75.9912 60.4276 75.9838 60.3901 75.9838 60.3523C75.9838 60.3144 75.9912 60.2769 76.0057 60.2419C76.0202 60.207 76.0415 60.1752 76.0683 60.1484C76.0951 60.1217 76.1269 60.1005 76.1619 60.0861C76.1969 60.0716 76.2344 60.0643 76.2722 60.0643H83.0662C83.104 60.0643 83.1415 60.0716 83.1765 60.0861C83.2115 60.1005 83.2433 60.1217 83.2701 60.1484C83.2969 60.1752 83.3182 60.207 83.3327 60.2419C83.3472 60.2769 83.3547 60.3144 83.3547 60.3523C83.3547 60.3901 83.3472 60.4276 83.3327 60.4626C83.3182 60.4976 83.2969 60.5293 83.2701 60.5561C83.2433 60.5828 83.2115 60.604 83.1765 60.6184C83.1415 60.6329 83.104 60.6403 83.0662 60.6402V60.6402Z" fill="#F2F2F2"/>
<path d="M94.4661 60.6402H87.6722C87.5959 60.64 87.5229 60.6096 87.469 60.5556C87.4151 60.5017 87.3849 60.4285 87.3849 60.3523C87.3849 60.276 87.4151 60.2029 87.469 60.1489C87.5229 60.0949 87.5959 60.0645 87.6722 60.0643H94.4661C94.5039 60.0643 94.5414 60.0716 94.5764 60.0861C94.6114 60.1005 94.6432 60.1217 94.67 60.1484C94.6968 60.1752 94.7181 60.207 94.7326 60.2419C94.7471 60.2769 94.7545 60.3144 94.7545 60.3523C94.7545 60.3901 94.7471 60.4276 94.7326 60.4626C94.7181 60.4976 94.6968 60.5293 94.67 60.5561C94.6432 60.5828 94.6114 60.604 94.5764 60.6184C94.5414 60.6329 94.5039 60.6403 94.4661 60.6402V60.6402Z" fill="#F2F2F2"/>
<path d="M55.0845 51.1962H48.2906C48.2142 51.1962 48.141 51.1658 48.087 51.1118C48.033 51.0578 48.0027 50.9846 48.0027 50.9082C48.0027 50.8319 48.033 50.7586 48.087 50.7046C48.141 50.6506 48.2142 50.6203 48.2906 50.6203H55.0845C55.1608 50.6203 55.234 50.6506 55.288 50.7046C55.342 50.7586 55.3723 50.8319 55.3723 50.9082C55.3723 50.9846 55.342 51.0578 55.288 51.1118C55.234 51.1658 55.1608 51.1962 55.0845 51.1962V51.1962Z" fill="#F2F2F2"/>
<path d="M72.098 94.6731H48.3769C48.3005 94.6731 48.2273 94.6428 48.1733 94.5888C48.1193 94.5348 48.089 94.4615 48.089 94.3852C48.089 94.3088 48.1193 94.2356 48.1733 94.1816C48.2273 94.1276 48.3005 94.0973 48.3769 94.0973H72.098C72.1743 94.0973 72.2475 94.1276 72.3015 94.1816C72.3555 94.2356 72.3859 94.3088 72.3859 94.3852C72.3859 94.4615 72.3555 94.5348 72.3015 94.5888C72.2475 94.6428 72.1743 94.6731 72.098 94.6731Z" fill="#F2F2F2"/>
<path d="M71.9829 101.007H48.2618C48.1854 101.007 48.1122 100.977 48.0582 100.923C48.0042 100.869 47.9739 100.796 47.9739 100.72C47.9739 100.643 48.0042 100.57 48.0582 100.516C48.1122 100.462 48.1854 100.432 48.2618 100.432H71.9829C72.0592 100.432 72.1324 100.462 72.1864 100.516C72.2404 100.57 72.2707 100.643 72.2707 100.72C72.2707 100.796 72.2404 100.869 72.1864 100.923C72.1324 100.977 72.0592 101.007 71.9829 101.007Z" fill="#F2F2F2"/>
<path d="M72.0405 104.175H48.3194C48.2815 104.175 48.244 104.167 48.209 104.153C48.174 104.139 48.1422 104.117 48.1154 104.091C48.0886 104.064 48.0674 104.032 48.0529 103.997C48.0383 103.962 48.0309 103.925 48.0309 103.887C48.0309 103.849 48.0383 103.811 48.0529 103.776C48.0674 103.741 48.0886 103.71 48.1154 103.683C48.1422 103.656 48.174 103.635 48.209 103.621C48.244 103.606 48.2815 103.599 48.3194 103.599H72.0405C72.0783 103.599 72.1158 103.606 72.1508 103.621C72.1858 103.635 72.2176 103.656 72.2444 103.683C72.2712 103.71 72.2925 103.741 72.307 103.776C72.3215 103.811 72.329 103.849 72.329 103.887C72.329 103.925 72.3215 103.962 72.307 103.997C72.2925 104.032 72.2712 104.064 72.2444 104.091C72.2176 104.117 72.1858 104.139 72.1508 104.153C72.1158 104.167 72.0783 104.175 72.0405 104.175V104.175Z" fill="#F2F2F2"/>
<path d="M82.1737 101.065H75.3798C75.3035 101.065 75.2302 101.035 75.1762 100.981C75.1222 100.927 75.0919 100.854 75.0919 100.777C75.0919 100.701 75.1222 100.628 75.1762 100.574C75.2302 100.52 75.3035 100.489 75.3798 100.489H82.1737C82.2501 100.489 82.3233 100.52 82.3773 100.574C82.4313 100.628 82.4616 100.701 82.4616 100.777C82.4616 100.854 82.4313 100.927 82.3773 100.981C82.3233 101.035 82.2501 101.065 82.1737 101.065Z" fill="#F2F2F2"/>
<path d="M82.1737 104.175H75.3798C75.3035 104.175 75.2302 104.144 75.1762 104.09C75.1222 104.036 75.0919 103.963 75.0919 103.887C75.0919 103.81 75.1222 103.737 75.1762 103.683C75.2302 103.629 75.3035 103.599 75.3798 103.599H82.1737C82.2501 103.599 82.3233 103.629 82.3773 103.683C82.4313 103.737 82.4616 103.81 82.4616 103.887C82.4616 103.963 82.4313 104.036 82.3773 104.09C82.3233 104.144 82.2501 104.175 82.1737 104.175V104.175Z" fill="#F2F2F2"/>
<path d="M93.5736 101.065H86.7797C86.7034 101.065 86.6301 101.035 86.5761 100.981C86.5222 100.927 86.4918 100.854 86.4918 100.777C86.4918 100.701 86.5222 100.628 86.5761 100.574C86.6301 100.52 86.7034 100.489 86.7797 100.489H93.5736C93.65 100.489 93.7232 100.52 93.7772 100.574C93.8312 100.628 93.8615 100.701 93.8615 100.777C93.8615 100.854 93.8312 100.927 93.7772 100.981C93.7232 101.035 93.65 101.065 93.5736 101.065V101.065Z" fill="#F2F2F2"/>
<path d="M98.0646 97.8403H60.7556C60.6793 97.8403 60.6061 97.81 60.5521 97.756C60.4981 97.702 60.4678 97.6288 60.4678 97.5524C60.4678 97.476 60.4981 97.4028 60.5521 97.3488C60.6061 97.2948 60.6793 97.2645 60.7556 97.2645H98.0646C98.1409 97.2645 98.2142 97.2948 98.2681 97.3488C98.3221 97.4028 98.3525 97.476 98.3525 97.5524C98.3525 97.6288 98.3221 97.702 98.2681 97.756C98.2142 97.81 98.1409 97.8403 98.0646 97.8403V97.8403Z" fill="#F2F2F2"/>
<path d="M55.1132 97.8403H48.3193C48.2429 97.8403 48.1697 97.81 48.1157 97.756C48.0617 97.702 48.0314 97.6288 48.0314 97.5524C48.0314 97.476 48.0617 97.4028 48.1157 97.3488C48.1697 97.2948 48.2429 97.2645 48.3193 97.2645H55.1132C55.1895 97.2645 55.2627 97.2948 55.3167 97.3488C55.3707 97.4028 55.401 97.476 55.401 97.5524C55.401 97.6288 55.3707 97.702 55.3167 97.756C55.2627 97.81 55.1895 97.8403 55.1132 97.8403V97.8403Z" fill="#F2F2F2"/>
<path d="M98.0646 107.399H60.7556C60.7178 107.4 60.6803 107.392 60.6453 107.378C60.6103 107.363 60.5785 107.342 60.5517 107.315C60.5249 107.289 60.5036 107.257 60.4891 107.222C60.4746 107.187 60.4672 107.149 60.4672 107.112C60.4672 107.074 60.4746 107.036 60.4891 107.001C60.5036 106.966 60.5249 106.934 60.5517 106.908C60.5785 106.881 60.6103 106.86 60.6453 106.845C60.6803 106.831 60.7178 106.824 60.7556 106.824H98.0646C98.1409 106.824 98.2141 106.854 98.2681 106.908C98.3221 106.962 98.3525 107.035 98.3525 107.112C98.3525 107.188 98.3221 107.261 98.2681 107.315C98.2141 107.369 98.1409 107.399 98.0646 107.399V107.399Z" fill="#F2F2F2"/>
<path d="M55.1133 107.399H48.3194C48.2815 107.4 48.244 107.392 48.209 107.378C48.174 107.363 48.1422 107.342 48.1154 107.315C48.0886 107.289 48.0674 107.257 48.0529 107.222C48.0383 107.187 48.0309 107.149 48.0309 107.112C48.0309 107.074 48.0383 107.036 48.0529 107.001C48.0674 106.966 48.0886 106.934 48.1154 106.908C48.1422 106.881 48.174 106.86 48.209 106.845C48.244 106.831 48.2815 106.824 48.3194 106.824H55.1133C55.1511 106.824 55.1886 106.831 55.2236 106.845C55.2586 106.86 55.2904 106.881 55.3172 106.908C55.344 106.934 55.3653 106.966 55.3798 107.001C55.3943 107.036 55.4018 107.074 55.4018 107.112C55.4018 107.149 55.3943 107.187 55.3798 107.222C55.3653 107.257 55.344 107.289 55.3172 107.315C55.2904 107.342 55.2586 107.363 55.2236 107.378C55.1886 107.392 55.1511 107.4 55.1133 107.399Z" fill="#F2F2F2"/>
<path d="M66.3692 68.299L57.1571 77.3975L66.3692 86.496L68.4419 84.423L61.4753 77.4551L68.4994 70.4296L66.3692 68.299Z" fill="#81CAA8"/>
<path d="M79.957 68.299L89.1691 77.3975L79.957 86.496L77.8843 84.423L84.851 77.4551L77.8268 70.4296L79.957 68.299Z" fill="#81CAA8"/>
<path d="M27.6435 40.7869C28.279 40.7869 28.7942 40.2716 28.7942 39.6359C28.7942 39.0002 28.279 38.4849 27.6435 38.4849C27.0079 38.4849 26.4927 39.0002 26.4927 39.6359C26.4927 40.2716 27.0079 40.7869 27.6435 40.7869Z" fill="#81CAA8"/>
<path d="M30.7122 40.7869C31.3477 40.7869 31.863 40.2716 31.863 39.6359C31.863 39.0002 31.3477 38.4849 30.7122 38.4849C30.0766 38.4849 29.5614 39.0002 29.5614 39.6359C29.5614 40.2716 30.0766 40.7869 30.7122 40.7869Z" fill="#81CAA8"/>
<path d="M33.7809 40.7869C34.4165 40.7869 34.9317 40.2716 34.9317 39.6359C34.9317 39.0002 34.4165 38.4849 33.7809 38.4849C33.1453 38.4849 32.6301 39.0002 32.6301 39.6359C32.6301 40.2716 33.1453 40.7869 33.7809 40.7869Z" fill="#81CAA8"/>
<path opacity="0.1" d="M121.24 41.5542H25.0862V41.9379H121.24V41.5542Z" fill="black"/>
<path d="M144 94.685C144 102.84 139.153 105.688 133.173 105.688C127.193 105.688 122.346 102.84 122.346 94.685C122.346 86.5296 133.173 76.1545 133.173 76.1545C133.173 76.1545 144 86.5296 144 94.685Z" fill="#F2F2F2"/>
<path d="M132.779 104.441L132.889 97.6151L137.504 89.1711L132.907 96.5444L132.957 93.4754L136.137 87.3664L132.97 92.6633L133.06 87.1436L136.465 82.28L133.074 86.2757L133.13 76.1546L132.778 89.5531L132.806 89.0004L129.344 83.6994L132.751 90.0615L132.428 96.226L132.419 96.0623L128.427 90.4838L132.407 96.6403L132.366 97.4112L132.359 97.4229L132.362 97.4862L131.544 113.126H132.637L132.769 105.048L136.739 98.9062L132.779 104.441Z" fill="#3F3D56"/>
<path d="M15.6789 113.054C15.3467 113.239 14.9963 113.389 14.6333 113.502C13.9839 113.68 13.2898 113.615 12.6338 113.766C12.3653 113.828 12.073 113.958 11.9876 114.22C11.9249 114.412 11.9931 114.62 12.0583 114.811C12.7831 116.937 13.22 119.193 14.3759 121.119C14.8617 121.927 15.4646 122.659 16.1651 123.291C16.4278 123.528 16.7256 123.76 17.0774 123.797C17.2396 123.814 17.4033 123.788 17.5522 123.722C17.7011 123.655 17.8299 123.551 17.9255 123.419C18.021 123.286 18.0801 123.131 18.0967 122.969C18.1133 122.807 18.0868 122.643 18.0199 122.495C17.9162 122.264 17.7236 122.086 17.5993 121.866C17.4646 121.586 17.3856 121.282 17.3667 120.972C17.2525 120.063 17.1425 119.113 17.4574 118.252C17.6686 117.675 18.056 117.183 18.3788 116.661C18.7016 116.138 18.9698 115.539 18.8979 114.929C18.8489 114.512 18.6458 114.131 18.4312 113.771C18.2162 113.41 17.7913 112.44 17.3594 112.319C16.911 112.194 16.07 112.854 15.6789 113.054Z" fill="#2F2E41"/>
<path d="M27.4981 120.396C27.5049 120.602 27.4762 120.807 27.4133 121.003C27.2781 121.36 26.9426 121.605 26.7693 121.945C26.5283 122.418 26.6375 122.99 26.7972 123.497C26.8973 123.814 27.0287 124.145 27.2975 124.341C27.5274 124.484 27.7889 124.568 28.0588 124.585C30.365 124.904 32.7077 124.721 35.0349 124.788C35.459 124.8 35.9081 124.815 36.2784 124.608C36.6487 124.401 36.8776 123.879 36.6257 123.538C36.3996 123.231 35.9525 123.234 35.5719 123.216C34.5807 123.165 33.6369 122.777 32.8978 122.114C32.7521 121.99 32.6257 121.844 32.5228 121.682C32.4436 121.539 32.3779 121.388 32.3266 121.232C32.0003 120.349 31.6122 119.489 31.1651 118.66C31.04 118.427 30.8983 118.186 30.6657 118.061C30.4954 117.984 30.3106 117.944 30.1236 117.943C29.5436 117.906 28.0416 117.708 27.5931 118.159C27.1786 118.576 27.5073 119.867 27.4981 120.396Z" fill="#2F2E41"/>
<path d="M31.0673 68.8829C33.1134 68.8829 34.7722 67.2239 34.7722 65.1774C34.7722 63.1309 33.1134 61.4719 31.0673 61.4719C29.0212 61.4719 27.3624 63.1309 27.3624 65.1774C27.3624 67.2239 29.0212 68.8829 31.0673 68.8829Z" fill="#FBBEBE"/>
<path d="M27.7218 68.2371C27.5014 68.8272 27.1276 69.3814 26.5837 69.6989L31.7079 70.7443C31.522 69.9963 31.4975 69.2173 31.636 68.4591C31.6869 68.2756 31.6973 68.0832 31.6667 67.8953C31.5703 67.5234 31.1518 67.3445 30.7774 67.2591C29.8422 67.0459 29.0152 66.9315 28.1461 66.5184C27.8804 66.9732 27.9176 67.7127 27.7218 68.2371Z" fill="#FBBEBE"/>
<path d="M26.5408 68.3114C27.0921 68.0619 27.6926 67.9405 28.2975 67.9564C28.9023 67.9722 29.4957 68.1248 30.0332 68.4027C30.6901 68.7489 31.2341 69.2716 31.7685 69.7873C32.2611 70.2626 32.7866 70.8068 32.8216 71.4905C32.8385 71.8217 32.7352 72.1457 32.683 72.4732C32.5892 73.1505 32.7084 73.8403 33.0241 74.4468C33.3398 75.0534 33.8364 75.5466 34.4449 75.8583C34.852 76.5365 34.936 77.3582 34.9423 78.1492C34.9659 81.1464 34.0205 84.1805 34.6954 87.1007C34.8539 87.7863 35.0997 88.4504 35.2366 89.1406C35.4139 90.0347 35.4052 90.954 35.4979 91.8607C35.5985 92.8426 35.8181 93.8087 36.1517 94.7376C35.9287 95.0923 35.4646 95.2283 35.0467 95.1996C34.6287 95.1709 34.2379 94.9895 33.865 94.7986C32.0591 93.8743 30.4051 92.6556 28.5347 91.8701C27.2973 91.3504 25.979 91.0267 24.7786 90.4265C23.5781 89.8262 22.4617 88.8737 22.0946 87.5825C21.9359 87.0242 21.9262 86.436 21.9175 85.8557C21.881 83.4113 21.8471 80.9402 22.3791 78.5541C22.8482 76.4499 23.7525 74.437 23.9498 72.2902C24.014 71.5914 24.0154 70.8433 24.4058 70.2602C24.9575 69.436 26.1489 69.2226 26.5408 68.3114Z" fill="#2F2E41"/>
<path d="M28.9601 65.2297C29.1785 64.9449 29.5995 64.9061 29.9483 64.9903C30.297 65.0745 30.6186 65.2543 30.9708 65.3226C31.0509 65.3454 31.1348 65.3511 31.2173 65.3395C31.2997 65.328 31.3788 65.2993 31.4495 65.2554C31.5726 65.1341 31.6462 64.9714 31.656 64.7988C31.7794 64.0646 31.8082 63.3176 31.7418 62.5761C31.7235 62.472 31.7304 62.3651 31.7621 62.2644C31.8493 62.0542 32.1154 62.0042 32.3327 61.9367C32.6912 61.8155 32.9991 61.5784 33.2078 61.2626C33.4164 60.9469 33.514 60.5706 33.4851 60.1933C33.4796 60.0123 33.4036 59.8406 33.2733 59.7149C33.123 59.5924 32.9127 59.5849 32.7188 59.5833C31.7229 59.5753 30.727 59.5756 29.7311 59.5841C29.3625 59.5872 28.9753 59.5963 28.6558 59.7801C28.4196 59.916 28.2439 60.1347 28.0318 60.3059C27.4786 60.7524 26.7304 60.8432 26.0574 61.072C25.7289 61.1656 25.4305 61.3435 25.1921 61.5881C24.9683 61.8439 24.8607 62.2241 25.0012 62.5335C25.0734 62.6625 25.154 62.7866 25.2425 62.9049C25.6394 63.5398 25.3752 64.3632 25.4345 65.1096C25.5085 66.0417 26.8876 67.5537 27.8228 67.7743C29.3326 68.1304 28.4603 65.8415 28.9601 65.2297Z" fill="#2F2E41"/>
<path d="M26.8686 106.096C26.9639 106.777 27.0861 107.46 27.0534 108.146C27.0078 109.104 26.6623 110.028 26.5984 110.985C26.5507 111.7 26.661 112.423 26.5618 113.132C26.4982 113.587 26.35 114.025 26.2583 114.474C26.1131 115.207 26.1172 115.962 26.2704 116.693C26.4236 117.424 26.7227 118.116 27.1499 118.729C27.2127 118.834 27.3019 118.92 27.4087 118.979C27.511 119.017 27.6206 119.032 27.7293 119.022C28.8076 119 29.8831 118.902 30.9477 118.729C31.0256 118.726 31.0995 118.694 31.1544 118.638C31.1784 118.601 31.1937 118.56 31.1992 118.516C31.3966 117.501 30.9465 116.484 30.832 115.456C30.7098 114.359 30.973 113.259 31.2343 112.187C31.3528 111.658 31.5008 111.135 31.6776 110.623C31.8039 110.278 31.9565 109.942 32.0659 109.592C32.2209 109.041 32.3154 108.475 32.3475 107.903C32.4235 107.002 32.4637 106.098 32.4683 105.192C32.4941 104.334 32.4227 103.476 32.2554 102.633C32.0152 101.567 31.5235 100.577 31.0361 99.5985C30.7754 99.661 30.5307 99.7773 30.3177 99.94C29.6896 100.347 29.0338 100.709 28.355 101.025C27.899 101.236 27.0096 101.387 26.7202 101.828C26.4348 102.264 26.6189 103.152 26.6407 103.632C26.6782 104.457 26.7541 105.278 26.8686 106.096Z" fill="#2F2E41"/>
<path opacity="0.1" d="M26.8686 106.096C26.9639 106.777 27.0861 107.46 27.0534 108.146C27.0078 109.104 26.6623 110.028 26.5984 110.985C26.5507 111.7 26.661 112.423 26.5618 113.132C26.4982 113.587 26.35 114.025 26.2583 114.474C26.1131 115.207 26.1172 115.962 26.2704 116.693C26.4236 117.424 26.7227 118.116 27.1499 118.729C27.2127 118.834 27.3019 118.92 27.4087 118.979C27.511 119.017 27.6206 119.032 27.7293 119.022C28.8076 119 29.8831 118.902 30.9477 118.729C31.0256 118.726 31.0995 118.694 31.1544 118.638C31.1784 118.601 31.1937 118.56 31.1992 118.516C31.3966 117.501 30.9465 116.484 30.832 115.456C30.7098 114.359 30.973 113.259 31.2343 112.187C31.3528 111.658 31.5008 111.135 31.6776 110.623C31.8039 110.278 31.9565 109.942 32.0659 109.592C32.2209 109.041 32.3154 108.475 32.3475 107.903C32.4235 107.002 32.4637 106.098 32.4683 105.192C32.4941 104.334 32.4227 103.476 32.2554 102.633C32.0152 101.567 31.5235 100.577 31.0361 99.5985C30.7754 99.661 30.5307 99.7773 30.3177 99.94C29.6896 100.347 29.0338 100.709 28.355 101.025C27.899 101.236 27.0096 101.387 26.7202 101.828C26.4348 102.264 26.6189 103.152 26.6407 103.632C26.6782 104.457 26.7541 105.278 26.8686 106.096Z" fill="black"/>
<path d="M21.8598 91.56C21.3678 92.8849 22.091 94.3165 22.7193 95.5823C24.2672 98.701 25.3421 102.029 26.4113 105.342C26.4914 105.59 26.5714 105.861 26.4822 106.106C26.405 106.28 26.2799 106.429 26.1213 106.534C25.3841 107.094 24.4455 107.294 23.5673 107.587C22.7186 107.87 21.9058 108.251 21.1452 108.722C20.5088 109.117 19.9127 109.572 19.3178 110.027L17.4239 111.473C17.3012 111.556 17.1941 111.66 17.1073 111.78C16.9246 112.066 16.9994 112.441 17.0904 112.768C17.3312 113.635 17.6413 114.482 18.0177 115.299C18.0796 115.478 18.1975 115.633 18.354 115.74C18.6496 115.899 19.0111 115.688 19.2369 115.44C19.4626 115.191 19.6579 114.882 19.9761 114.776C20.2939 114.669 20.6437 114.798 20.9757 114.752C21.5125 114.676 21.869 114.182 22.2559 113.802C23.837 112.25 26.4768 112.363 28.216 110.991C28.4674 110.766 28.7336 110.558 29.0127 110.369C29.3068 110.195 29.6402 110.1 29.9453 109.946C30.8731 109.479 31.4565 108.512 31.7689 107.522C32.0814 106.531 32.1705 105.485 32.3951 104.47C32.5112 103.946 32.664 103.427 32.7156 102.892C32.7488 102.395 32.738 101.896 32.6832 101.4L32.0557 93.6356C32.0046 93.0034 31.9534 92.3705 31.8542 91.7441C29.9903 91.8107 28.1278 91.8857 26.263 91.9078C24.779 91.9253 23.2678 92.0291 21.8598 91.56Z" fill="#2F2E41"/>
<path d="M21.1746 93.3764C21.4274 93.7831 22.0428 93.7747 22.4666 93.5517C22.8903 93.3287 23.2196 92.9541 23.6443 92.7331C24.2151 92.436 24.8905 92.4472 25.5337 92.4654C26.5519 92.4941 27.5827 92.5248 28.5624 92.8038C29.5757 93.0925 30.5621 93.6483 31.6099 93.5374C31.7922 93.5181 31.9916 93.4658 32.0908 93.3117C32.1489 93.1999 32.1763 93.0748 32.17 92.949L32.2043 92.0335C32.2253 91.8751 32.2 91.7141 32.1314 91.5698C32.0435 91.4498 31.9229 91.3575 31.7841 91.3039C30.2928 90.5818 28.5921 90.4474 26.9361 90.3907C26.0944 90.3618 25.2523 90.3499 24.4099 90.3551C23.695 90.3594 22.8368 90.256 22.1417 90.447C21.2089 90.7034 20.7014 92.6152 21.1746 93.3764Z" fill="#2F2E41"/>
<path d="M30.539 69.3983C28.5849 69.381 26.8142 68.091 24.8603 68.0595C24.6242 68.0432 24.3877 68.084 24.1708 68.1785C23.8985 68.3157 23.7195 68.5809 23.5127 68.805C22.935 69.4307 22.0983 69.7648 21.5048 70.3755C20.9483 70.9482 20.6388 71.8014 20.8585 72.5692C21.0782 73.337 21.9075 73.9259 22.6843 73.7413C22.9973 72.728 23.6432 71.8502 24.5175 71.2501C24.9724 70.9583 25.4517 70.7066 25.9502 70.4979C26.8284 70.1 27.8104 69.6944 28.7272 69.9927C29.0653 70.1204 29.3841 70.2943 29.6745 70.5094L31.203 71.5363C31.0249 70.8337 30.8648 70.0457 30.539 69.3983Z" fill="#81CAA8"/>
<path d="M22.4593 73.062C22.1998 73.3858 22.5736 73.8549 22.5164 74.2658C22.4784 74.5389 22.2537 74.7474 22.1602 75.0067C22.0633 75.2753 22.1146 75.5729 22.0779 75.856C22.041 76.062 21.9865 76.2643 21.9149 76.4609C21.7502 77.0481 21.6353 77.6481 21.5714 78.2546L21.2293 80.8092C21.17 81.1937 21.1339 81.5813 21.1212 81.9701C21.1384 82.2607 21.119 82.5523 21.0634 82.8381C20.9876 83.1172 20.8199 83.3615 20.7071 83.6278C20.5943 83.8942 20.542 84.2164 20.6944 84.4622C20.184 84.8874 20.0323 85.7224 20.3891 86.2827C20.4571 86.37 20.5102 86.4678 20.5464 86.5724C20.5662 86.7185 20.5421 86.8671 20.4772 86.9995L20.1313 87.9212C20.0428 88.1571 20.0148 88.5162 20.2609 88.5701C20.0571 88.7818 19.8982 89.0327 19.794 89.3076C19.7435 89.4456 19.7284 89.5941 19.7501 89.7394C19.7719 89.8848 19.8297 90.0224 19.9184 90.1396C20.0043 90.215 20.0775 90.3038 20.135 90.4025C20.1689 90.5401 20.1601 90.6848 20.11 90.8173C20.0583 91.0186 20.0483 91.2283 20.0807 91.4336C20.1131 91.6389 20.1872 91.8353 20.2983 92.0109C20.4135 92.1841 20.5767 92.32 20.7679 92.4019C20.959 92.4839 21.1699 92.5084 21.3748 92.4724C22.0666 92.3163 22.6882 92.07 23.3858 92.198C24.8877 92.4736 26.3944 92.7504 27.849 93.2149C29.5092 93.7451 31.1167 94.5225 32.8518 94.6857C32.966 94.709 33.0847 94.6906 33.1864 94.6336C33.2748 94.5499 33.3298 94.4368 33.3411 94.3155C33.5199 93.4772 33.6986 92.6389 33.8774 91.8006C34.0935 90.8714 34.2581 89.931 34.3703 88.9836C34.4314 88.3722 34.4488 87.7573 34.4661 87.143L34.6043 82.2538C34.6691 81.5332 34.573 80.8073 34.323 80.1284L33.528 77.5901C33.0744 76.1415 32.0336 74.857 31.663 73.3849C31.4285 72.4533 31.2553 71.4535 30.6263 70.7273C29.7297 69.6921 28.1784 69.5311 26.8206 69.7091C26.2072 69.7895 25.5886 69.9283 25.058 70.2464C24.4444 70.6143 23.9925 71.1939 23.5552 71.7601C23.1948 72.2268 22.828 72.602 22.4593 73.062Z" fill="#81CAA8"/>
<path d="M25.6297 87.4428C25.7416 87.9253 25.9765 88.3701 26.1203 88.844C26.3613 89.6381 26.3408 90.4932 26.5813 91.2874C26.6822 91.6207 26.8285 91.9407 26.9009 92.2814C27.0698 93.0756 26.8232 93.8973 26.5169 94.6493C26.2105 95.4013 25.8375 96.1428 25.738 96.9487C25.668 97.5163 25.7686 98.1572 26.206 98.5256C26.6602 98.908 27.3201 98.8821 27.9116 98.8312C28.1239 98.8253 28.3335 98.7816 28.5306 98.7023C28.983 98.4883 29.1735 97.9529 29.2792 97.4637C29.6336 95.8243 29.5323 94.1251 29.4294 92.451L29.1601 88.0729C29.1082 87.23 29.0527 86.3697 28.793 85.5604C28.6985 85.266 28.5339 84.6711 28.265 84.4831C27.9987 84.2969 27.2383 84.2886 26.9086 84.2732C25.3617 84.2005 25.379 86.3599 25.6297 87.4428Z" fill="#FBBEBE"/>
<path d="M27.3436 71.2779C27.0277 71.1125 26.6296 71.1838 26.3243 71.368C26.0294 71.57 25.7712 71.8207 25.5607 72.1095C24.878 72.943 24.1554 73.8993 24.2566 74.9719C24.2946 75.3741 24.4485 75.7547 24.5529 76.1449C25.0106 77.856 24.5045 79.6656 24.5626 81.4359C24.5961 82.4589 24.8187 83.465 25.0403 84.4642C25.0855 84.6681 25.158 84.9042 25.3552 84.9728C25.5034 85.0244 25.6634 84.9581 25.81 84.9023C26.3563 84.7004 26.9432 84.6331 27.521 84.7059C28.0989 84.7787 28.6507 84.9897 29.1298 85.3208C29.4961 85.1253 29.3589 84.5071 29.2767 84.1C29.0327 82.8905 29.364 81.6428 29.7662 80.4764C30.1685 79.3099 30.6499 78.1449 30.7165 76.9129C30.792 75.5168 30.3293 74.1543 29.8726 72.8329C29.773 72.5445 29.664 72.242 29.433 72.0428C29.2351 71.8956 29.0084 71.7921 28.7677 71.7388C28.2827 71.5954 27.7916 71.5126 27.3436 71.2779Z" fill="#2F2E41"/>
</svg>
