<svg width="177" height="185" viewBox="0 0 177 185" fill="none" xmlns="http://www.w3.org/2000/svg">
<path d="M197.787 0.956177H30.027C26.1085 0.956177 22.2284 1.73022 18.6082 3.23411C14.988 4.73799 11.6986 6.94227 8.92784 9.72109C6.15706 12.4999 3.95917 15.7988 2.45963 19.4295C0.960099 23.0602 0.188293 26.9516 0.188293 30.8814V134.457C0.188293 138.186 1.66541 141.762 4.29468 144.399C6.92395 147.036 10.49 148.518 14.2083 148.518H120.749C124.294 160.706 133.202 177.507 155.599 184.995L149.257 148.53H197.767C201.485 148.53 205.051 147.048 207.68 144.411C210.31 141.774 211.787 138.198 211.787 134.469V15.029C211.79 11.3012 210.317 7.72476 207.692 5.08583C205.067 2.4469 201.504 0.961501 197.787 0.956177Z" fill="#81CAA8"/>
</svg>
