<svg width="212" height="177" viewBox="0 0 212 177" fill="none" xmlns="http://www.w3.org/2000/svg">
<path d="M197.599 0H29.8387C25.9202 0 22.0401 0.774045 18.4199 2.27793C14.7997 3.78181 11.5103 5.98609 8.73955 8.76491C5.96877 11.5437 3.77087 14.8427 2.27134 18.4734C0.771805 22.1041 0 25.9954 0 29.9253V133.501C0 137.23 1.47712 140.806 4.10638 143.443C6.73565 146.08 10.3017 147.561 14.02 147.561H120.56C124.105 159.75 133.014 176.551 155.41 184.039L149.069 147.573H197.579C201.297 147.573 204.863 146.092 207.492 143.455C210.121 140.818 211.599 137.242 211.599 133.513V14.0728C211.602 10.345 210.129 6.76858 207.504 4.12965C204.878 1.49073 201.316 0.00532398 197.599 0Z" fill="#81CAA8"/>
<path d="M98.7459 24.4891H185.613V35.6205H98.7459V24.4891Z" fill="#FCFCFC" fill-opacity="0.65"/>
<path d="M99.4884 44.5256H132.156V55.657H99.4884V44.5256Z" fill="#FCFCFC" fill-opacity="0.65"/>
<path d="M100.231 64.5621H164.082V75.6935H100.231V64.5621Z" fill="#FCFCFC" fill-opacity="0.65"/>
<path d="M100.231 84.5986H179.673V95.7299H100.231V84.5986Z" fill="#FCFCFC" fill-opacity="0.65"/>
<path d="M100.973 104.635H142.551V115.766H100.973V104.635Z" fill="#FCFCFC" fill-opacity="0.65"/>
</svg>
