<svg width="255" height="221" viewBox="0 0 255 221" fill="none" xmlns="http://www.w3.org/2000/svg">
<path d="M17.3745 0.139282H237.789C242.254 0.139282 246.536 1.91116 249.693 5.06513C252.851 8.2191 254.624 12.4968 254.624 16.9572V159.818C254.624 164.279 252.851 168.556 249.693 171.71C246.536 174.864 242.254 176.636 237.789 176.636H109.883C105.626 191.215 94.9281 211.31 68.0347 220.267L75.6299 176.636H17.3745C12.9094 176.636 8.62725 174.864 5.46999 171.71C2.31273 168.556 0.539008 164.279 0.539008 159.818V16.9716C0.537112 14.7618 0.971171 12.5733 1.81638 10.5312C2.66159 8.48914 3.90138 6.63344 5.46489 5.07022C7.02839 3.50701 8.88496 2.26693 10.9285 1.42085C12.972 0.574767 15.1624 0.139281 17.3745 0.139282Z" fill="#323232"/>
</svg>
